%TF.GenerationSoftware,KiCad,Pcbnew,(5.1.6)-1*%
%TF.CreationDate,2020-08-06T22:58:29+01:00*%
%TF.ProjectId,KiKadAmigaMeanwell,4b694b61-6441-46d6-9967-614d65616e77,1.00*%
%TF.SameCoordinates,Original*%
%TF.FileFunction,Copper,L2,Bot*%
%TF.FilePolarity,Positive*%
%FSLAX46Y46*%
G04 Gerber Fmt 4.6, Leading zero omitted, Abs format (unit mm)*
G04 Created by KiCad (PCBNEW (5.1.6)-1) date 2020-08-06 22:58:29*
%MOMM*%
%LPD*%
G01*
G04 APERTURE LIST*
%TA.AperFunction,WasherPad*%
%ADD10C,6.300000*%
%TD*%
%TA.AperFunction,ComponentPad*%
%ADD11O,1.700000X1.850000*%
%TD*%
%TA.AperFunction,Conductor*%
%ADD12C,0.250000*%
%TD*%
%TA.AperFunction,Conductor*%
%ADD13C,1.000000*%
%TD*%
%TA.AperFunction,Conductor*%
%ADD14C,2.000000*%
%TD*%
G04 APERTURE END LIST*
D10*
%TO.P,Meanwell RT50-B,*%
%TO.N,*%
X121000000Y-78000000D03*
X121000000Y-133000000D03*
%TD*%
D11*
%TO.P,To Amiga,4*%
%TO.N,N/C*%
X114500000Y-161250000D03*
%TO.P,To Amiga,3*%
X117000000Y-161250000D03*
%TO.P,To Amiga,2*%
X119500000Y-161250000D03*
%TO.P,To Amiga,1*%
%TA.AperFunction,ComponentPad*%
G36*
G01*
X122850000Y-160575000D02*
X122850000Y-161925000D01*
G75*
G02*
X122600000Y-162175000I-250000J0D01*
G01*
X121400000Y-162175000D01*
G75*
G02*
X121150000Y-161925000I0J250000D01*
G01*
X121150000Y-160575000D01*
G75*
G02*
X121400000Y-160325000I250000J0D01*
G01*
X122600000Y-160325000D01*
G75*
G02*
X122850000Y-160575000I0J-250000D01*
G01*
G37*
%TD.AperFunction*%
%TD*%
%TO.P,White Brown Black Red Yellow,5*%
%TO.N,N/C*%
X117500000Y-45250000D03*
%TO.P,White Brown Black Red Yellow,4*%
X120000000Y-45250000D03*
%TO.P,White Brown Black Red Yellow,3*%
X122500000Y-45250000D03*
%TO.P,White Brown Black Red Yellow,2*%
X125000000Y-45250000D03*
%TO.P,White Brown Black Red Yellow,1*%
%TA.AperFunction,ComponentPad*%
G36*
G01*
X128350000Y-44575000D02*
X128350000Y-45925000D01*
G75*
G02*
X128100000Y-46175000I-250000J0D01*
G01*
X126900000Y-46175000D01*
G75*
G02*
X126650000Y-45925000I0J250000D01*
G01*
X126650000Y-44575000D01*
G75*
G02*
X126900000Y-44325000I250000J0D01*
G01*
X128100000Y-44325000D01*
G75*
G02*
X128350000Y-44575000I0J-250000D01*
G01*
G37*
%TD.AperFunction*%
%TD*%
D12*
%TO.N,*%
X117500000Y-74500000D02*
X121000000Y-78000000D01*
X117500000Y-45250000D02*
X117500000Y-74500000D01*
D13*
X120000000Y-45250000D02*
X120000000Y-63750000D01*
X120000000Y-63750000D02*
X129500000Y-63750000D01*
X129500000Y-63750000D02*
X129500000Y-137750000D01*
X122500000Y-45250000D02*
X122500000Y-62000000D01*
X122500000Y-62000000D02*
X132000000Y-62000000D01*
X132000000Y-62000000D02*
X132000000Y-139000000D01*
D14*
X125000000Y-45250000D02*
X125000000Y-59000000D01*
X134500000Y-59000000D02*
X134500000Y-140500000D01*
X127500000Y-45250000D02*
X127500000Y-56000000D01*
X127500000Y-56000000D02*
X137500000Y-56000000D01*
D12*
X136750000Y-56000000D02*
X137000000Y-56250000D01*
D14*
X137500000Y-56250000D02*
X137500000Y-142000000D01*
D12*
X134000000Y-59000000D02*
X134500000Y-59500000D01*
D14*
X125000000Y-59000000D02*
X134500000Y-59000000D01*
X119500000Y-155500000D02*
X134500000Y-140500000D01*
X119500000Y-161250000D02*
X119500000Y-155500000D01*
D13*
X117000000Y-154000000D02*
X132000000Y-139000000D01*
X117000000Y-161250000D02*
X117000000Y-154000000D01*
X114500000Y-152750000D02*
X129500000Y-137750000D01*
X114500000Y-161250000D02*
X114500000Y-152750000D01*
D14*
X122000000Y-157250000D02*
X137000000Y-142250000D01*
X122000000Y-161250000D02*
X122000000Y-157250000D01*
%TD*%
M02*
