%TF.GenerationSoftware,KiCad,Pcbnew,(5.1.6)-1*%
%TF.CreationDate,2020-08-06T22:58:29+01:00*%
%TF.ProjectId,KiKadAmigaMeanwell,4b694b61-6441-46d6-9967-614d65616e77,1.00*%
%TF.SameCoordinates,Original*%
%TF.FileFunction,Legend,Top*%
%TF.FilePolarity,Positive*%
%FSLAX46Y46*%
G04 Gerber Fmt 4.6, Leading zero omitted, Abs format (unit mm)*
G04 Created by KiCad (PCBNEW (5.1.6)-1) date 2020-08-06 22:58:29*
%MOMM*%
%LPD*%
G01*
G04 APERTURE LIST*
%ADD10C,0.150000*%
%ADD11C,0.300000*%
%ADD12C,0.120000*%
G04 APERTURE END LIST*
D10*
X73264166Y-166035714D02*
X73264166Y-166845238D01*
X73216547Y-166940476D01*
X73168928Y-166988095D01*
X73073690Y-167035714D01*
X72930833Y-167035714D01*
X72835595Y-166988095D01*
X73264166Y-166654761D02*
X73168928Y-166702380D01*
X72978452Y-166702380D01*
X72883214Y-166654761D01*
X72835595Y-166607142D01*
X72787976Y-166511904D01*
X72787976Y-166226190D01*
X72835595Y-166130952D01*
X72883214Y-166083333D01*
X72978452Y-166035714D01*
X73168928Y-166035714D01*
X73264166Y-166083333D01*
X73740357Y-166702380D02*
X73740357Y-166035714D01*
X73740357Y-165702380D02*
X73692738Y-165750000D01*
X73740357Y-165797619D01*
X73787976Y-165750000D01*
X73740357Y-165702380D01*
X73740357Y-165797619D01*
X74073690Y-166035714D02*
X74454642Y-166035714D01*
X74216547Y-165702380D02*
X74216547Y-166559523D01*
X74264166Y-166654761D01*
X74359404Y-166702380D01*
X74454642Y-166702380D01*
X74787976Y-166702380D02*
X74787976Y-165702380D01*
X75216547Y-166702380D02*
X75216547Y-166178571D01*
X75168928Y-166083333D01*
X75073690Y-166035714D01*
X74930833Y-166035714D01*
X74835595Y-166083333D01*
X74787976Y-166130952D01*
X76121309Y-166035714D02*
X76121309Y-166702380D01*
X75692738Y-166035714D02*
X75692738Y-166559523D01*
X75740357Y-166654761D01*
X75835595Y-166702380D01*
X75978452Y-166702380D01*
X76073690Y-166654761D01*
X76121309Y-166607142D01*
X76597500Y-166702380D02*
X76597500Y-165702380D01*
X76597500Y-166083333D02*
X76692738Y-166035714D01*
X76883214Y-166035714D01*
X76978452Y-166083333D01*
X77026071Y-166130952D01*
X77073690Y-166226190D01*
X77073690Y-166511904D01*
X77026071Y-166607142D01*
X76978452Y-166654761D01*
X76883214Y-166702380D01*
X76692738Y-166702380D01*
X76597500Y-166654761D01*
X77502261Y-166607142D02*
X77549880Y-166654761D01*
X77502261Y-166702380D01*
X77454642Y-166654761D01*
X77502261Y-166607142D01*
X77502261Y-166702380D01*
X78407023Y-166654761D02*
X78311785Y-166702380D01*
X78121309Y-166702380D01*
X78026071Y-166654761D01*
X77978452Y-166607142D01*
X77930833Y-166511904D01*
X77930833Y-166226190D01*
X77978452Y-166130952D01*
X78026071Y-166083333D01*
X78121309Y-166035714D01*
X78311785Y-166035714D01*
X78407023Y-166083333D01*
X78978452Y-166702380D02*
X78883214Y-166654761D01*
X78835595Y-166607142D01*
X78787976Y-166511904D01*
X78787976Y-166226190D01*
X78835595Y-166130952D01*
X78883214Y-166083333D01*
X78978452Y-166035714D01*
X79121309Y-166035714D01*
X79216547Y-166083333D01*
X79264166Y-166130952D01*
X79311785Y-166226190D01*
X79311785Y-166511904D01*
X79264166Y-166607142D01*
X79216547Y-166654761D01*
X79121309Y-166702380D01*
X78978452Y-166702380D01*
X79740357Y-166702380D02*
X79740357Y-166035714D01*
X79740357Y-166130952D02*
X79787976Y-166083333D01*
X79883214Y-166035714D01*
X80026071Y-166035714D01*
X80121309Y-166083333D01*
X80168928Y-166178571D01*
X80168928Y-166702380D01*
X80168928Y-166178571D02*
X80216547Y-166083333D01*
X80311785Y-166035714D01*
X80454642Y-166035714D01*
X80549880Y-166083333D01*
X80597500Y-166178571D01*
X80597500Y-166702380D01*
X81787976Y-165654761D02*
X80930833Y-166940476D01*
X82549880Y-166702380D02*
X82549880Y-165702380D01*
X82549880Y-166654761D02*
X82454642Y-166702380D01*
X82264166Y-166702380D01*
X82168928Y-166654761D01*
X82121309Y-166607142D01*
X82073690Y-166511904D01*
X82073690Y-166226190D01*
X82121309Y-166130952D01*
X82168928Y-166083333D01*
X82264166Y-166035714D01*
X82454642Y-166035714D01*
X82549880Y-166083333D01*
X83454642Y-166702380D02*
X83454642Y-166178571D01*
X83407023Y-166083333D01*
X83311785Y-166035714D01*
X83121309Y-166035714D01*
X83026071Y-166083333D01*
X83454642Y-166654761D02*
X83359404Y-166702380D01*
X83121309Y-166702380D01*
X83026071Y-166654761D01*
X82978452Y-166559523D01*
X82978452Y-166464285D01*
X83026071Y-166369047D01*
X83121309Y-166321428D01*
X83359404Y-166321428D01*
X83454642Y-166273809D01*
X83835595Y-166035714D02*
X84073690Y-166702380D01*
X84311785Y-166035714D01*
X85073690Y-166654761D02*
X84978452Y-166702380D01*
X84787976Y-166702380D01*
X84692738Y-166654761D01*
X84645119Y-166559523D01*
X84645119Y-166178571D01*
X84692738Y-166083333D01*
X84787976Y-166035714D01*
X84978452Y-166035714D01*
X85073690Y-166083333D01*
X85121309Y-166178571D01*
X85121309Y-166273809D01*
X84645119Y-166369047D01*
X85549880Y-166035714D02*
X85549880Y-167035714D01*
X85549880Y-166083333D02*
X85645119Y-166035714D01*
X85835595Y-166035714D01*
X85930833Y-166083333D01*
X85978452Y-166130952D01*
X86026071Y-166226190D01*
X86026071Y-166511904D01*
X85978452Y-166607142D01*
X85930833Y-166654761D01*
X85835595Y-166702380D01*
X85645119Y-166702380D01*
X85549880Y-166654761D01*
X86597500Y-166702380D02*
X86502261Y-166654761D01*
X86454642Y-166607142D01*
X86407023Y-166511904D01*
X86407023Y-166226190D01*
X86454642Y-166130952D01*
X86502261Y-166083333D01*
X86597500Y-166035714D01*
X86740357Y-166035714D01*
X86835595Y-166083333D01*
X86883214Y-166130952D01*
X86930833Y-166226190D01*
X86930833Y-166511904D01*
X86883214Y-166607142D01*
X86835595Y-166654761D01*
X86740357Y-166702380D01*
X86597500Y-166702380D01*
X87502261Y-166702380D02*
X87407023Y-166654761D01*
X87359404Y-166607142D01*
X87311785Y-166511904D01*
X87311785Y-166226190D01*
X87359404Y-166130952D01*
X87407023Y-166083333D01*
X87502261Y-166035714D01*
X87645119Y-166035714D01*
X87740357Y-166083333D01*
X87787976Y-166130952D01*
X87835595Y-166226190D01*
X87835595Y-166511904D01*
X87787976Y-166607142D01*
X87740357Y-166654761D01*
X87645119Y-166702380D01*
X87502261Y-166702380D01*
X88978452Y-165654761D02*
X88121309Y-166940476D01*
X89264166Y-166416666D02*
X89740357Y-166416666D01*
X89168928Y-166702380D02*
X89502261Y-165702380D01*
X89835595Y-166702380D01*
X90168928Y-166702380D02*
X90168928Y-166035714D01*
X90168928Y-166130952D02*
X90216547Y-166083333D01*
X90311785Y-166035714D01*
X90454642Y-166035714D01*
X90549880Y-166083333D01*
X90597500Y-166178571D01*
X90597500Y-166702380D01*
X90597500Y-166178571D02*
X90645119Y-166083333D01*
X90740357Y-166035714D01*
X90883214Y-166035714D01*
X90978452Y-166083333D01*
X91026071Y-166178571D01*
X91026071Y-166702380D01*
X91502261Y-166702380D02*
X91502261Y-166035714D01*
X91502261Y-165702380D02*
X91454642Y-165750000D01*
X91502261Y-165797619D01*
X91549880Y-165750000D01*
X91502261Y-165702380D01*
X91502261Y-165797619D01*
X92407023Y-166035714D02*
X92407023Y-166845238D01*
X92359404Y-166940476D01*
X92311785Y-166988095D01*
X92216547Y-167035714D01*
X92073690Y-167035714D01*
X91978452Y-166988095D01*
X92407023Y-166654761D02*
X92311785Y-166702380D01*
X92121309Y-166702380D01*
X92026071Y-166654761D01*
X91978452Y-166607142D01*
X91930833Y-166511904D01*
X91930833Y-166226190D01*
X91978452Y-166130952D01*
X92026071Y-166083333D01*
X92121309Y-166035714D01*
X92311785Y-166035714D01*
X92407023Y-166083333D01*
X93311785Y-166702380D02*
X93311785Y-166178571D01*
X93264166Y-166083333D01*
X93168928Y-166035714D01*
X92978452Y-166035714D01*
X92883214Y-166083333D01*
X93311785Y-166654761D02*
X93216547Y-166702380D01*
X92978452Y-166702380D01*
X92883214Y-166654761D01*
X92835595Y-166559523D01*
X92835595Y-166464285D01*
X92883214Y-166369047D01*
X92978452Y-166321428D01*
X93216547Y-166321428D01*
X93311785Y-166273809D01*
X93787976Y-166702380D02*
X93787976Y-165702380D01*
X94168928Y-165702380D01*
X94264166Y-165750000D01*
X94311785Y-165797619D01*
X94359404Y-165892857D01*
X94359404Y-166035714D01*
X94311785Y-166130952D01*
X94264166Y-166178571D01*
X94168928Y-166226190D01*
X93787976Y-166226190D01*
X94740357Y-166654761D02*
X94883214Y-166702380D01*
X95121309Y-166702380D01*
X95216547Y-166654761D01*
X95264166Y-166607142D01*
X95311785Y-166511904D01*
X95311785Y-166416666D01*
X95264166Y-166321428D01*
X95216547Y-166273809D01*
X95121309Y-166226190D01*
X94930833Y-166178571D01*
X94835595Y-166130952D01*
X94787976Y-166083333D01*
X94740357Y-165988095D01*
X94740357Y-165892857D01*
X94787976Y-165797619D01*
X94835595Y-165750000D01*
X94930833Y-165702380D01*
X95168928Y-165702380D01*
X95311785Y-165750000D01*
X95740357Y-165702380D02*
X95740357Y-166511904D01*
X95787976Y-166607142D01*
X95835595Y-166654761D01*
X95930833Y-166702380D01*
X96121309Y-166702380D01*
X96216547Y-166654761D01*
X96264166Y-166607142D01*
X96311785Y-166511904D01*
X96311785Y-165702380D01*
X96645119Y-165702380D02*
X97216547Y-165702380D01*
X96930833Y-166702380D02*
X96930833Y-165702380D01*
X97692738Y-166702380D02*
X97597500Y-166654761D01*
X97549880Y-166607142D01*
X97502261Y-166511904D01*
X97502261Y-166226190D01*
X97549880Y-166130952D01*
X97597500Y-166083333D01*
X97692738Y-166035714D01*
X97835595Y-166035714D01*
X97930833Y-166083333D01*
X97978452Y-166130952D01*
X98026071Y-166226190D01*
X98026071Y-166511904D01*
X97978452Y-166607142D01*
X97930833Y-166654761D01*
X97835595Y-166702380D01*
X97692738Y-166702380D01*
X98454642Y-166702380D02*
X98454642Y-165702380D01*
X98787976Y-166416666D01*
X99121309Y-165702380D01*
X99121309Y-166702380D01*
X99978452Y-166654761D02*
X99883214Y-166702380D01*
X99692738Y-166702380D01*
X99597499Y-166654761D01*
X99549880Y-166559523D01*
X99549880Y-166178571D01*
X99597499Y-166083333D01*
X99692738Y-166035714D01*
X99883214Y-166035714D01*
X99978452Y-166083333D01*
X100026071Y-166178571D01*
X100026071Y-166273809D01*
X99549880Y-166369047D01*
X100883214Y-166702380D02*
X100883214Y-166178571D01*
X100835595Y-166083333D01*
X100740357Y-166035714D01*
X100549880Y-166035714D01*
X100454642Y-166083333D01*
X100883214Y-166654761D02*
X100787976Y-166702380D01*
X100549880Y-166702380D01*
X100454642Y-166654761D01*
X100407023Y-166559523D01*
X100407023Y-166464285D01*
X100454642Y-166369047D01*
X100549880Y-166321428D01*
X100787976Y-166321428D01*
X100883214Y-166273809D01*
X101359404Y-166035714D02*
X101359404Y-166702380D01*
X101359404Y-166130952D02*
X101407023Y-166083333D01*
X101502261Y-166035714D01*
X101645119Y-166035714D01*
X101740357Y-166083333D01*
X101787976Y-166178571D01*
X101787976Y-166702380D01*
X102168928Y-166035714D02*
X102359404Y-166702380D01*
X102549880Y-166226190D01*
X102740357Y-166702380D01*
X102930833Y-166035714D01*
X103692738Y-166654761D02*
X103597499Y-166702380D01*
X103407023Y-166702380D01*
X103311785Y-166654761D01*
X103264166Y-166559523D01*
X103264166Y-166178571D01*
X103311785Y-166083333D01*
X103407023Y-166035714D01*
X103597499Y-166035714D01*
X103692738Y-166083333D01*
X103740357Y-166178571D01*
X103740357Y-166273809D01*
X103264166Y-166369047D01*
X104311785Y-166702380D02*
X104216547Y-166654761D01*
X104168928Y-166559523D01*
X104168928Y-165702380D01*
X104835595Y-166702380D02*
X104740357Y-166654761D01*
X104692738Y-166559523D01*
X104692738Y-165702380D01*
X116821428Y-104583333D02*
X116773809Y-104535714D01*
X116678571Y-104392857D01*
X116630952Y-104297619D01*
X116583333Y-104154761D01*
X116535714Y-103916666D01*
X116535714Y-103726190D01*
X116583333Y-103488095D01*
X116630952Y-103345238D01*
X116678571Y-103250000D01*
X116773809Y-103107142D01*
X116821428Y-103059523D01*
X117059523Y-103202380D02*
X117630952Y-103202380D01*
X117345238Y-104202380D02*
X117345238Y-103202380D01*
X118107142Y-104202380D02*
X118011904Y-104154761D01*
X117964285Y-104107142D01*
X117916666Y-104011904D01*
X117916666Y-103726190D01*
X117964285Y-103630952D01*
X118011904Y-103583333D01*
X118107142Y-103535714D01*
X118250000Y-103535714D01*
X118345238Y-103583333D01*
X118392857Y-103630952D01*
X118440476Y-103726190D01*
X118440476Y-104011904D01*
X118392857Y-104107142D01*
X118345238Y-104154761D01*
X118250000Y-104202380D01*
X118107142Y-104202380D01*
X118869047Y-103535714D02*
X118869047Y-104535714D01*
X118869047Y-103583333D02*
X118964285Y-103535714D01*
X119154761Y-103535714D01*
X119250000Y-103583333D01*
X119297619Y-103630952D01*
X119345238Y-103726190D01*
X119345238Y-104011904D01*
X119297619Y-104107142D01*
X119250000Y-104154761D01*
X119154761Y-104202380D01*
X118964285Y-104202380D01*
X118869047Y-104154761D01*
X119678571Y-104583333D02*
X119726190Y-104535714D01*
X119821428Y-104392857D01*
X119869047Y-104297619D01*
X119916666Y-104154761D01*
X119964285Y-103916666D01*
X119964285Y-103726190D01*
X119916666Y-103488095D01*
X119869047Y-103345238D01*
X119821428Y-103250000D01*
X119726190Y-103107142D01*
X119678571Y-103059523D01*
D11*
X71659285Y-36328571D02*
X71159285Y-35614285D01*
X70802142Y-36328571D02*
X70802142Y-34828571D01*
X71373571Y-34828571D01*
X71516428Y-34900000D01*
X71587857Y-34971428D01*
X71659285Y-35114285D01*
X71659285Y-35328571D01*
X71587857Y-35471428D01*
X71516428Y-35542857D01*
X71373571Y-35614285D01*
X70802142Y-35614285D01*
X72873571Y-36257142D02*
X72730714Y-36328571D01*
X72445000Y-36328571D01*
X72302142Y-36257142D01*
X72230714Y-36114285D01*
X72230714Y-35542857D01*
X72302142Y-35400000D01*
X72445000Y-35328571D01*
X72730714Y-35328571D01*
X72873571Y-35400000D01*
X72945000Y-35542857D01*
X72945000Y-35685714D01*
X72230714Y-35828571D01*
X74230714Y-36328571D02*
X74230714Y-34828571D01*
X74230714Y-36257142D02*
X74087857Y-36328571D01*
X73802142Y-36328571D01*
X73659285Y-36257142D01*
X73587857Y-36185714D01*
X73516428Y-36042857D01*
X73516428Y-35614285D01*
X73587857Y-35471428D01*
X73659285Y-35400000D01*
X73802142Y-35328571D01*
X74087857Y-35328571D01*
X74230714Y-35400000D01*
X74945000Y-36185714D02*
X75016428Y-36257142D01*
X74945000Y-36328571D01*
X74873571Y-36257142D01*
X74945000Y-36185714D01*
X74945000Y-36328571D01*
X74945000Y-35400000D02*
X75016428Y-35471428D01*
X74945000Y-35542857D01*
X74873571Y-35471428D01*
X74945000Y-35400000D01*
X74945000Y-35542857D01*
X76802142Y-35757142D02*
X77945000Y-35757142D01*
X77373571Y-36328571D02*
X77373571Y-35185714D01*
X79373571Y-34828571D02*
X78659285Y-34828571D01*
X78587857Y-35542857D01*
X78659285Y-35471428D01*
X78802142Y-35400000D01*
X79159285Y-35400000D01*
X79302142Y-35471428D01*
X79373571Y-35542857D01*
X79445000Y-35685714D01*
X79445000Y-36042857D01*
X79373571Y-36185714D01*
X79302142Y-36257142D01*
X79159285Y-36328571D01*
X78802142Y-36328571D01*
X78659285Y-36257142D01*
X78587857Y-36185714D01*
X79873571Y-34828571D02*
X80373571Y-36328571D01*
X80873571Y-34828571D01*
X71302142Y-38092857D02*
X71516428Y-38164285D01*
X71587857Y-38235714D01*
X71659285Y-38378571D01*
X71659285Y-38592857D01*
X71587857Y-38735714D01*
X71516428Y-38807142D01*
X71373571Y-38878571D01*
X70802142Y-38878571D01*
X70802142Y-37378571D01*
X71302142Y-37378571D01*
X71445000Y-37450000D01*
X71516428Y-37521428D01*
X71587857Y-37664285D01*
X71587857Y-37807142D01*
X71516428Y-37950000D01*
X71445000Y-38021428D01*
X71302142Y-38092857D01*
X70802142Y-38092857D01*
X72516428Y-38878571D02*
X72373571Y-38807142D01*
X72302142Y-38664285D01*
X72302142Y-37378571D01*
X73730714Y-38878571D02*
X73730714Y-38092857D01*
X73659285Y-37950000D01*
X73516428Y-37878571D01*
X73230714Y-37878571D01*
X73087857Y-37950000D01*
X73730714Y-38807142D02*
X73587857Y-38878571D01*
X73230714Y-38878571D01*
X73087857Y-38807142D01*
X73016428Y-38664285D01*
X73016428Y-38521428D01*
X73087857Y-38378571D01*
X73230714Y-38307142D01*
X73587857Y-38307142D01*
X73730714Y-38235714D01*
X75087857Y-38807142D02*
X74945000Y-38878571D01*
X74659285Y-38878571D01*
X74516428Y-38807142D01*
X74445000Y-38735714D01*
X74373571Y-38592857D01*
X74373571Y-38164285D01*
X74445000Y-38021428D01*
X74516428Y-37950000D01*
X74659285Y-37878571D01*
X74945000Y-37878571D01*
X75087857Y-37950000D01*
X75730714Y-38878571D02*
X75730714Y-37378571D01*
X75873571Y-38307142D02*
X76302142Y-38878571D01*
X76302142Y-37878571D02*
X75730714Y-38450000D01*
X76945000Y-38735714D02*
X77016428Y-38807142D01*
X76945000Y-38878571D01*
X76873571Y-38807142D01*
X76945000Y-38735714D01*
X76945000Y-38878571D01*
X76945000Y-37950000D02*
X77016428Y-38021428D01*
X76945000Y-38092857D01*
X76873571Y-38021428D01*
X76945000Y-37950000D01*
X76945000Y-38092857D01*
X79587857Y-37450000D02*
X79445000Y-37378571D01*
X79230714Y-37378571D01*
X79016428Y-37450000D01*
X78873571Y-37592857D01*
X78802142Y-37735714D01*
X78730714Y-38021428D01*
X78730714Y-38235714D01*
X78802142Y-38521428D01*
X78873571Y-38664285D01*
X79016428Y-38807142D01*
X79230714Y-38878571D01*
X79373571Y-38878571D01*
X79587857Y-38807142D01*
X79659285Y-38735714D01*
X79659285Y-38235714D01*
X79373571Y-38235714D01*
X80302142Y-38878571D02*
X80302142Y-37378571D01*
X81159285Y-38878571D01*
X81159285Y-37378571D01*
X81873571Y-38878571D02*
X81873571Y-37378571D01*
X82230714Y-37378571D01*
X82445000Y-37450000D01*
X82587857Y-37592857D01*
X82659285Y-37735714D01*
X82730714Y-38021428D01*
X82730714Y-38235714D01*
X82659285Y-38521428D01*
X82587857Y-38664285D01*
X82445000Y-38807142D01*
X82230714Y-38878571D01*
X81873571Y-38878571D01*
X71302142Y-40642857D02*
X71516428Y-40714285D01*
X71587857Y-40785714D01*
X71659285Y-40928571D01*
X71659285Y-41142857D01*
X71587857Y-41285714D01*
X71516428Y-41357142D01*
X71373571Y-41428571D01*
X70802142Y-41428571D01*
X70802142Y-39928571D01*
X71302142Y-39928571D01*
X71445000Y-40000000D01*
X71516428Y-40071428D01*
X71587857Y-40214285D01*
X71587857Y-40357142D01*
X71516428Y-40500000D01*
X71445000Y-40571428D01*
X71302142Y-40642857D01*
X70802142Y-40642857D01*
X72302142Y-41428571D02*
X72302142Y-40428571D01*
X72302142Y-40714285D02*
X72373571Y-40571428D01*
X72445000Y-40500000D01*
X72587857Y-40428571D01*
X72730714Y-40428571D01*
X73445000Y-41428571D02*
X73302142Y-41357142D01*
X73230714Y-41285714D01*
X73159285Y-41142857D01*
X73159285Y-40714285D01*
X73230714Y-40571428D01*
X73302142Y-40500000D01*
X73445000Y-40428571D01*
X73659285Y-40428571D01*
X73802142Y-40500000D01*
X73873571Y-40571428D01*
X73945000Y-40714285D01*
X73945000Y-41142857D01*
X73873571Y-41285714D01*
X73802142Y-41357142D01*
X73659285Y-41428571D01*
X73445000Y-41428571D01*
X74445000Y-40428571D02*
X74730714Y-41428571D01*
X75016428Y-40714285D01*
X75302142Y-41428571D01*
X75587857Y-40428571D01*
X76159285Y-40428571D02*
X76159285Y-41428571D01*
X76159285Y-40571428D02*
X76230714Y-40500000D01*
X76373571Y-40428571D01*
X76587857Y-40428571D01*
X76730714Y-40500000D01*
X76802142Y-40642857D01*
X76802142Y-41428571D01*
X77516428Y-41285714D02*
X77587857Y-41357142D01*
X77516428Y-41428571D01*
X77445000Y-41357142D01*
X77516428Y-41285714D01*
X77516428Y-41428571D01*
X77516428Y-40500000D02*
X77587857Y-40571428D01*
X77516428Y-40642857D01*
X77445000Y-40571428D01*
X77516428Y-40500000D01*
X77516428Y-40642857D01*
X79373571Y-40857142D02*
X80516428Y-40857142D01*
X79945000Y-41428571D02*
X79945000Y-40285714D01*
X82016428Y-41428571D02*
X81159285Y-41428571D01*
X81587857Y-41428571D02*
X81587857Y-39928571D01*
X81445000Y-40142857D01*
X81302142Y-40285714D01*
X81159285Y-40357142D01*
X82587857Y-40071428D02*
X82659285Y-40000000D01*
X82802142Y-39928571D01*
X83159285Y-39928571D01*
X83302142Y-40000000D01*
X83373571Y-40071428D01*
X83445000Y-40214285D01*
X83445000Y-40357142D01*
X83373571Y-40571428D01*
X82516428Y-41428571D01*
X83445000Y-41428571D01*
X83873571Y-39928571D02*
X84373571Y-41428571D01*
X84873571Y-39928571D01*
X70659285Y-42478571D02*
X71016428Y-43978571D01*
X71302142Y-42907142D01*
X71587857Y-43978571D01*
X71945000Y-42478571D01*
X72516428Y-43978571D02*
X72516428Y-42478571D01*
X73159285Y-43978571D02*
X73159285Y-43192857D01*
X73087857Y-43050000D01*
X72945000Y-42978571D01*
X72730714Y-42978571D01*
X72587857Y-43050000D01*
X72516428Y-43121428D01*
X73873571Y-43978571D02*
X73873571Y-42978571D01*
X73873571Y-42478571D02*
X73802142Y-42550000D01*
X73873571Y-42621428D01*
X73945000Y-42550000D01*
X73873571Y-42478571D01*
X73873571Y-42621428D01*
X74373571Y-42978571D02*
X74945000Y-42978571D01*
X74587857Y-42478571D02*
X74587857Y-43764285D01*
X74659285Y-43907142D01*
X74802142Y-43978571D01*
X74945000Y-43978571D01*
X76016428Y-43907142D02*
X75873571Y-43978571D01*
X75587857Y-43978571D01*
X75445000Y-43907142D01*
X75373571Y-43764285D01*
X75373571Y-43192857D01*
X75445000Y-43050000D01*
X75587857Y-42978571D01*
X75873571Y-42978571D01*
X76016428Y-43050000D01*
X76087857Y-43192857D01*
X76087857Y-43335714D01*
X75373571Y-43478571D01*
X76730714Y-43835714D02*
X76802142Y-43907142D01*
X76730714Y-43978571D01*
X76659285Y-43907142D01*
X76730714Y-43835714D01*
X76730714Y-43978571D01*
X76730714Y-43050000D02*
X76802142Y-43121428D01*
X76730714Y-43192857D01*
X76659285Y-43121428D01*
X76730714Y-43050000D01*
X76730714Y-43192857D01*
X78587857Y-43407142D02*
X79730714Y-43407142D01*
X81230714Y-43978571D02*
X80373571Y-43978571D01*
X80802142Y-43978571D02*
X80802142Y-42478571D01*
X80659285Y-42692857D01*
X80516428Y-42835714D01*
X80373571Y-42907142D01*
X81802142Y-42621428D02*
X81873571Y-42550000D01*
X82016428Y-42478571D01*
X82373571Y-42478571D01*
X82516428Y-42550000D01*
X82587857Y-42621428D01*
X82659285Y-42764285D01*
X82659285Y-42907142D01*
X82587857Y-43121428D01*
X81730714Y-43978571D01*
X82659285Y-43978571D01*
X83087857Y-42478571D02*
X83587857Y-43978571D01*
X84087857Y-42478571D01*
X71087857Y-45814285D02*
X71087857Y-46528571D01*
X70587857Y-45028571D02*
X71087857Y-45814285D01*
X71587857Y-45028571D01*
X72659285Y-46457142D02*
X72516428Y-46528571D01*
X72230714Y-46528571D01*
X72087857Y-46457142D01*
X72016428Y-46314285D01*
X72016428Y-45742857D01*
X72087857Y-45600000D01*
X72230714Y-45528571D01*
X72516428Y-45528571D01*
X72659285Y-45600000D01*
X72730714Y-45742857D01*
X72730714Y-45885714D01*
X72016428Y-46028571D01*
X73587857Y-46528571D02*
X73445000Y-46457142D01*
X73373571Y-46314285D01*
X73373571Y-45028571D01*
X74373571Y-46528571D02*
X74230714Y-46457142D01*
X74159285Y-46314285D01*
X74159285Y-45028571D01*
X75159285Y-46528571D02*
X75016428Y-46457142D01*
X74945000Y-46385714D01*
X74873571Y-46242857D01*
X74873571Y-45814285D01*
X74945000Y-45671428D01*
X75016428Y-45600000D01*
X75159285Y-45528571D01*
X75373571Y-45528571D01*
X75516428Y-45600000D01*
X75587857Y-45671428D01*
X75659285Y-45814285D01*
X75659285Y-46242857D01*
X75587857Y-46385714D01*
X75516428Y-46457142D01*
X75373571Y-46528571D01*
X75159285Y-46528571D01*
X76159285Y-45528571D02*
X76445000Y-46528571D01*
X76730714Y-45814285D01*
X77016428Y-46528571D01*
X77302142Y-45528571D01*
X77873571Y-46385714D02*
X77945000Y-46457142D01*
X77873571Y-46528571D01*
X77802142Y-46457142D01*
X77873571Y-46385714D01*
X77873571Y-46528571D01*
X77873571Y-45600000D02*
X77945000Y-45671428D01*
X77873571Y-45742857D01*
X77802142Y-45671428D01*
X77873571Y-45600000D01*
X77873571Y-45742857D01*
X79659285Y-46457142D02*
X79873571Y-46528571D01*
X80230714Y-46528571D01*
X80373571Y-46457142D01*
X80445000Y-46385714D01*
X80516428Y-46242857D01*
X80516428Y-46100000D01*
X80445000Y-45957142D01*
X80373571Y-45885714D01*
X80230714Y-45814285D01*
X79945000Y-45742857D01*
X79802142Y-45671428D01*
X79730714Y-45600000D01*
X79659285Y-45457142D01*
X79659285Y-45314285D01*
X79730714Y-45171428D01*
X79802142Y-45100000D01*
X79945000Y-45028571D01*
X80302142Y-45028571D01*
X80516428Y-45100000D01*
X81159285Y-46528571D02*
X81159285Y-45028571D01*
X81802142Y-46528571D02*
X81802142Y-45742857D01*
X81730714Y-45600000D01*
X81587857Y-45528571D01*
X81373571Y-45528571D01*
X81230714Y-45600000D01*
X81159285Y-45671428D01*
X82516428Y-46528571D02*
X82516428Y-45528571D01*
X82516428Y-45028571D02*
X82445000Y-45100000D01*
X82516428Y-45171428D01*
X82587857Y-45100000D01*
X82516428Y-45028571D01*
X82516428Y-45171428D01*
X83802142Y-46457142D02*
X83659285Y-46528571D01*
X83373571Y-46528571D01*
X83230714Y-46457142D01*
X83159285Y-46314285D01*
X83159285Y-45742857D01*
X83230714Y-45600000D01*
X83373571Y-45528571D01*
X83659285Y-45528571D01*
X83802142Y-45600000D01*
X83873571Y-45742857D01*
X83873571Y-45885714D01*
X83159285Y-46028571D01*
X84730714Y-46528571D02*
X84587857Y-46457142D01*
X84516428Y-46314285D01*
X84516428Y-45028571D01*
X85945000Y-46528571D02*
X85945000Y-45028571D01*
X85945000Y-46457142D02*
X85802142Y-46528571D01*
X85516428Y-46528571D01*
X85373571Y-46457142D01*
X85302142Y-46385714D01*
X85230714Y-46242857D01*
X85230714Y-45814285D01*
X85302142Y-45671428D01*
X85373571Y-45600000D01*
X85516428Y-45528571D01*
X85802142Y-45528571D01*
X85945000Y-45600000D01*
D10*
X70537976Y-51091666D02*
X71014166Y-51091666D01*
X70442738Y-51377380D02*
X70776071Y-50377380D01*
X71109404Y-51377380D01*
X71585595Y-51377380D02*
X71490357Y-51329761D01*
X71442738Y-51234523D01*
X71442738Y-50377380D01*
X71871309Y-50710714D02*
X72061785Y-51377380D01*
X72252261Y-50901190D01*
X72442738Y-51377380D01*
X72633214Y-50710714D01*
X73442738Y-51377380D02*
X73442738Y-50853571D01*
X73395119Y-50758333D01*
X73299880Y-50710714D01*
X73109404Y-50710714D01*
X73014166Y-50758333D01*
X73442738Y-51329761D02*
X73347500Y-51377380D01*
X73109404Y-51377380D01*
X73014166Y-51329761D01*
X72966547Y-51234523D01*
X72966547Y-51139285D01*
X73014166Y-51044047D01*
X73109404Y-50996428D01*
X73347500Y-50996428D01*
X73442738Y-50948809D01*
X73823690Y-50710714D02*
X74061785Y-51377380D01*
X74299880Y-50710714D02*
X74061785Y-51377380D01*
X73966547Y-51615476D01*
X73918928Y-51663095D01*
X73823690Y-51710714D01*
X74633214Y-51329761D02*
X74728452Y-51377380D01*
X74918928Y-51377380D01*
X75014166Y-51329761D01*
X75061785Y-51234523D01*
X75061785Y-51186904D01*
X75014166Y-51091666D01*
X74918928Y-51044047D01*
X74776071Y-51044047D01*
X74680833Y-50996428D01*
X74633214Y-50901190D01*
X74633214Y-50853571D01*
X74680833Y-50758333D01*
X74776071Y-50710714D01*
X74918928Y-50710714D01*
X75014166Y-50758333D01*
X76680833Y-51329761D02*
X76585595Y-51377380D01*
X76395119Y-51377380D01*
X76299880Y-51329761D01*
X76252261Y-51282142D01*
X76204642Y-51186904D01*
X76204642Y-50901190D01*
X76252261Y-50805952D01*
X76299880Y-50758333D01*
X76395119Y-50710714D01*
X76585595Y-50710714D01*
X76680833Y-50758333D01*
X77109404Y-51377380D02*
X77109404Y-50377380D01*
X77537976Y-51377380D02*
X77537976Y-50853571D01*
X77490357Y-50758333D01*
X77395119Y-50710714D01*
X77252261Y-50710714D01*
X77157023Y-50758333D01*
X77109404Y-50805952D01*
X78395119Y-51329761D02*
X78299880Y-51377380D01*
X78109404Y-51377380D01*
X78014166Y-51329761D01*
X77966547Y-51234523D01*
X77966547Y-50853571D01*
X78014166Y-50758333D01*
X78109404Y-50710714D01*
X78299880Y-50710714D01*
X78395119Y-50758333D01*
X78442738Y-50853571D01*
X78442738Y-50948809D01*
X77966547Y-51044047D01*
X79299880Y-51329761D02*
X79204642Y-51377380D01*
X79014166Y-51377380D01*
X78918928Y-51329761D01*
X78871309Y-51282142D01*
X78823690Y-51186904D01*
X78823690Y-50901190D01*
X78871309Y-50805952D01*
X78918928Y-50758333D01*
X79014166Y-50710714D01*
X79204642Y-50710714D01*
X79299880Y-50758333D01*
X79728452Y-51377380D02*
X79728452Y-50377380D01*
X79823690Y-50996428D02*
X80109404Y-51377380D01*
X80109404Y-50710714D02*
X79728452Y-51091666D01*
X81157023Y-50710714D02*
X81537976Y-50710714D01*
X81299880Y-50377380D02*
X81299880Y-51234523D01*
X81347500Y-51329761D01*
X81442738Y-51377380D01*
X81537976Y-51377380D01*
X81871309Y-51377380D02*
X81871309Y-50377380D01*
X82299880Y-51377380D02*
X82299880Y-50853571D01*
X82252261Y-50758333D01*
X82157023Y-50710714D01*
X82014166Y-50710714D01*
X81918928Y-50758333D01*
X81871309Y-50805952D01*
X83157023Y-51329761D02*
X83061785Y-51377380D01*
X82871309Y-51377380D01*
X82776071Y-51329761D01*
X82728452Y-51234523D01*
X82728452Y-50853571D01*
X82776071Y-50758333D01*
X82871309Y-50710714D01*
X83061785Y-50710714D01*
X83157023Y-50758333D01*
X83204642Y-50853571D01*
X83204642Y-50948809D01*
X82728452Y-51044047D01*
X84299880Y-50710714D02*
X84490357Y-51377380D01*
X84680833Y-50901190D01*
X84871309Y-51377380D01*
X85061785Y-50710714D01*
X85442738Y-51377380D02*
X85442738Y-50710714D01*
X85442738Y-50377380D02*
X85395119Y-50425000D01*
X85442738Y-50472619D01*
X85490357Y-50425000D01*
X85442738Y-50377380D01*
X85442738Y-50472619D01*
X85918928Y-51377380D02*
X85918928Y-50710714D01*
X85918928Y-50901190D02*
X85966547Y-50805952D01*
X86014166Y-50758333D01*
X86109404Y-50710714D01*
X86204642Y-50710714D01*
X86537976Y-51377380D02*
X86537976Y-50710714D01*
X86537976Y-50377380D02*
X86490357Y-50425000D01*
X86537976Y-50472619D01*
X86585595Y-50425000D01*
X86537976Y-50377380D01*
X86537976Y-50472619D01*
X87014166Y-50710714D02*
X87014166Y-51377380D01*
X87014166Y-50805952D02*
X87061785Y-50758333D01*
X87157023Y-50710714D01*
X87299880Y-50710714D01*
X87395119Y-50758333D01*
X87442738Y-50853571D01*
X87442738Y-51377380D01*
X88347500Y-50710714D02*
X88347500Y-51520238D01*
X88299880Y-51615476D01*
X88252261Y-51663095D01*
X88157023Y-51710714D01*
X88014166Y-51710714D01*
X87918928Y-51663095D01*
X88347500Y-51329761D02*
X88252261Y-51377380D01*
X88061785Y-51377380D01*
X87966547Y-51329761D01*
X87918928Y-51282142D01*
X87871309Y-51186904D01*
X87871309Y-50901190D01*
X87918928Y-50805952D01*
X87966547Y-50758333D01*
X88061785Y-50710714D01*
X88252261Y-50710714D01*
X88347500Y-50758333D01*
X89728452Y-51377380D02*
X89633214Y-51329761D01*
X89585595Y-51282142D01*
X89537976Y-51186904D01*
X89537976Y-50901190D01*
X89585595Y-50805952D01*
X89633214Y-50758333D01*
X89728452Y-50710714D01*
X89871309Y-50710714D01*
X89966547Y-50758333D01*
X90014166Y-50805952D01*
X90061785Y-50901190D01*
X90061785Y-51186904D01*
X90014166Y-51282142D01*
X89966547Y-51329761D01*
X89871309Y-51377380D01*
X89728452Y-51377380D01*
X90347500Y-50710714D02*
X90728452Y-50710714D01*
X90490357Y-51377380D02*
X90490357Y-50520238D01*
X90537976Y-50425000D01*
X90633214Y-50377380D01*
X90728452Y-50377380D01*
X91728452Y-50710714D02*
X91966547Y-51377380D01*
X92204642Y-50710714D02*
X91966547Y-51377380D01*
X91871309Y-51615476D01*
X91823690Y-51663095D01*
X91728452Y-51710714D01*
X92728452Y-51377380D02*
X92633214Y-51329761D01*
X92585595Y-51282142D01*
X92537976Y-51186904D01*
X92537976Y-50901190D01*
X92585595Y-50805952D01*
X92633214Y-50758333D01*
X92728452Y-50710714D01*
X92871309Y-50710714D01*
X92966547Y-50758333D01*
X93014166Y-50805952D01*
X93061785Y-50901190D01*
X93061785Y-51186904D01*
X93014166Y-51282142D01*
X92966547Y-51329761D01*
X92871309Y-51377380D01*
X92728452Y-51377380D01*
X93918928Y-50710714D02*
X93918928Y-51377380D01*
X93490357Y-50710714D02*
X93490357Y-51234523D01*
X93537976Y-51329761D01*
X93633214Y-51377380D01*
X93776071Y-51377380D01*
X93871309Y-51329761D01*
X93918928Y-51282142D01*
X94395119Y-51377380D02*
X94395119Y-50710714D01*
X94395119Y-50901190D02*
X94442738Y-50805952D01*
X94490357Y-50758333D01*
X94585595Y-50710714D01*
X94680833Y-50710714D01*
X96157023Y-51329761D02*
X96061785Y-51377380D01*
X95871309Y-51377380D01*
X95776071Y-51329761D01*
X95728452Y-51234523D01*
X95728452Y-50853571D01*
X95776071Y-50758333D01*
X95871309Y-50710714D01*
X96061785Y-50710714D01*
X96157023Y-50758333D01*
X96204642Y-50853571D01*
X96204642Y-50948809D01*
X95728452Y-51044047D01*
X96537976Y-51377380D02*
X97061785Y-50710714D01*
X96537976Y-50710714D02*
X97061785Y-51377380D01*
X97442738Y-51377380D02*
X97442738Y-50710714D01*
X97442738Y-50377380D02*
X97395119Y-50425000D01*
X97442738Y-50472619D01*
X97490357Y-50425000D01*
X97442738Y-50377380D01*
X97442738Y-50472619D01*
X97871309Y-51329761D02*
X97966547Y-51377380D01*
X98157023Y-51377380D01*
X98252261Y-51329761D01*
X98299880Y-51234523D01*
X98299880Y-51186904D01*
X98252261Y-51091666D01*
X98157023Y-51044047D01*
X98014166Y-51044047D01*
X97918928Y-50996428D01*
X97871309Y-50901190D01*
X97871309Y-50853571D01*
X97918928Y-50758333D01*
X98014166Y-50710714D01*
X98157023Y-50710714D01*
X98252261Y-50758333D01*
X98585595Y-50710714D02*
X98966547Y-50710714D01*
X98728452Y-50377380D02*
X98728452Y-51234523D01*
X98776071Y-51329761D01*
X98871309Y-51377380D01*
X98966547Y-51377380D01*
X99299880Y-51377380D02*
X99299880Y-50710714D01*
X99299880Y-50377380D02*
X99252261Y-50425000D01*
X99299880Y-50472619D01*
X99347499Y-50425000D01*
X99299880Y-50377380D01*
X99299880Y-50472619D01*
X99776071Y-50710714D02*
X99776071Y-51377380D01*
X99776071Y-50805952D02*
X99823690Y-50758333D01*
X99918928Y-50710714D01*
X100061785Y-50710714D01*
X100157023Y-50758333D01*
X100204642Y-50853571D01*
X100204642Y-51377380D01*
X101109404Y-50710714D02*
X101109404Y-51520238D01*
X101061785Y-51615476D01*
X101014166Y-51663095D01*
X100918928Y-51710714D01*
X100776071Y-51710714D01*
X100680833Y-51663095D01*
X101109404Y-51329761D02*
X101014166Y-51377380D01*
X100823690Y-51377380D01*
X100728452Y-51329761D01*
X100680833Y-51282142D01*
X100633214Y-51186904D01*
X100633214Y-50901190D01*
X100680833Y-50805952D01*
X100728452Y-50758333D01*
X100823690Y-50710714D01*
X101014166Y-50710714D01*
X101109404Y-50758333D01*
X102347499Y-50710714D02*
X102347499Y-51710714D01*
X102347499Y-50758333D02*
X102442738Y-50710714D01*
X102633214Y-50710714D01*
X102728452Y-50758333D01*
X102776071Y-50805952D01*
X102823690Y-50901190D01*
X102823690Y-51186904D01*
X102776071Y-51282142D01*
X102728452Y-51329761D01*
X102633214Y-51377380D01*
X102442738Y-51377380D01*
X102347499Y-51329761D01*
X103395119Y-51377380D02*
X103299880Y-51329761D01*
X103252261Y-51282142D01*
X103204642Y-51186904D01*
X103204642Y-50901190D01*
X103252261Y-50805952D01*
X103299880Y-50758333D01*
X103395119Y-50710714D01*
X103537976Y-50710714D01*
X103633214Y-50758333D01*
X103680833Y-50805952D01*
X103728452Y-50901190D01*
X103728452Y-51186904D01*
X103680833Y-51282142D01*
X103633214Y-51329761D01*
X103537976Y-51377380D01*
X103395119Y-51377380D01*
X104061785Y-50710714D02*
X104252261Y-51377380D01*
X104442738Y-50901190D01*
X104633214Y-51377380D01*
X104823690Y-50710714D01*
X105585595Y-51329761D02*
X105490357Y-51377380D01*
X105299880Y-51377380D01*
X105204642Y-51329761D01*
X105157023Y-51234523D01*
X105157023Y-50853571D01*
X105204642Y-50758333D01*
X105299880Y-50710714D01*
X105490357Y-50710714D01*
X105585595Y-50758333D01*
X105633214Y-50853571D01*
X105633214Y-50948809D01*
X105157023Y-51044047D01*
X106061785Y-51377380D02*
X106061785Y-50710714D01*
X106061785Y-50901190D02*
X106109404Y-50805952D01*
X106157023Y-50758333D01*
X106252261Y-50710714D01*
X106347499Y-50710714D01*
X107585595Y-51377380D02*
X107490357Y-51329761D01*
X107442738Y-51234523D01*
X107442738Y-50377380D01*
X108347499Y-51329761D02*
X108252261Y-51377380D01*
X108061785Y-51377380D01*
X107966547Y-51329761D01*
X107918928Y-51234523D01*
X107918928Y-50853571D01*
X107966547Y-50758333D01*
X108061785Y-50710714D01*
X108252261Y-50710714D01*
X108347499Y-50758333D01*
X108395119Y-50853571D01*
X108395119Y-50948809D01*
X107918928Y-51044047D01*
X109252261Y-51377380D02*
X109252261Y-50853571D01*
X109204642Y-50758333D01*
X109109404Y-50710714D01*
X108918928Y-50710714D01*
X108823690Y-50758333D01*
X109252261Y-51329761D02*
X109157023Y-51377380D01*
X108918928Y-51377380D01*
X108823690Y-51329761D01*
X108776071Y-51234523D01*
X108776071Y-51139285D01*
X108823690Y-51044047D01*
X108918928Y-50996428D01*
X109157023Y-50996428D01*
X109252261Y-50948809D01*
X110157023Y-51377380D02*
X110157023Y-50377380D01*
X110157023Y-51329761D02*
X110061785Y-51377380D01*
X109871309Y-51377380D01*
X109776071Y-51329761D01*
X109728452Y-51282142D01*
X109680833Y-51186904D01*
X109680833Y-50901190D01*
X109728452Y-50805952D01*
X109776071Y-50758333D01*
X109871309Y-50710714D01*
X110061785Y-50710714D01*
X110157023Y-50758333D01*
X110680833Y-51329761D02*
X110680833Y-51377380D01*
X110633214Y-51472619D01*
X110585595Y-51520238D01*
X71157023Y-52932142D02*
X71109404Y-52979761D01*
X70966547Y-53027380D01*
X70871309Y-53027380D01*
X70728452Y-52979761D01*
X70633214Y-52884523D01*
X70585595Y-52789285D01*
X70537976Y-52598809D01*
X70537976Y-52455952D01*
X70585595Y-52265476D01*
X70633214Y-52170238D01*
X70728452Y-52075000D01*
X70871309Y-52027380D01*
X70966547Y-52027380D01*
X71109404Y-52075000D01*
X71157023Y-52122619D01*
X71728452Y-53027380D02*
X71633214Y-52979761D01*
X71585595Y-52932142D01*
X71537976Y-52836904D01*
X71537976Y-52551190D01*
X71585595Y-52455952D01*
X71633214Y-52408333D01*
X71728452Y-52360714D01*
X71871309Y-52360714D01*
X71966547Y-52408333D01*
X72014166Y-52455952D01*
X72061785Y-52551190D01*
X72061785Y-52836904D01*
X72014166Y-52932142D01*
X71966547Y-52979761D01*
X71871309Y-53027380D01*
X71728452Y-53027380D01*
X72490357Y-53027380D02*
X72490357Y-52360714D01*
X72490357Y-52455952D02*
X72537976Y-52408333D01*
X72633214Y-52360714D01*
X72776071Y-52360714D01*
X72871309Y-52408333D01*
X72918928Y-52503571D01*
X72918928Y-53027380D01*
X72918928Y-52503571D02*
X72966547Y-52408333D01*
X73061785Y-52360714D01*
X73204642Y-52360714D01*
X73299880Y-52408333D01*
X73347500Y-52503571D01*
X73347500Y-53027380D01*
X73823690Y-53027380D02*
X73823690Y-52360714D01*
X73823690Y-52455952D02*
X73871309Y-52408333D01*
X73966547Y-52360714D01*
X74109404Y-52360714D01*
X74204642Y-52408333D01*
X74252261Y-52503571D01*
X74252261Y-53027380D01*
X74252261Y-52503571D02*
X74299880Y-52408333D01*
X74395119Y-52360714D01*
X74537976Y-52360714D01*
X74633214Y-52408333D01*
X74680833Y-52503571D01*
X74680833Y-53027380D01*
X75299880Y-53027380D02*
X75204642Y-52979761D01*
X75157023Y-52932142D01*
X75109404Y-52836904D01*
X75109404Y-52551190D01*
X75157023Y-52455952D01*
X75204642Y-52408333D01*
X75299880Y-52360714D01*
X75442738Y-52360714D01*
X75537976Y-52408333D01*
X75585595Y-52455952D01*
X75633214Y-52551190D01*
X75633214Y-52836904D01*
X75585595Y-52932142D01*
X75537976Y-52979761D01*
X75442738Y-53027380D01*
X75299880Y-53027380D01*
X76490357Y-53027380D02*
X76490357Y-52027380D01*
X76490357Y-52979761D02*
X76395119Y-53027380D01*
X76204642Y-53027380D01*
X76109404Y-52979761D01*
X76061785Y-52932142D01*
X76014166Y-52836904D01*
X76014166Y-52551190D01*
X76061785Y-52455952D01*
X76109404Y-52408333D01*
X76204642Y-52360714D01*
X76395119Y-52360714D01*
X76490357Y-52408333D01*
X77109404Y-53027380D02*
X77014166Y-52979761D01*
X76966547Y-52932142D01*
X76918928Y-52836904D01*
X76918928Y-52551190D01*
X76966547Y-52455952D01*
X77014166Y-52408333D01*
X77109404Y-52360714D01*
X77252261Y-52360714D01*
X77347500Y-52408333D01*
X77395119Y-52455952D01*
X77442738Y-52551190D01*
X77442738Y-52836904D01*
X77395119Y-52932142D01*
X77347500Y-52979761D01*
X77252261Y-53027380D01*
X77109404Y-53027380D01*
X77871309Y-53027380D02*
X77871309Y-52360714D01*
X77871309Y-52551190D02*
X77918928Y-52455952D01*
X77966547Y-52408333D01*
X78061785Y-52360714D01*
X78157023Y-52360714D01*
X78871309Y-52979761D02*
X78776071Y-53027380D01*
X78585595Y-53027380D01*
X78490357Y-52979761D01*
X78442738Y-52884523D01*
X78442738Y-52503571D01*
X78490357Y-52408333D01*
X78585595Y-52360714D01*
X78776071Y-52360714D01*
X78871309Y-52408333D01*
X78918928Y-52503571D01*
X78918928Y-52598809D01*
X78442738Y-52694047D01*
X80014166Y-52360714D02*
X80204642Y-53027380D01*
X80395119Y-52551190D01*
X80585595Y-53027380D01*
X80776071Y-52360714D01*
X81537976Y-52979761D02*
X81442738Y-53027380D01*
X81252261Y-53027380D01*
X81157023Y-52979761D01*
X81109404Y-52884523D01*
X81109404Y-52503571D01*
X81157023Y-52408333D01*
X81252261Y-52360714D01*
X81442738Y-52360714D01*
X81537976Y-52408333D01*
X81585595Y-52503571D01*
X81585595Y-52598809D01*
X81109404Y-52694047D01*
X82014166Y-53027380D02*
X82014166Y-52360714D01*
X82014166Y-52551190D02*
X82061785Y-52455952D01*
X82109404Y-52408333D01*
X82204642Y-52360714D01*
X82299880Y-52360714D01*
X83014166Y-52979761D02*
X82918928Y-53027380D01*
X82728452Y-53027380D01*
X82633214Y-52979761D01*
X82585595Y-52884523D01*
X82585595Y-52503571D01*
X82633214Y-52408333D01*
X82728452Y-52360714D01*
X82918928Y-52360714D01*
X83014166Y-52408333D01*
X83061785Y-52503571D01*
X83061785Y-52598809D01*
X82585595Y-52694047D01*
X84252261Y-52360714D02*
X84252261Y-53027380D01*
X84252261Y-52455952D02*
X84299880Y-52408333D01*
X84395119Y-52360714D01*
X84537976Y-52360714D01*
X84633214Y-52408333D01*
X84680833Y-52503571D01*
X84680833Y-53027380D01*
X85299880Y-53027380D02*
X85204642Y-52979761D01*
X85157023Y-52932142D01*
X85109404Y-52836904D01*
X85109404Y-52551190D01*
X85157023Y-52455952D01*
X85204642Y-52408333D01*
X85299880Y-52360714D01*
X85442738Y-52360714D01*
X85537976Y-52408333D01*
X85585595Y-52455952D01*
X85633214Y-52551190D01*
X85633214Y-52836904D01*
X85585595Y-52932142D01*
X85537976Y-52979761D01*
X85442738Y-53027380D01*
X85299880Y-53027380D01*
X85918928Y-52360714D02*
X86299880Y-52360714D01*
X86061785Y-52027380D02*
X86061785Y-52884523D01*
X86109404Y-52979761D01*
X86204642Y-53027380D01*
X86299880Y-53027380D01*
X87823690Y-52979761D02*
X87728452Y-53027380D01*
X87537976Y-53027380D01*
X87442738Y-52979761D01*
X87395119Y-52932142D01*
X87347500Y-52836904D01*
X87347500Y-52551190D01*
X87395119Y-52455952D01*
X87442738Y-52408333D01*
X87537976Y-52360714D01*
X87728452Y-52360714D01*
X87823690Y-52408333D01*
X88395119Y-53027380D02*
X88299880Y-52979761D01*
X88252261Y-52932142D01*
X88204642Y-52836904D01*
X88204642Y-52551190D01*
X88252261Y-52455952D01*
X88299880Y-52408333D01*
X88395119Y-52360714D01*
X88537976Y-52360714D01*
X88633214Y-52408333D01*
X88680833Y-52455952D01*
X88728452Y-52551190D01*
X88728452Y-52836904D01*
X88680833Y-52932142D01*
X88633214Y-52979761D01*
X88537976Y-53027380D01*
X88395119Y-53027380D01*
X89157023Y-52360714D02*
X89157023Y-53027380D01*
X89157023Y-52455952D02*
X89204642Y-52408333D01*
X89299880Y-52360714D01*
X89442738Y-52360714D01*
X89537976Y-52408333D01*
X89585595Y-52503571D01*
X89585595Y-53027380D01*
X90014166Y-52979761D02*
X90109404Y-53027380D01*
X90299880Y-53027380D01*
X90395119Y-52979761D01*
X90442738Y-52884523D01*
X90442738Y-52836904D01*
X90395119Y-52741666D01*
X90299880Y-52694047D01*
X90157023Y-52694047D01*
X90061785Y-52646428D01*
X90014166Y-52551190D01*
X90014166Y-52503571D01*
X90061785Y-52408333D01*
X90157023Y-52360714D01*
X90299880Y-52360714D01*
X90395119Y-52408333D01*
X90871309Y-53027380D02*
X90871309Y-52360714D01*
X90871309Y-52027380D02*
X90823690Y-52075000D01*
X90871309Y-52122619D01*
X90918928Y-52075000D01*
X90871309Y-52027380D01*
X90871309Y-52122619D01*
X91299880Y-52979761D02*
X91395119Y-53027380D01*
X91585595Y-53027380D01*
X91680833Y-52979761D01*
X91728452Y-52884523D01*
X91728452Y-52836904D01*
X91680833Y-52741666D01*
X91585595Y-52694047D01*
X91442738Y-52694047D01*
X91347500Y-52646428D01*
X91299880Y-52551190D01*
X91299880Y-52503571D01*
X91347500Y-52408333D01*
X91442738Y-52360714D01*
X91585595Y-52360714D01*
X91680833Y-52408333D01*
X92014166Y-52360714D02*
X92395119Y-52360714D01*
X92157023Y-52027380D02*
X92157023Y-52884523D01*
X92204642Y-52979761D01*
X92299880Y-53027380D01*
X92395119Y-53027380D01*
X93109404Y-52979761D02*
X93014166Y-53027380D01*
X92823690Y-53027380D01*
X92728452Y-52979761D01*
X92680833Y-52884523D01*
X92680833Y-52503571D01*
X92728452Y-52408333D01*
X92823690Y-52360714D01*
X93014166Y-52360714D01*
X93109404Y-52408333D01*
X93157023Y-52503571D01*
X93157023Y-52598809D01*
X92680833Y-52694047D01*
X93585595Y-52360714D02*
X93585595Y-53027380D01*
X93585595Y-52455952D02*
X93633214Y-52408333D01*
X93728452Y-52360714D01*
X93871309Y-52360714D01*
X93966547Y-52408333D01*
X94014166Y-52503571D01*
X94014166Y-53027380D01*
X94347500Y-52360714D02*
X94728452Y-52360714D01*
X94490357Y-52027380D02*
X94490357Y-52884523D01*
X94537976Y-52979761D01*
X94633214Y-53027380D01*
X94728452Y-53027380D01*
X95728452Y-52360714D02*
X95918928Y-53027380D01*
X96109404Y-52551190D01*
X96299880Y-53027380D01*
X96490357Y-52360714D01*
X96871309Y-53027380D02*
X96871309Y-52360714D01*
X96871309Y-52027380D02*
X96823690Y-52075000D01*
X96871309Y-52122619D01*
X96918928Y-52075000D01*
X96871309Y-52027380D01*
X96871309Y-52122619D01*
X97204642Y-52360714D02*
X97585595Y-52360714D01*
X97347500Y-52027380D02*
X97347500Y-52884523D01*
X97395119Y-52979761D01*
X97490357Y-53027380D01*
X97585595Y-53027380D01*
X97918928Y-53027380D02*
X97918928Y-52027380D01*
X98347500Y-53027380D02*
X98347500Y-52503571D01*
X98299880Y-52408333D01*
X98204642Y-52360714D01*
X98061785Y-52360714D01*
X97966547Y-52408333D01*
X97918928Y-52455952D01*
X99442738Y-52360714D02*
X99823690Y-52360714D01*
X99585595Y-52027380D02*
X99585595Y-52884523D01*
X99633214Y-52979761D01*
X99728452Y-53027380D01*
X99823690Y-53027380D01*
X100157023Y-53027380D02*
X100157023Y-52027380D01*
X100585595Y-53027380D02*
X100585595Y-52503571D01*
X100537976Y-52408333D01*
X100442738Y-52360714D01*
X100299880Y-52360714D01*
X100204642Y-52408333D01*
X100157023Y-52455952D01*
X101442738Y-52979761D02*
X101347499Y-53027380D01*
X101157023Y-53027380D01*
X101061785Y-52979761D01*
X101014166Y-52884523D01*
X101014166Y-52503571D01*
X101061785Y-52408333D01*
X101157023Y-52360714D01*
X101347499Y-52360714D01*
X101442738Y-52408333D01*
X101490357Y-52503571D01*
X101490357Y-52598809D01*
X101014166Y-52694047D01*
X101918928Y-53027380D02*
X101918928Y-52360714D01*
X101918928Y-52027380D02*
X101871309Y-52075000D01*
X101918928Y-52122619D01*
X101966547Y-52075000D01*
X101918928Y-52027380D01*
X101918928Y-52122619D01*
X102395119Y-53027380D02*
X102395119Y-52360714D01*
X102395119Y-52551190D02*
X102442738Y-52455952D01*
X102490357Y-52408333D01*
X102585595Y-52360714D01*
X102680833Y-52360714D01*
X103680833Y-52360714D02*
X103871309Y-53027380D01*
X104061785Y-52551190D01*
X104252261Y-53027380D01*
X104442738Y-52360714D01*
X104823690Y-53027380D02*
X104823690Y-52360714D01*
X104823690Y-52027380D02*
X104776071Y-52075000D01*
X104823690Y-52122619D01*
X104871309Y-52075000D01*
X104823690Y-52027380D01*
X104823690Y-52122619D01*
X105299880Y-53027380D02*
X105299880Y-52360714D01*
X105299880Y-52551190D02*
X105347500Y-52455952D01*
X105395119Y-52408333D01*
X105490357Y-52360714D01*
X105585595Y-52360714D01*
X105918928Y-53027380D02*
X105918928Y-52360714D01*
X105918928Y-52027380D02*
X105871309Y-52075000D01*
X105918928Y-52122619D01*
X105966547Y-52075000D01*
X105918928Y-52027380D01*
X105918928Y-52122619D01*
X106395119Y-52360714D02*
X106395119Y-53027380D01*
X106395119Y-52455952D02*
X106442738Y-52408333D01*
X106537976Y-52360714D01*
X106680833Y-52360714D01*
X106776071Y-52408333D01*
X106823690Y-52503571D01*
X106823690Y-53027380D01*
X107728452Y-52360714D02*
X107728452Y-53170238D01*
X107680833Y-53265476D01*
X107633214Y-53313095D01*
X107537976Y-53360714D01*
X107395119Y-53360714D01*
X107299880Y-53313095D01*
X107728452Y-52979761D02*
X107633214Y-53027380D01*
X107442738Y-53027380D01*
X107347500Y-52979761D01*
X107299880Y-52932142D01*
X107252261Y-52836904D01*
X107252261Y-52551190D01*
X107299880Y-52455952D01*
X107347500Y-52408333D01*
X107442738Y-52360714D01*
X107633214Y-52360714D01*
X107728452Y-52408333D01*
X109395119Y-52979761D02*
X109299880Y-53027380D01*
X109109404Y-53027380D01*
X109014166Y-52979761D01*
X108966547Y-52932142D01*
X108918928Y-52836904D01*
X108918928Y-52551190D01*
X108966547Y-52455952D01*
X109014166Y-52408333D01*
X109109404Y-52360714D01*
X109299880Y-52360714D01*
X109395119Y-52408333D01*
X109966547Y-53027380D02*
X109871309Y-52979761D01*
X109823690Y-52932142D01*
X109776071Y-52836904D01*
X109776071Y-52551190D01*
X109823690Y-52455952D01*
X109871309Y-52408333D01*
X109966547Y-52360714D01*
X110109404Y-52360714D01*
X110204642Y-52408333D01*
X110252261Y-52455952D01*
X110299880Y-52551190D01*
X110299880Y-52836904D01*
X110252261Y-52932142D01*
X110204642Y-52979761D01*
X110109404Y-53027380D01*
X109966547Y-53027380D01*
X110871309Y-53027380D02*
X110776071Y-52979761D01*
X110728452Y-52884523D01*
X110728452Y-52027380D01*
X111395119Y-53027380D02*
X111299880Y-52979761D01*
X111252261Y-52932142D01*
X111204642Y-52836904D01*
X111204642Y-52551190D01*
X111252261Y-52455952D01*
X111299880Y-52408333D01*
X111395119Y-52360714D01*
X111537976Y-52360714D01*
X111633214Y-52408333D01*
X111680833Y-52455952D01*
X111728452Y-52551190D01*
X111728452Y-52836904D01*
X111680833Y-52932142D01*
X111633214Y-52979761D01*
X111537976Y-53027380D01*
X111395119Y-53027380D01*
X112157023Y-53027380D02*
X112157023Y-52360714D01*
X112157023Y-52551190D02*
X112204642Y-52455952D01*
X112252261Y-52408333D01*
X112347499Y-52360714D01*
X112442738Y-52360714D01*
X112728452Y-52979761D02*
X112823690Y-53027380D01*
X113014166Y-53027380D01*
X113109404Y-52979761D01*
X113157023Y-52884523D01*
X113157023Y-52836904D01*
X113109404Y-52741666D01*
X113014166Y-52694047D01*
X112871309Y-52694047D01*
X112776071Y-52646428D01*
X112728452Y-52551190D01*
X112728452Y-52503571D01*
X112776071Y-52408333D01*
X112871309Y-52360714D01*
X113014166Y-52360714D01*
X113109404Y-52408333D01*
X113585595Y-52932142D02*
X113633214Y-52979761D01*
X113585595Y-53027380D01*
X113537976Y-52979761D01*
X113585595Y-52932142D01*
X113585595Y-53027380D01*
X112297619Y-41654761D02*
X112440476Y-41702380D01*
X112678571Y-41702380D01*
X112773809Y-41654761D01*
X112821428Y-41607142D01*
X112869047Y-41511904D01*
X112869047Y-41416666D01*
X112821428Y-41321428D01*
X112773809Y-41273809D01*
X112678571Y-41226190D01*
X112488095Y-41178571D01*
X112392857Y-41130952D01*
X112345238Y-41083333D01*
X112297619Y-40988095D01*
X112297619Y-40892857D01*
X112345238Y-40797619D01*
X112392857Y-40750000D01*
X112488095Y-40702380D01*
X112726190Y-40702380D01*
X112869047Y-40750000D01*
X113297619Y-41702380D02*
X113297619Y-40702380D01*
X113726190Y-41702380D02*
X113726190Y-41178571D01*
X113678571Y-41083333D01*
X113583333Y-41035714D01*
X113440476Y-41035714D01*
X113345238Y-41083333D01*
X113297619Y-41130952D01*
X114202380Y-41702380D02*
X114202380Y-41035714D01*
X114202380Y-40702380D02*
X114154761Y-40750000D01*
X114202380Y-40797619D01*
X114250000Y-40750000D01*
X114202380Y-40702380D01*
X114202380Y-40797619D01*
X115059523Y-41654761D02*
X114964285Y-41702380D01*
X114773809Y-41702380D01*
X114678571Y-41654761D01*
X114630952Y-41559523D01*
X114630952Y-41178571D01*
X114678571Y-41083333D01*
X114773809Y-41035714D01*
X114964285Y-41035714D01*
X115059523Y-41083333D01*
X115107142Y-41178571D01*
X115107142Y-41273809D01*
X114630952Y-41369047D01*
X115678571Y-41702380D02*
X115583333Y-41654761D01*
X115535714Y-41559523D01*
X115535714Y-40702380D01*
X116488095Y-41702380D02*
X116488095Y-40702380D01*
X116488095Y-41654761D02*
X116392857Y-41702380D01*
X116202380Y-41702380D01*
X116107142Y-41654761D01*
X116059523Y-41607142D01*
X116011904Y-41511904D01*
X116011904Y-41226190D01*
X116059523Y-41130952D01*
X116107142Y-41083333D01*
X116202380Y-41035714D01*
X116392857Y-41035714D01*
X116488095Y-41083333D01*
X117726190Y-41321428D02*
X118488095Y-41321428D01*
X119488095Y-41702380D02*
X118916666Y-41702380D01*
X119202380Y-41702380D02*
X119202380Y-40702380D01*
X119107142Y-40845238D01*
X119011904Y-40940476D01*
X118916666Y-40988095D01*
X119869047Y-40797619D02*
X119916666Y-40750000D01*
X120011904Y-40702380D01*
X120250000Y-40702380D01*
X120345238Y-40750000D01*
X120392857Y-40797619D01*
X120440476Y-40892857D01*
X120440476Y-40988095D01*
X120392857Y-41130952D01*
X119821428Y-41702380D01*
X120440476Y-41702380D01*
X120726190Y-40702380D02*
X121059523Y-41702380D01*
X121392857Y-40702380D01*
X122488095Y-41321428D02*
X123249999Y-41321428D01*
X122869047Y-41702380D02*
X122869047Y-40940476D01*
X124249999Y-41702380D02*
X123678571Y-41702380D01*
X123964285Y-41702380D02*
X123964285Y-40702380D01*
X123869047Y-40845238D01*
X123773809Y-40940476D01*
X123678571Y-40988095D01*
X124630952Y-40797619D02*
X124678571Y-40750000D01*
X124773809Y-40702380D01*
X125011904Y-40702380D01*
X125107142Y-40750000D01*
X125154761Y-40797619D01*
X125202380Y-40892857D01*
X125202380Y-40988095D01*
X125154761Y-41130952D01*
X124583333Y-41702380D01*
X125202380Y-41702380D01*
X125488095Y-40702380D02*
X125821428Y-41702380D01*
X126154761Y-40702380D01*
X127773809Y-40750000D02*
X127678571Y-40702380D01*
X127535714Y-40702380D01*
X127392857Y-40750000D01*
X127297619Y-40845238D01*
X127249999Y-40940476D01*
X127202380Y-41130952D01*
X127202380Y-41273809D01*
X127249999Y-41464285D01*
X127297619Y-41559523D01*
X127392857Y-41654761D01*
X127535714Y-41702380D01*
X127630952Y-41702380D01*
X127773809Y-41654761D01*
X127821428Y-41607142D01*
X127821428Y-41273809D01*
X127630952Y-41273809D01*
X128249999Y-41035714D02*
X128249999Y-41702380D01*
X128249999Y-41130952D02*
X128297619Y-41083333D01*
X128392857Y-41035714D01*
X128535714Y-41035714D01*
X128630952Y-41083333D01*
X128678571Y-41178571D01*
X128678571Y-41702380D01*
X129583333Y-41702380D02*
X129583333Y-40702380D01*
X129583333Y-41654761D02*
X129488095Y-41702380D01*
X129297619Y-41702380D01*
X129202380Y-41654761D01*
X129154761Y-41607142D01*
X129107142Y-41511904D01*
X129107142Y-41226190D01*
X129154761Y-41130952D01*
X129202380Y-41083333D01*
X129297619Y-41035714D01*
X129488095Y-41035714D01*
X129583333Y-41083333D01*
X130821428Y-41321428D02*
X131583333Y-41321428D01*
X131202380Y-41702380D02*
X131202380Y-40940476D01*
X132535714Y-40702380D02*
X132059523Y-40702380D01*
X132011904Y-41178571D01*
X132059523Y-41130952D01*
X132154761Y-41083333D01*
X132392857Y-41083333D01*
X132488095Y-41130952D01*
X132535714Y-41178571D01*
X132583333Y-41273809D01*
X132583333Y-41511904D01*
X132535714Y-41607142D01*
X132488095Y-41654761D01*
X132392857Y-41702380D01*
X132154761Y-41702380D01*
X132059523Y-41654761D01*
X132011904Y-41607142D01*
X132869047Y-40702380D02*
X133202380Y-41702380D01*
X133535714Y-40702380D01*
X119654761Y-37333333D02*
X120607142Y-37333333D01*
X119464285Y-37904761D02*
X120130952Y-35904761D01*
X120797619Y-37904761D01*
X121464285Y-37904761D02*
X121464285Y-36571428D01*
X121464285Y-36761904D02*
X121559523Y-36666666D01*
X121750000Y-36571428D01*
X122035714Y-36571428D01*
X122226190Y-36666666D01*
X122321428Y-36857142D01*
X122321428Y-37904761D01*
X122321428Y-36857142D02*
X122416666Y-36666666D01*
X122607142Y-36571428D01*
X122892857Y-36571428D01*
X123083333Y-36666666D01*
X123178571Y-36857142D01*
X123178571Y-37904761D01*
X124130952Y-37904761D02*
X124130952Y-36571428D01*
X124130952Y-35904761D02*
X124035714Y-36000000D01*
X124130952Y-36095238D01*
X124226190Y-36000000D01*
X124130952Y-35904761D01*
X124130952Y-36095238D01*
X125940476Y-36571428D02*
X125940476Y-38190476D01*
X125845238Y-38380952D01*
X125750000Y-38476190D01*
X125559523Y-38571428D01*
X125273809Y-38571428D01*
X125083333Y-38476190D01*
X125940476Y-37809523D02*
X125750000Y-37904761D01*
X125369047Y-37904761D01*
X125178571Y-37809523D01*
X125083333Y-37714285D01*
X124988095Y-37523809D01*
X124988095Y-36952380D01*
X125083333Y-36761904D01*
X125178571Y-36666666D01*
X125369047Y-36571428D01*
X125750000Y-36571428D01*
X125940476Y-36666666D01*
X127750000Y-37904761D02*
X127750000Y-36857142D01*
X127654761Y-36666666D01*
X127464285Y-36571428D01*
X127083333Y-36571428D01*
X126892857Y-36666666D01*
X127750000Y-37809523D02*
X127559523Y-37904761D01*
X127083333Y-37904761D01*
X126892857Y-37809523D01*
X126797619Y-37619047D01*
X126797619Y-37428571D01*
X126892857Y-37238095D01*
X127083333Y-37142857D01*
X127559523Y-37142857D01*
X127750000Y-37047619D01*
X115971428Y-158321428D02*
X116580952Y-158321428D01*
X116276190Y-158702380D02*
X116276190Y-157940476D01*
X116847619Y-157702380D02*
X117114285Y-158702380D01*
X117380952Y-157702380D01*
X117609523Y-157797619D02*
X117647619Y-157750000D01*
X117723809Y-157702380D01*
X117914285Y-157702380D01*
X117990476Y-157750000D01*
X118028571Y-157797619D01*
X118066666Y-157892857D01*
X118066666Y-157988095D01*
X118028571Y-158130952D01*
X117571428Y-158702380D01*
X118066666Y-158702380D01*
X113852380Y-157702380D02*
X114119047Y-158702380D01*
X114385714Y-157702380D01*
X114576190Y-157702380D02*
X115071428Y-157702380D01*
X114804761Y-158083333D01*
X114919047Y-158083333D01*
X114995238Y-158130952D01*
X115033333Y-158178571D01*
X115071428Y-158273809D01*
X115071428Y-158511904D01*
X115033333Y-158607142D01*
X114995238Y-158654761D01*
X114919047Y-158702380D01*
X114690476Y-158702380D01*
X114614285Y-158654761D01*
X114576190Y-158607142D01*
X121847619Y-157702380D02*
X121466666Y-157702380D01*
X121428571Y-158178571D01*
X121466666Y-158130952D01*
X121542857Y-158083333D01*
X121733333Y-158083333D01*
X121809523Y-158130952D01*
X121847619Y-158178571D01*
X121885714Y-158273809D01*
X121885714Y-158511904D01*
X121847619Y-158607142D01*
X121809523Y-158654761D01*
X121733333Y-158702380D01*
X121542857Y-158702380D01*
X121466666Y-158654761D01*
X121428571Y-158607142D01*
X122114285Y-157702380D02*
X122380952Y-158702380D01*
X122647619Y-157702380D01*
X119857142Y-158378571D02*
X119904761Y-158416666D01*
X119952380Y-158530952D01*
X119952380Y-158607142D01*
X119904761Y-158721428D01*
X119809523Y-158797619D01*
X119714285Y-158835714D01*
X119523809Y-158873809D01*
X119380952Y-158873809D01*
X119190476Y-158835714D01*
X119095238Y-158797619D01*
X119000000Y-158721428D01*
X118952380Y-158607142D01*
X118952380Y-158530952D01*
X119000000Y-158416666D01*
X119047619Y-158378571D01*
X118952380Y-157883333D02*
X118952380Y-157730952D01*
X119000000Y-157654761D01*
X119095238Y-157578571D01*
X119285714Y-157540476D01*
X119619047Y-157540476D01*
X119809523Y-157578571D01*
X119904761Y-157654761D01*
X119952380Y-157730952D01*
X119952380Y-157883333D01*
X119904761Y-157959523D01*
X119809523Y-158035714D01*
X119619047Y-158073809D01*
X119285714Y-158073809D01*
X119095238Y-158035714D01*
X119000000Y-157959523D01*
X118952380Y-157883333D01*
X119952380Y-157197619D02*
X118952380Y-157197619D01*
X119666666Y-156930952D01*
X118952380Y-156664285D01*
X119952380Y-156664285D01*
X72883214Y-158350000D02*
X73597500Y-158350000D01*
X72740357Y-158778571D02*
X73240357Y-157278571D01*
X73740357Y-158778571D01*
X74240357Y-158778571D02*
X74240357Y-157778571D01*
X74240357Y-157921428D02*
X74311785Y-157850000D01*
X74454642Y-157778571D01*
X74668928Y-157778571D01*
X74811785Y-157850000D01*
X74883214Y-157992857D01*
X74883214Y-158778571D01*
X74883214Y-157992857D02*
X74954642Y-157850000D01*
X75097500Y-157778571D01*
X75311785Y-157778571D01*
X75454642Y-157850000D01*
X75526071Y-157992857D01*
X75526071Y-158778571D01*
X76240357Y-158778571D02*
X76240357Y-157778571D01*
X76240357Y-157278571D02*
X76168928Y-157350000D01*
X76240357Y-157421428D01*
X76311785Y-157350000D01*
X76240357Y-157278571D01*
X76240357Y-157421428D01*
X77597500Y-157778571D02*
X77597500Y-158992857D01*
X77526071Y-159135714D01*
X77454642Y-159207142D01*
X77311785Y-159278571D01*
X77097500Y-159278571D01*
X76954642Y-159207142D01*
X77597500Y-158707142D02*
X77454642Y-158778571D01*
X77168928Y-158778571D01*
X77026071Y-158707142D01*
X76954642Y-158635714D01*
X76883214Y-158492857D01*
X76883214Y-158064285D01*
X76954642Y-157921428D01*
X77026071Y-157850000D01*
X77168928Y-157778571D01*
X77454642Y-157778571D01*
X77597500Y-157850000D01*
X78954642Y-158778571D02*
X78954642Y-157992857D01*
X78883214Y-157850000D01*
X78740357Y-157778571D01*
X78454642Y-157778571D01*
X78311785Y-157850000D01*
X78954642Y-158707142D02*
X78811785Y-158778571D01*
X78454642Y-158778571D01*
X78311785Y-158707142D01*
X78240357Y-158564285D01*
X78240357Y-158421428D01*
X78311785Y-158278571D01*
X78454642Y-158207142D01*
X78811785Y-158207142D01*
X78954642Y-158135714D01*
X80811785Y-158778571D02*
X80811785Y-157278571D01*
X81383214Y-157278571D01*
X81526071Y-157350000D01*
X81597500Y-157421428D01*
X81668928Y-157564285D01*
X81668928Y-157778571D01*
X81597500Y-157921428D01*
X81526071Y-157992857D01*
X81383214Y-158064285D01*
X80811785Y-158064285D01*
X82240357Y-158707142D02*
X82454642Y-158778571D01*
X82811785Y-158778571D01*
X82954642Y-158707142D01*
X83026071Y-158635714D01*
X83097500Y-158492857D01*
X83097500Y-158350000D01*
X83026071Y-158207142D01*
X82954642Y-158135714D01*
X82811785Y-158064285D01*
X82526071Y-157992857D01*
X82383214Y-157921428D01*
X82311785Y-157850000D01*
X82240357Y-157707142D01*
X82240357Y-157564285D01*
X82311785Y-157421428D01*
X82383214Y-157350000D01*
X82526071Y-157278571D01*
X82883214Y-157278571D01*
X83097500Y-157350000D01*
X83740357Y-157278571D02*
X83740357Y-158492857D01*
X83811785Y-158635714D01*
X83883214Y-158707142D01*
X84026071Y-158778571D01*
X84311785Y-158778571D01*
X84454642Y-158707142D01*
X84526071Y-158635714D01*
X84597500Y-158492857D01*
X84597500Y-157278571D01*
X86240357Y-157778571D02*
X86811785Y-157778571D01*
X86454642Y-157278571D02*
X86454642Y-158564285D01*
X86526071Y-158707142D01*
X86668928Y-158778571D01*
X86811785Y-158778571D01*
X87526071Y-158778571D02*
X87383214Y-158707142D01*
X87311785Y-158635714D01*
X87240357Y-158492857D01*
X87240357Y-158064285D01*
X87311785Y-157921428D01*
X87383214Y-157850000D01*
X87526071Y-157778571D01*
X87740357Y-157778571D01*
X87883214Y-157850000D01*
X87954642Y-157921428D01*
X88026071Y-158064285D01*
X88026071Y-158492857D01*
X87954642Y-158635714D01*
X87883214Y-158707142D01*
X87740357Y-158778571D01*
X87526071Y-158778571D01*
X72954642Y-161178571D02*
X72954642Y-159678571D01*
X73454642Y-160750000D01*
X73954642Y-159678571D01*
X73954642Y-161178571D01*
X75240357Y-161107142D02*
X75097500Y-161178571D01*
X74811785Y-161178571D01*
X74668928Y-161107142D01*
X74597500Y-160964285D01*
X74597500Y-160392857D01*
X74668928Y-160250000D01*
X74811785Y-160178571D01*
X75097500Y-160178571D01*
X75240357Y-160250000D01*
X75311785Y-160392857D01*
X75311785Y-160535714D01*
X74597500Y-160678571D01*
X76597500Y-161178571D02*
X76597500Y-160392857D01*
X76526071Y-160250000D01*
X76383214Y-160178571D01*
X76097500Y-160178571D01*
X75954642Y-160250000D01*
X76597500Y-161107142D02*
X76454642Y-161178571D01*
X76097500Y-161178571D01*
X75954642Y-161107142D01*
X75883214Y-160964285D01*
X75883214Y-160821428D01*
X75954642Y-160678571D01*
X76097500Y-160607142D01*
X76454642Y-160607142D01*
X76597500Y-160535714D01*
X77311785Y-160178571D02*
X77311785Y-161178571D01*
X77311785Y-160321428D02*
X77383214Y-160250000D01*
X77526071Y-160178571D01*
X77740357Y-160178571D01*
X77883214Y-160250000D01*
X77954642Y-160392857D01*
X77954642Y-161178571D01*
X78526071Y-160178571D02*
X78811785Y-161178571D01*
X79097500Y-160464285D01*
X79383214Y-161178571D01*
X79668928Y-160178571D01*
X80811785Y-161107142D02*
X80668928Y-161178571D01*
X80383214Y-161178571D01*
X80240357Y-161107142D01*
X80168928Y-160964285D01*
X80168928Y-160392857D01*
X80240357Y-160250000D01*
X80383214Y-160178571D01*
X80668928Y-160178571D01*
X80811785Y-160250000D01*
X80883214Y-160392857D01*
X80883214Y-160535714D01*
X80168928Y-160678571D01*
X81740357Y-161178571D02*
X81597500Y-161107142D01*
X81526071Y-160964285D01*
X81526071Y-159678571D01*
X82526071Y-161178571D02*
X82383214Y-161107142D01*
X82311785Y-160964285D01*
X82311785Y-159678571D01*
X85097500Y-161178571D02*
X84597500Y-160464285D01*
X84240357Y-161178571D02*
X84240357Y-159678571D01*
X84811785Y-159678571D01*
X84954642Y-159750000D01*
X85026071Y-159821428D01*
X85097500Y-159964285D01*
X85097500Y-160178571D01*
X85026071Y-160321428D01*
X84954642Y-160392857D01*
X84811785Y-160464285D01*
X84240357Y-160464285D01*
X85526071Y-159678571D02*
X86383214Y-159678571D01*
X85954642Y-161178571D02*
X85954642Y-159678571D01*
X87597500Y-159678571D02*
X86883214Y-159678571D01*
X86811785Y-160392857D01*
X86883214Y-160321428D01*
X87026071Y-160250000D01*
X87383214Y-160250000D01*
X87526071Y-160321428D01*
X87597500Y-160392857D01*
X87668928Y-160535714D01*
X87668928Y-160892857D01*
X87597500Y-161035714D01*
X87526071Y-161107142D01*
X87383214Y-161178571D01*
X87026071Y-161178571D01*
X86883214Y-161107142D01*
X86811785Y-161035714D01*
X88597500Y-159678571D02*
X88740357Y-159678571D01*
X88883214Y-159750000D01*
X88954642Y-159821428D01*
X89026071Y-159964285D01*
X89097500Y-160250000D01*
X89097500Y-160607142D01*
X89026071Y-160892857D01*
X88954642Y-161035714D01*
X88883214Y-161107142D01*
X88740357Y-161178571D01*
X88597500Y-161178571D01*
X88454642Y-161107142D01*
X88383214Y-161035714D01*
X88311785Y-160892857D01*
X88240357Y-160607142D01*
X88240357Y-160250000D01*
X88311785Y-159964285D01*
X88383214Y-159821428D01*
X88454642Y-159750000D01*
X88597500Y-159678571D01*
X89740357Y-160607142D02*
X90883214Y-160607142D01*
X92097500Y-160392857D02*
X92311785Y-160464285D01*
X92383214Y-160535714D01*
X92454642Y-160678571D01*
X92454642Y-160892857D01*
X92383214Y-161035714D01*
X92311785Y-161107142D01*
X92168928Y-161178571D01*
X91597500Y-161178571D01*
X91597500Y-159678571D01*
X92097500Y-159678571D01*
X92240357Y-159750000D01*
X92311785Y-159821428D01*
X92383214Y-159964285D01*
X92383214Y-160107142D01*
X92311785Y-160250000D01*
X92240357Y-160321428D01*
X92097500Y-160392857D01*
X91597500Y-160392857D01*
X73597500Y-163578571D02*
X73597500Y-162792857D01*
X73526071Y-162650000D01*
X73383214Y-162578571D01*
X73097500Y-162578571D01*
X72954642Y-162650000D01*
X73597500Y-163507142D02*
X73454642Y-163578571D01*
X73097500Y-163578571D01*
X72954642Y-163507142D01*
X72883214Y-163364285D01*
X72883214Y-163221428D01*
X72954642Y-163078571D01*
X73097500Y-163007142D01*
X73454642Y-163007142D01*
X73597500Y-162935714D01*
X74954642Y-163578571D02*
X74954642Y-162078571D01*
X74954642Y-163507142D02*
X74811785Y-163578571D01*
X74526071Y-163578571D01*
X74383214Y-163507142D01*
X74311785Y-163435714D01*
X74240357Y-163292857D01*
X74240357Y-162864285D01*
X74311785Y-162721428D01*
X74383214Y-162650000D01*
X74526071Y-162578571D01*
X74811785Y-162578571D01*
X74954642Y-162650000D01*
X76311785Y-163578571D02*
X76311785Y-162792857D01*
X76240357Y-162650000D01*
X76097500Y-162578571D01*
X75811785Y-162578571D01*
X75668928Y-162650000D01*
X76311785Y-163507142D02*
X76168928Y-163578571D01*
X75811785Y-163578571D01*
X75668928Y-163507142D01*
X75597500Y-163364285D01*
X75597500Y-163221428D01*
X75668928Y-163078571D01*
X75811785Y-163007142D01*
X76168928Y-163007142D01*
X76311785Y-162935714D01*
X77026071Y-162578571D02*
X77026071Y-164078571D01*
X77026071Y-162650000D02*
X77168928Y-162578571D01*
X77454642Y-162578571D01*
X77597500Y-162650000D01*
X77668928Y-162721428D01*
X77740357Y-162864285D01*
X77740357Y-163292857D01*
X77668928Y-163435714D01*
X77597500Y-163507142D01*
X77454642Y-163578571D01*
X77168928Y-163578571D01*
X77026071Y-163507142D01*
X78168928Y-162578571D02*
X78740357Y-162578571D01*
X78383214Y-162078571D02*
X78383214Y-163364285D01*
X78454642Y-163507142D01*
X78597500Y-163578571D01*
X78740357Y-163578571D01*
X79454642Y-163578571D02*
X79311785Y-163507142D01*
X79240357Y-163435714D01*
X79168928Y-163292857D01*
X79168928Y-162864285D01*
X79240357Y-162721428D01*
X79311785Y-162650000D01*
X79454642Y-162578571D01*
X79668928Y-162578571D01*
X79811785Y-162650000D01*
X79883214Y-162721428D01*
X79954642Y-162864285D01*
X79954642Y-163292857D01*
X79883214Y-163435714D01*
X79811785Y-163507142D01*
X79668928Y-163578571D01*
X79454642Y-163578571D01*
X80597500Y-163578571D02*
X80597500Y-162578571D01*
X80597500Y-162864285D02*
X80668928Y-162721428D01*
X80740357Y-162650000D01*
X80883214Y-162578571D01*
X81026071Y-162578571D01*
X82526071Y-162578571D02*
X82883214Y-163578571D01*
X83240357Y-162578571D01*
X84597500Y-163578571D02*
X83740357Y-163578571D01*
X84168928Y-163578571D02*
X84168928Y-162078571D01*
X84026071Y-162292857D01*
X83883214Y-162435714D01*
X83740357Y-162507142D01*
X85240357Y-163435714D02*
X85311785Y-163507142D01*
X85240357Y-163578571D01*
X85168928Y-163507142D01*
X85240357Y-163435714D01*
X85240357Y-163578571D01*
X86240357Y-162078571D02*
X86383214Y-162078571D01*
X86526071Y-162150000D01*
X86597500Y-162221428D01*
X86668928Y-162364285D01*
X86740357Y-162650000D01*
X86740357Y-163007142D01*
X86668928Y-163292857D01*
X86597500Y-163435714D01*
X86526071Y-163507142D01*
X86383214Y-163578571D01*
X86240357Y-163578571D01*
X86097500Y-163507142D01*
X86026071Y-163435714D01*
X85954642Y-163292857D01*
X85883214Y-163007142D01*
X85883214Y-162650000D01*
X85954642Y-162364285D01*
X86026071Y-162221428D01*
X86097500Y-162150000D01*
X86240357Y-162078571D01*
X87668928Y-162078571D02*
X87811785Y-162078571D01*
X87954642Y-162150000D01*
X88026071Y-162221428D01*
X88097500Y-162364285D01*
X88168928Y-162650000D01*
X88168928Y-163007142D01*
X88097500Y-163292857D01*
X88026071Y-163435714D01*
X87954642Y-163507142D01*
X87811785Y-163578571D01*
X87668928Y-163578571D01*
X87526071Y-163507142D01*
X87454642Y-163435714D01*
X87383214Y-163292857D01*
X87311785Y-163007142D01*
X87311785Y-162650000D01*
X87383214Y-162364285D01*
X87454642Y-162221428D01*
X87526071Y-162150000D01*
X87668928Y-162078571D01*
X115797619Y-176404761D02*
X115797619Y-174404761D01*
X116464285Y-175833333D01*
X117130952Y-174404761D01*
X117130952Y-176404761D01*
X118940476Y-176404761D02*
X118940476Y-175357142D01*
X118845238Y-175166666D01*
X118654761Y-175071428D01*
X118273809Y-175071428D01*
X118083333Y-175166666D01*
X118940476Y-176309523D02*
X118750000Y-176404761D01*
X118273809Y-176404761D01*
X118083333Y-176309523D01*
X117988095Y-176119047D01*
X117988095Y-175928571D01*
X118083333Y-175738095D01*
X118273809Y-175642857D01*
X118750000Y-175642857D01*
X118940476Y-175547619D01*
X119892857Y-176404761D02*
X119892857Y-175071428D01*
X119892857Y-174404761D02*
X119797619Y-174500000D01*
X119892857Y-174595238D01*
X119988095Y-174500000D01*
X119892857Y-174404761D01*
X119892857Y-174595238D01*
X120845238Y-175071428D02*
X120845238Y-176404761D01*
X120845238Y-175261904D02*
X120940476Y-175166666D01*
X121130952Y-175071428D01*
X121416666Y-175071428D01*
X121607142Y-175166666D01*
X121702380Y-175357142D01*
X121702380Y-176404761D01*
X122559523Y-176309523D02*
X122750000Y-176404761D01*
X123130952Y-176404761D01*
X123321428Y-176309523D01*
X123416666Y-176119047D01*
X123416666Y-176023809D01*
X123321428Y-175833333D01*
X123130952Y-175738095D01*
X122845238Y-175738095D01*
X122654761Y-175642857D01*
X122559523Y-175452380D01*
X122559523Y-175357142D01*
X122654761Y-175166666D01*
X122845238Y-175071428D01*
X123130952Y-175071428D01*
X123321428Y-175166666D01*
X125797619Y-176404761D02*
X125797619Y-174404761D01*
X126559523Y-174404761D01*
X126750000Y-174500000D01*
X126845238Y-174595238D01*
X126940476Y-174785714D01*
X126940476Y-175071428D01*
X126845238Y-175261904D01*
X126750000Y-175357142D01*
X126559523Y-175452380D01*
X125797619Y-175452380D01*
X128083333Y-176404761D02*
X127892857Y-176309523D01*
X127797619Y-176214285D01*
X127702380Y-176023809D01*
X127702380Y-175452380D01*
X127797619Y-175261904D01*
X127892857Y-175166666D01*
X128083333Y-175071428D01*
X128369047Y-175071428D01*
X128559523Y-175166666D01*
X128654761Y-175261904D01*
X128750000Y-175452380D01*
X128750000Y-176023809D01*
X128654761Y-176214285D01*
X128559523Y-176309523D01*
X128369047Y-176404761D01*
X128083333Y-176404761D01*
X129416666Y-175071428D02*
X129797619Y-176404761D01*
X130178571Y-175452380D01*
X130559523Y-176404761D01*
X130940476Y-175071428D01*
X132464285Y-176309523D02*
X132273809Y-176404761D01*
X131892857Y-176404761D01*
X131702380Y-176309523D01*
X131607142Y-176119047D01*
X131607142Y-175357142D01*
X131702380Y-175166666D01*
X131892857Y-175071428D01*
X132273809Y-175071428D01*
X132464285Y-175166666D01*
X132559523Y-175357142D01*
X132559523Y-175547619D01*
X131607142Y-175738095D01*
X133416666Y-176404761D02*
X133416666Y-175071428D01*
X133416666Y-175452380D02*
X133511904Y-175261904D01*
X133607142Y-175166666D01*
X133797619Y-175071428D01*
X133988095Y-175071428D01*
D12*
%TO.C,Amiga Connector Plug*%
X72000000Y-81250000D02*
X96000000Y-81250000D01*
X96000000Y-81250000D02*
X96000000Y-57250000D01*
X82000000Y-57250000D02*
X72000000Y-57250000D01*
X72000000Y-57250000D02*
X72000000Y-81250000D01*
X85000000Y-69250000D02*
G75*
G03*
X85000000Y-69250000I-1000000J0D01*
G01*
X77000000Y-61250000D02*
G75*
G03*
X77000000Y-61250000I-1000000J0D01*
G01*
X93000000Y-61250000D02*
G75*
G03*
X93000000Y-61250000I-1000000J0D01*
G01*
X93000000Y-77250000D02*
G75*
G03*
X93000000Y-77250000I-1000000J0D01*
G01*
X77000000Y-77250000D02*
G75*
G03*
X77000000Y-77250000I-1000000J0D01*
G01*
X86000000Y-57250000D02*
X96000000Y-57250000D01*
X86000000Y-57250000D02*
X84000000Y-59250000D01*
X84000000Y-59250000D02*
X82000000Y-57250000D01*
%TO.C,Meanwell RT50-B*%
X69500000Y-153500000D02*
X69500000Y-54500000D01*
X69500000Y-54500000D02*
X166500000Y-54500000D01*
X166500000Y-54500000D02*
X166500000Y-153500000D01*
X166500000Y-153500000D02*
X69500000Y-153500000D01*
%TO.C,To Amiga*%
X124560000Y-164460000D02*
X124560000Y-159340000D01*
X124560000Y-159340000D02*
X112940000Y-159340000D01*
X112940000Y-159340000D02*
X111940000Y-160340000D01*
X111940000Y-160340000D02*
X111940000Y-164460000D01*
X111940000Y-164460000D02*
X124560000Y-164460000D01*
X124860000Y-161450000D02*
X124860000Y-159040000D01*
X124860000Y-159040000D02*
X122450000Y-159040000D01*
%TO.C,White Brown Black Red Yellow*%
X130060000Y-48460000D02*
X130060000Y-43340000D01*
X130060000Y-43340000D02*
X115940000Y-43340000D01*
X115940000Y-43340000D02*
X114940000Y-44340000D01*
X114940000Y-44340000D02*
X114940000Y-48460000D01*
X114940000Y-48460000D02*
X130060000Y-48460000D01*
X130360000Y-45450000D02*
X130360000Y-43040000D01*
X130360000Y-43040000D02*
X127950000Y-43040000D01*
%TO.C,Amiga Connector Plug*%
D10*
X75761904Y-56416666D02*
X76238095Y-56416666D01*
X75666666Y-56702380D02*
X76000000Y-55702380D01*
X76333333Y-56702380D01*
X76666666Y-56702380D02*
X76666666Y-56035714D01*
X76666666Y-56130952D02*
X76714285Y-56083333D01*
X76809523Y-56035714D01*
X76952380Y-56035714D01*
X77047619Y-56083333D01*
X77095238Y-56178571D01*
X77095238Y-56702380D01*
X77095238Y-56178571D02*
X77142857Y-56083333D01*
X77238095Y-56035714D01*
X77380952Y-56035714D01*
X77476190Y-56083333D01*
X77523809Y-56178571D01*
X77523809Y-56702380D01*
X78000000Y-56702380D02*
X78000000Y-56035714D01*
X78000000Y-55702380D02*
X77952380Y-55750000D01*
X78000000Y-55797619D01*
X78047619Y-55750000D01*
X78000000Y-55702380D01*
X78000000Y-55797619D01*
X78904761Y-56035714D02*
X78904761Y-56845238D01*
X78857142Y-56940476D01*
X78809523Y-56988095D01*
X78714285Y-57035714D01*
X78571428Y-57035714D01*
X78476190Y-56988095D01*
X78904761Y-56654761D02*
X78809523Y-56702380D01*
X78619047Y-56702380D01*
X78523809Y-56654761D01*
X78476190Y-56607142D01*
X78428571Y-56511904D01*
X78428571Y-56226190D01*
X78476190Y-56130952D01*
X78523809Y-56083333D01*
X78619047Y-56035714D01*
X78809523Y-56035714D01*
X78904761Y-56083333D01*
X79809523Y-56702380D02*
X79809523Y-56178571D01*
X79761904Y-56083333D01*
X79666666Y-56035714D01*
X79476190Y-56035714D01*
X79380952Y-56083333D01*
X79809523Y-56654761D02*
X79714285Y-56702380D01*
X79476190Y-56702380D01*
X79380952Y-56654761D01*
X79333333Y-56559523D01*
X79333333Y-56464285D01*
X79380952Y-56369047D01*
X79476190Y-56321428D01*
X79714285Y-56321428D01*
X79809523Y-56273809D01*
X81619047Y-56607142D02*
X81571428Y-56654761D01*
X81428571Y-56702380D01*
X81333333Y-56702380D01*
X81190476Y-56654761D01*
X81095238Y-56559523D01*
X81047619Y-56464285D01*
X81000000Y-56273809D01*
X81000000Y-56130952D01*
X81047619Y-55940476D01*
X81095238Y-55845238D01*
X81190476Y-55750000D01*
X81333333Y-55702380D01*
X81428571Y-55702380D01*
X81571428Y-55750000D01*
X81619047Y-55797619D01*
X82190476Y-56702380D02*
X82095238Y-56654761D01*
X82047619Y-56607142D01*
X82000000Y-56511904D01*
X82000000Y-56226190D01*
X82047619Y-56130952D01*
X82095238Y-56083333D01*
X82190476Y-56035714D01*
X82333333Y-56035714D01*
X82428571Y-56083333D01*
X82476190Y-56130952D01*
X82523809Y-56226190D01*
X82523809Y-56511904D01*
X82476190Y-56607142D01*
X82428571Y-56654761D01*
X82333333Y-56702380D01*
X82190476Y-56702380D01*
X82952380Y-56035714D02*
X82952380Y-56702380D01*
X82952380Y-56130952D02*
X83000000Y-56083333D01*
X83095238Y-56035714D01*
X83238095Y-56035714D01*
X83333333Y-56083333D01*
X83380952Y-56178571D01*
X83380952Y-56702380D01*
X83857142Y-56035714D02*
X83857142Y-56702380D01*
X83857142Y-56130952D02*
X83904761Y-56083333D01*
X84000000Y-56035714D01*
X84142857Y-56035714D01*
X84238095Y-56083333D01*
X84285714Y-56178571D01*
X84285714Y-56702380D01*
X85142857Y-56654761D02*
X85047619Y-56702380D01*
X84857142Y-56702380D01*
X84761904Y-56654761D01*
X84714285Y-56559523D01*
X84714285Y-56178571D01*
X84761904Y-56083333D01*
X84857142Y-56035714D01*
X85047619Y-56035714D01*
X85142857Y-56083333D01*
X85190476Y-56178571D01*
X85190476Y-56273809D01*
X84714285Y-56369047D01*
X86047619Y-56654761D02*
X85952380Y-56702380D01*
X85761904Y-56702380D01*
X85666666Y-56654761D01*
X85619047Y-56607142D01*
X85571428Y-56511904D01*
X85571428Y-56226190D01*
X85619047Y-56130952D01*
X85666666Y-56083333D01*
X85761904Y-56035714D01*
X85952380Y-56035714D01*
X86047619Y-56083333D01*
X86333333Y-56035714D02*
X86714285Y-56035714D01*
X86476190Y-55702380D02*
X86476190Y-56559523D01*
X86523809Y-56654761D01*
X86619047Y-56702380D01*
X86714285Y-56702380D01*
X87190476Y-56702380D02*
X87095238Y-56654761D01*
X87047619Y-56607142D01*
X87000000Y-56511904D01*
X87000000Y-56226190D01*
X87047619Y-56130952D01*
X87095238Y-56083333D01*
X87190476Y-56035714D01*
X87333333Y-56035714D01*
X87428571Y-56083333D01*
X87476190Y-56130952D01*
X87523809Y-56226190D01*
X87523809Y-56511904D01*
X87476190Y-56607142D01*
X87428571Y-56654761D01*
X87333333Y-56702380D01*
X87190476Y-56702380D01*
X87952380Y-56702380D02*
X87952380Y-56035714D01*
X87952380Y-56226190D02*
X88000000Y-56130952D01*
X88047619Y-56083333D01*
X88142857Y-56035714D01*
X88238095Y-56035714D01*
X89333333Y-56702380D02*
X89333333Y-55702380D01*
X89714285Y-55702380D01*
X89809523Y-55750000D01*
X89857142Y-55797619D01*
X89904761Y-55892857D01*
X89904761Y-56035714D01*
X89857142Y-56130952D01*
X89809523Y-56178571D01*
X89714285Y-56226190D01*
X89333333Y-56226190D01*
X90476190Y-56702380D02*
X90380952Y-56654761D01*
X90333333Y-56559523D01*
X90333333Y-55702380D01*
X91285714Y-56035714D02*
X91285714Y-56702380D01*
X90857142Y-56035714D02*
X90857142Y-56559523D01*
X90904761Y-56654761D01*
X91000000Y-56702380D01*
X91142857Y-56702380D01*
X91238095Y-56654761D01*
X91285714Y-56607142D01*
X92190476Y-56035714D02*
X92190476Y-56845238D01*
X92142857Y-56940476D01*
X92095238Y-56988095D01*
X92000000Y-57035714D01*
X91857142Y-57035714D01*
X91761904Y-56988095D01*
X92190476Y-56654761D02*
X92095238Y-56702380D01*
X91904761Y-56702380D01*
X91809523Y-56654761D01*
X91761904Y-56607142D01*
X91714285Y-56511904D01*
X91714285Y-56226190D01*
X91761904Y-56130952D01*
X91809523Y-56083333D01*
X91904761Y-56035714D01*
X92095238Y-56035714D01*
X92190476Y-56083333D01*
X73392857Y-75857142D02*
X73607142Y-75928571D01*
X73964285Y-75928571D01*
X74107142Y-75857142D01*
X74178571Y-75785714D01*
X74250000Y-75642857D01*
X74250000Y-75500000D01*
X74178571Y-75357142D01*
X74107142Y-75285714D01*
X73964285Y-75214285D01*
X73678571Y-75142857D01*
X73535714Y-75071428D01*
X73464285Y-75000000D01*
X73392857Y-74857142D01*
X73392857Y-74714285D01*
X73464285Y-74571428D01*
X73535714Y-74500000D01*
X73678571Y-74428571D01*
X74035714Y-74428571D01*
X74250000Y-74500000D01*
X74892857Y-75928571D02*
X74892857Y-74428571D01*
X74892857Y-75142857D02*
X75750000Y-75142857D01*
X75750000Y-75928571D02*
X75750000Y-74428571D01*
X76464285Y-75928571D02*
X76464285Y-74428571D01*
X77178571Y-75142857D02*
X77678571Y-75142857D01*
X77892857Y-75928571D02*
X77178571Y-75928571D01*
X77178571Y-74428571D01*
X77892857Y-74428571D01*
X79250000Y-75928571D02*
X78535714Y-75928571D01*
X78535714Y-74428571D01*
X79750000Y-75928571D02*
X79750000Y-74428571D01*
X80107142Y-74428571D01*
X80321428Y-74500000D01*
X80464285Y-74642857D01*
X80535714Y-74785714D01*
X80607142Y-75071428D01*
X80607142Y-75285714D01*
X80535714Y-75571428D01*
X80464285Y-75714285D01*
X80321428Y-75857142D01*
X80107142Y-75928571D01*
X79750000Y-75928571D01*
X90071428Y-75357142D02*
X91214285Y-75357142D01*
X90642857Y-75928571D02*
X90642857Y-74785714D01*
X92642857Y-74428571D02*
X91928571Y-74428571D01*
X91857142Y-75142857D01*
X91928571Y-75071428D01*
X92071428Y-75000000D01*
X92428571Y-75000000D01*
X92571428Y-75071428D01*
X92642857Y-75142857D01*
X92714285Y-75285714D01*
X92714285Y-75642857D01*
X92642857Y-75785714D01*
X92571428Y-75857142D01*
X92428571Y-75928571D01*
X92071428Y-75928571D01*
X91928571Y-75857142D01*
X91857142Y-75785714D01*
X93142857Y-74428571D02*
X93642857Y-75928571D01*
X94142857Y-74428571D01*
X81357142Y-67357142D02*
X82500000Y-67357142D01*
X84000000Y-67928571D02*
X83142857Y-67928571D01*
X83571428Y-67928571D02*
X83571428Y-66428571D01*
X83428571Y-66642857D01*
X83285714Y-66785714D01*
X83142857Y-66857142D01*
X84571428Y-66571428D02*
X84642857Y-66500000D01*
X84785714Y-66428571D01*
X85142857Y-66428571D01*
X85285714Y-66500000D01*
X85357142Y-66571428D01*
X85428571Y-66714285D01*
X85428571Y-66857142D01*
X85357142Y-67071428D01*
X84500000Y-67928571D01*
X85428571Y-67928571D01*
X85857142Y-66428571D02*
X86357142Y-67928571D01*
X86857142Y-66428571D01*
X90857142Y-58500000D02*
X90714285Y-58428571D01*
X90500000Y-58428571D01*
X90285714Y-58500000D01*
X90142857Y-58642857D01*
X90071428Y-58785714D01*
X90000000Y-59071428D01*
X90000000Y-59285714D01*
X90071428Y-59571428D01*
X90142857Y-59714285D01*
X90285714Y-59857142D01*
X90500000Y-59928571D01*
X90642857Y-59928571D01*
X90857142Y-59857142D01*
X90928571Y-59785714D01*
X90928571Y-59285714D01*
X90642857Y-59285714D01*
X91571428Y-59928571D02*
X91571428Y-58428571D01*
X92428571Y-59928571D01*
X92428571Y-58428571D01*
X93142857Y-59928571D02*
X93142857Y-58428571D01*
X93500000Y-58428571D01*
X93714285Y-58500000D01*
X93857142Y-58642857D01*
X93928571Y-58785714D01*
X94000000Y-59071428D01*
X94000000Y-59285714D01*
X93928571Y-59571428D01*
X93857142Y-59714285D01*
X93714285Y-59857142D01*
X93500000Y-59928571D01*
X93142857Y-59928571D01*
X73357142Y-59357142D02*
X74500000Y-59357142D01*
X73928571Y-59928571D02*
X73928571Y-58785714D01*
X76000000Y-59928571D02*
X75142857Y-59928571D01*
X75571428Y-59928571D02*
X75571428Y-58428571D01*
X75428571Y-58642857D01*
X75285714Y-58785714D01*
X75142857Y-58857142D01*
X76571428Y-58571428D02*
X76642857Y-58500000D01*
X76785714Y-58428571D01*
X77142857Y-58428571D01*
X77285714Y-58500000D01*
X77357142Y-58571428D01*
X77428571Y-58714285D01*
X77428571Y-58857142D01*
X77357142Y-59071428D01*
X76500000Y-59928571D01*
X77428571Y-59928571D01*
X77857142Y-58428571D02*
X78357142Y-59928571D01*
X78857142Y-58428571D01*
%TO.C,Meanwell RT50-B*%
X112023809Y-101952380D02*
X112023809Y-100952380D01*
X112357142Y-101666666D01*
X112690476Y-100952380D01*
X112690476Y-101952380D01*
X113547619Y-101904761D02*
X113452380Y-101952380D01*
X113261904Y-101952380D01*
X113166666Y-101904761D01*
X113119047Y-101809523D01*
X113119047Y-101428571D01*
X113166666Y-101333333D01*
X113261904Y-101285714D01*
X113452380Y-101285714D01*
X113547619Y-101333333D01*
X113595238Y-101428571D01*
X113595238Y-101523809D01*
X113119047Y-101619047D01*
X114452380Y-101952380D02*
X114452380Y-101428571D01*
X114404761Y-101333333D01*
X114309523Y-101285714D01*
X114119047Y-101285714D01*
X114023809Y-101333333D01*
X114452380Y-101904761D02*
X114357142Y-101952380D01*
X114119047Y-101952380D01*
X114023809Y-101904761D01*
X113976190Y-101809523D01*
X113976190Y-101714285D01*
X114023809Y-101619047D01*
X114119047Y-101571428D01*
X114357142Y-101571428D01*
X114452380Y-101523809D01*
X114928571Y-101285714D02*
X114928571Y-101952380D01*
X114928571Y-101380952D02*
X114976190Y-101333333D01*
X115071428Y-101285714D01*
X115214285Y-101285714D01*
X115309523Y-101333333D01*
X115357142Y-101428571D01*
X115357142Y-101952380D01*
X115738095Y-101285714D02*
X115928571Y-101952380D01*
X116119047Y-101476190D01*
X116309523Y-101952380D01*
X116500000Y-101285714D01*
X117261904Y-101904761D02*
X117166666Y-101952380D01*
X116976190Y-101952380D01*
X116880952Y-101904761D01*
X116833333Y-101809523D01*
X116833333Y-101428571D01*
X116880952Y-101333333D01*
X116976190Y-101285714D01*
X117166666Y-101285714D01*
X117261904Y-101333333D01*
X117309523Y-101428571D01*
X117309523Y-101523809D01*
X116833333Y-101619047D01*
X117880952Y-101952380D02*
X117785714Y-101904761D01*
X117738095Y-101809523D01*
X117738095Y-100952380D01*
X118404761Y-101952380D02*
X118309523Y-101904761D01*
X118261904Y-101809523D01*
X118261904Y-100952380D01*
X120119047Y-101952380D02*
X119785714Y-101476190D01*
X119547619Y-101952380D02*
X119547619Y-100952380D01*
X119928571Y-100952380D01*
X120023809Y-101000000D01*
X120071428Y-101047619D01*
X120119047Y-101142857D01*
X120119047Y-101285714D01*
X120071428Y-101380952D01*
X120023809Y-101428571D01*
X119928571Y-101476190D01*
X119547619Y-101476190D01*
X120404761Y-100952380D02*
X120976190Y-100952380D01*
X120690476Y-101952380D02*
X120690476Y-100952380D01*
X121785714Y-100952380D02*
X121309523Y-100952380D01*
X121261904Y-101428571D01*
X121309523Y-101380952D01*
X121404761Y-101333333D01*
X121642857Y-101333333D01*
X121738095Y-101380952D01*
X121785714Y-101428571D01*
X121833333Y-101523809D01*
X121833333Y-101761904D01*
X121785714Y-101857142D01*
X121738095Y-101904761D01*
X121642857Y-101952380D01*
X121404761Y-101952380D01*
X121309523Y-101904761D01*
X121261904Y-101857142D01*
X122452380Y-100952380D02*
X122547619Y-100952380D01*
X122642857Y-101000000D01*
X122690476Y-101047619D01*
X122738095Y-101142857D01*
X122785714Y-101333333D01*
X122785714Y-101571428D01*
X122738095Y-101761904D01*
X122690476Y-101857142D01*
X122642857Y-101904761D01*
X122547619Y-101952380D01*
X122452380Y-101952380D01*
X122357142Y-101904761D01*
X122309523Y-101857142D01*
X122261904Y-101761904D01*
X122214285Y-101571428D01*
X122214285Y-101333333D01*
X122261904Y-101142857D01*
X122309523Y-101047619D01*
X122357142Y-101000000D01*
X122452380Y-100952380D01*
X123214285Y-101571428D02*
X123976190Y-101571428D01*
X124785714Y-101428571D02*
X124928571Y-101476190D01*
X124976190Y-101523809D01*
X125023809Y-101619047D01*
X125023809Y-101761904D01*
X124976190Y-101857142D01*
X124928571Y-101904761D01*
X124833333Y-101952380D01*
X124452380Y-101952380D01*
X124452380Y-100952380D01*
X124785714Y-100952380D01*
X124880952Y-101000000D01*
X124928571Y-101047619D01*
X124976190Y-101142857D01*
X124976190Y-101238095D01*
X124928571Y-101333333D01*
X124880952Y-101380952D01*
X124785714Y-101428571D01*
X124452380Y-101428571D01*
X110702380Y-147535714D02*
X109702380Y-147535714D01*
X110702380Y-146964285D01*
X109702380Y-146964285D01*
X110607142Y-145916666D02*
X110654761Y-145964285D01*
X110702380Y-146107142D01*
X110702380Y-146202380D01*
X110654761Y-146345238D01*
X110559523Y-146440476D01*
X110464285Y-146488095D01*
X110273809Y-146535714D01*
X110130952Y-146535714D01*
X109940476Y-146488095D01*
X109845238Y-146440476D01*
X109750000Y-146345238D01*
X109702380Y-146202380D01*
X109702380Y-146107142D01*
X109750000Y-145964285D01*
X109797619Y-145916666D01*
X101928571Y-146964285D02*
X101928571Y-146630952D01*
X102452380Y-146488095D02*
X102452380Y-146964285D01*
X101452380Y-146964285D01*
X101452380Y-146488095D01*
X94452380Y-147035714D02*
X93452380Y-147035714D01*
X94452380Y-146464285D01*
X93452380Y-146464285D01*
X85952380Y-146440476D02*
X85952380Y-146916666D01*
X84952380Y-146916666D01*
X117702380Y-147559523D02*
X118702380Y-147226190D01*
X117702380Y-146892857D01*
X117702380Y-146654761D02*
X117702380Y-146035714D01*
X118083333Y-146369047D01*
X118083333Y-146226190D01*
X118130952Y-146130952D01*
X118178571Y-146083333D01*
X118273809Y-146035714D01*
X118511904Y-146035714D01*
X118607142Y-146083333D01*
X118654761Y-146130952D01*
X118702380Y-146226190D01*
X118702380Y-146511904D01*
X118654761Y-146607142D01*
X118607142Y-146654761D01*
X126821428Y-148285714D02*
X126821428Y-147523809D01*
X127202380Y-147904761D02*
X126440476Y-147904761D01*
X126202380Y-147190476D02*
X127202380Y-146857142D01*
X126202380Y-146523809D01*
X126297619Y-146238095D02*
X126250000Y-146190476D01*
X126202380Y-146095238D01*
X126202380Y-145857142D01*
X126250000Y-145761904D01*
X126297619Y-145714285D01*
X126392857Y-145666666D01*
X126488095Y-145666666D01*
X126630952Y-145714285D01*
X127202380Y-146285714D01*
X127202380Y-145666666D01*
X135107142Y-147535714D02*
X135154761Y-147583333D01*
X135202380Y-147726190D01*
X135202380Y-147821428D01*
X135154761Y-147964285D01*
X135059523Y-148059523D01*
X134964285Y-148107142D01*
X134773809Y-148154761D01*
X134630952Y-148154761D01*
X134440476Y-148107142D01*
X134345238Y-148059523D01*
X134250000Y-147964285D01*
X134202380Y-147821428D01*
X134202380Y-147726190D01*
X134250000Y-147583333D01*
X134297619Y-147535714D01*
X134202380Y-146916666D02*
X134202380Y-146726190D01*
X134250000Y-146630952D01*
X134345238Y-146535714D01*
X134535714Y-146488095D01*
X134869047Y-146488095D01*
X135059523Y-146535714D01*
X135154761Y-146630952D01*
X135202380Y-146726190D01*
X135202380Y-146916666D01*
X135154761Y-147011904D01*
X135059523Y-147107142D01*
X134869047Y-147154761D01*
X134535714Y-147154761D01*
X134345238Y-147107142D01*
X134250000Y-147011904D01*
X134202380Y-146916666D01*
X135202380Y-146059523D02*
X134202380Y-146059523D01*
X134916666Y-145726190D01*
X134202380Y-145392857D01*
X135202380Y-145392857D01*
X142452380Y-146940476D02*
X142452380Y-147416666D01*
X142928571Y-147464285D01*
X142880952Y-147416666D01*
X142833333Y-147321428D01*
X142833333Y-147083333D01*
X142880952Y-146988095D01*
X142928571Y-146940476D01*
X143023809Y-146892857D01*
X143261904Y-146892857D01*
X143357142Y-146940476D01*
X143404761Y-146988095D01*
X143452380Y-147083333D01*
X143452380Y-147321428D01*
X143404761Y-147416666D01*
X143357142Y-147464285D01*
X142452380Y-146607142D02*
X143452380Y-146273809D01*
X142452380Y-145940476D01*
X108500000Y-151452380D02*
X109071428Y-151452380D01*
X108785714Y-152452380D02*
X108785714Y-151452380D01*
X109785714Y-152404761D02*
X109690476Y-152452380D01*
X109500000Y-152452380D01*
X109404761Y-152404761D01*
X109357142Y-152309523D01*
X109357142Y-151928571D01*
X109404761Y-151833333D01*
X109500000Y-151785714D01*
X109690476Y-151785714D01*
X109785714Y-151833333D01*
X109833333Y-151928571D01*
X109833333Y-152023809D01*
X109357142Y-152119047D01*
X110261904Y-152452380D02*
X110261904Y-151785714D01*
X110261904Y-151976190D02*
X110309523Y-151880952D01*
X110357142Y-151833333D01*
X110452380Y-151785714D01*
X110547619Y-151785714D01*
X110880952Y-152452380D02*
X110880952Y-151785714D01*
X110880952Y-151880952D02*
X110928571Y-151833333D01*
X111023809Y-151785714D01*
X111166666Y-151785714D01*
X111261904Y-151833333D01*
X111309523Y-151928571D01*
X111309523Y-152452380D01*
X111309523Y-151928571D02*
X111357142Y-151833333D01*
X111452380Y-151785714D01*
X111595238Y-151785714D01*
X111690476Y-151833333D01*
X111738095Y-151928571D01*
X111738095Y-152452380D01*
X112214285Y-152452380D02*
X112214285Y-151785714D01*
X112214285Y-151452380D02*
X112166666Y-151500000D01*
X112214285Y-151547619D01*
X112261904Y-151500000D01*
X112214285Y-151452380D01*
X112214285Y-151547619D01*
X112690476Y-151785714D02*
X112690476Y-152452380D01*
X112690476Y-151880952D02*
X112738095Y-151833333D01*
X112833333Y-151785714D01*
X112976190Y-151785714D01*
X113071428Y-151833333D01*
X113119047Y-151928571D01*
X113119047Y-152452380D01*
X114023809Y-152452380D02*
X114023809Y-151928571D01*
X113976190Y-151833333D01*
X113880952Y-151785714D01*
X113690476Y-151785714D01*
X113595238Y-151833333D01*
X114023809Y-152404761D02*
X113928571Y-152452380D01*
X113690476Y-152452380D01*
X113595238Y-152404761D01*
X113547619Y-152309523D01*
X113547619Y-152214285D01*
X113595238Y-152119047D01*
X113690476Y-152071428D01*
X113928571Y-152071428D01*
X114023809Y-152023809D01*
X114642857Y-152452380D02*
X114547619Y-152404761D01*
X114500000Y-152309523D01*
X114500000Y-151452380D01*
X114976190Y-152404761D02*
X115071428Y-152452380D01*
X115261904Y-152452380D01*
X115357142Y-152404761D01*
X115404761Y-152309523D01*
X115404761Y-152261904D01*
X115357142Y-152166666D01*
X115261904Y-152119047D01*
X115119047Y-152119047D01*
X115023809Y-152071428D01*
X114976190Y-151976190D01*
X114976190Y-151928571D01*
X115023809Y-151833333D01*
X115119047Y-151785714D01*
X115261904Y-151785714D01*
X115357142Y-151833333D01*
%TO.C,To Amiga*%
X114892857Y-165002380D02*
X115464285Y-165002380D01*
X115178571Y-166002380D02*
X115178571Y-165002380D01*
X115940476Y-166002380D02*
X115845238Y-165954761D01*
X115797619Y-165907142D01*
X115750000Y-165811904D01*
X115750000Y-165526190D01*
X115797619Y-165430952D01*
X115845238Y-165383333D01*
X115940476Y-165335714D01*
X116083333Y-165335714D01*
X116178571Y-165383333D01*
X116226190Y-165430952D01*
X116273809Y-165526190D01*
X116273809Y-165811904D01*
X116226190Y-165907142D01*
X116178571Y-165954761D01*
X116083333Y-166002380D01*
X115940476Y-166002380D01*
X117416666Y-165716666D02*
X117892857Y-165716666D01*
X117321428Y-166002380D02*
X117654761Y-165002380D01*
X117988095Y-166002380D01*
X118321428Y-166002380D02*
X118321428Y-165335714D01*
X118321428Y-165430952D02*
X118369047Y-165383333D01*
X118464285Y-165335714D01*
X118607142Y-165335714D01*
X118702380Y-165383333D01*
X118750000Y-165478571D01*
X118750000Y-166002380D01*
X118750000Y-165478571D02*
X118797619Y-165383333D01*
X118892857Y-165335714D01*
X119035714Y-165335714D01*
X119130952Y-165383333D01*
X119178571Y-165478571D01*
X119178571Y-166002380D01*
X119654761Y-166002380D02*
X119654761Y-165335714D01*
X119654761Y-165002380D02*
X119607142Y-165050000D01*
X119654761Y-165097619D01*
X119702380Y-165050000D01*
X119654761Y-165002380D01*
X119654761Y-165097619D01*
X120559523Y-165335714D02*
X120559523Y-166145238D01*
X120511904Y-166240476D01*
X120464285Y-166288095D01*
X120369047Y-166335714D01*
X120226190Y-166335714D01*
X120130952Y-166288095D01*
X120559523Y-165954761D02*
X120464285Y-166002380D01*
X120273809Y-166002380D01*
X120178571Y-165954761D01*
X120130952Y-165907142D01*
X120083333Y-165811904D01*
X120083333Y-165526190D01*
X120130952Y-165430952D01*
X120178571Y-165383333D01*
X120273809Y-165335714D01*
X120464285Y-165335714D01*
X120559523Y-165383333D01*
X121464285Y-166002380D02*
X121464285Y-165478571D01*
X121416666Y-165383333D01*
X121321428Y-165335714D01*
X121130952Y-165335714D01*
X121035714Y-165383333D01*
X121464285Y-165954761D02*
X121369047Y-166002380D01*
X121130952Y-166002380D01*
X121035714Y-165954761D01*
X120988095Y-165859523D01*
X120988095Y-165764285D01*
X121035714Y-165669047D01*
X121130952Y-165621428D01*
X121369047Y-165621428D01*
X121464285Y-165573809D01*
%TD*%
M02*
