%TF.GenerationSoftware,KiCad,Pcbnew,(5.1.6)-1*%
%TF.CreationDate,2020-08-16T12:36:38+01:00*%
%TF.ProjectId,KiKadAmigaMeanwell,4b694b61-6441-46d6-9967-614d65616e77,1.00*%
%TF.SameCoordinates,Original*%
%TF.FileFunction,Profile,NP*%
%FSLAX46Y46*%
G04 Gerber Fmt 4.6, Leading zero omitted, Abs format (unit mm)*
G04 Created by KiCad (PCBNEW (5.1.6)-1) date 2020-08-16 12:36:38*
%MOMM*%
%LPD*%
G01*
G04 APERTURE LIST*
%TA.AperFunction,Profile*%
%ADD10C,0.100000*%
%TD*%
G04 APERTURE END LIST*
D10*
X155000000Y-47000000D02*
X152500000Y-44500000D01*
X167500000Y-47000000D02*
X155000000Y-47000000D01*
X152500000Y-44500000D02*
X152500000Y-33250000D01*
X99500000Y-47500000D02*
X97500000Y-45500000D01*
X108900000Y-47500000D02*
X99500000Y-47500000D01*
X110900000Y-45500000D02*
X108900000Y-47500000D01*
X110900000Y-33250000D02*
X110900000Y-45500000D01*
X68700000Y-33250000D02*
X97500000Y-33250000D01*
X97500000Y-45500000D02*
X97500000Y-33250000D01*
X112100000Y-181750000D02*
X112100000Y-170400000D01*
X154000000Y-181750000D02*
X112100000Y-181750000D01*
X154000000Y-169750000D02*
X154000000Y-181750000D01*
X156250000Y-167750000D02*
X154000000Y-169750000D01*
X167500000Y-167750000D02*
X156250000Y-167750000D01*
X167500000Y-47000000D02*
X167500000Y-167750000D01*
X110900000Y-33250000D02*
X152500000Y-33250000D01*
X68700000Y-181750000D02*
X68700000Y-33250000D01*
X97500000Y-181750000D02*
X68700000Y-181750000D01*
X97500000Y-170400000D02*
X97500000Y-181750000D01*
X99500000Y-168400000D02*
X97500000Y-170400000D01*
X110100000Y-168400000D02*
X99500000Y-168400000D01*
X112100000Y-170400000D02*
X110100000Y-168400000D01*
M02*
