%TF.GenerationSoftware,KiCad,Pcbnew,(5.1.6)-1*%
%TF.CreationDate,2020-08-16T12:36:38+01:00*%
%TF.ProjectId,KiKadAmigaMeanwell,4b694b61-6441-46d6-9967-614d65616e77,1.00*%
%TF.SameCoordinates,Original*%
%TF.FileFunction,Soldermask,Bot*%
%TF.FilePolarity,Negative*%
%FSLAX46Y46*%
G04 Gerber Fmt 4.6, Leading zero omitted, Abs format (unit mm)*
G04 Created by KiCad (PCBNEW (5.1.6)-1) date 2020-08-16 12:36:38*
%MOMM*%
%LPD*%
G01*
G04 APERTURE LIST*
%ADD10O,1.840000X2.290000*%
%ADD11C,6.400000*%
%ADD12C,4.100000*%
G04 APERTURE END LIST*
D10*
%TO.C,5VFan2*%
X144040000Y-46600000D03*
G36*
G01*
X140580000Y-47480633D02*
X140580000Y-45719367D01*
G75*
G02*
X140844367Y-45455000I264367J0D01*
G01*
X142155633Y-45455000D01*
G75*
G02*
X142420000Y-45719367I0J-264367D01*
G01*
X142420000Y-47480633D01*
G75*
G02*
X142155633Y-47745000I-264367J0D01*
G01*
X140844367Y-47745000D01*
G75*
G02*
X140580000Y-47480633I0J264367D01*
G01*
G37*
%TD*%
%TO.C,FromMeanwell1*%
X111940000Y-161600000D03*
X114480000Y-161600000D03*
X117020000Y-161600000D03*
X119560000Y-161600000D03*
G36*
G01*
X123020000Y-160719367D02*
X123020000Y-162480633D01*
G75*
G02*
X122755633Y-162745000I-264367J0D01*
G01*
X121444367Y-162745000D01*
G75*
G02*
X121180000Y-162480633I0J264367D01*
G01*
X121180000Y-160719367D01*
G75*
G02*
X121444367Y-160455000I264367J0D01*
G01*
X122755633Y-160455000D01*
G75*
G02*
X123020000Y-160719367I0J-264367D01*
G01*
G37*
%TD*%
%TO.C,ToAmiga1*%
X127560000Y-45300000D03*
X125020000Y-45300000D03*
X122480000Y-45300000D03*
X119940000Y-45300000D03*
G36*
G01*
X116480000Y-46180633D02*
X116480000Y-44419367D01*
G75*
G02*
X116744367Y-44155000I264367J0D01*
G01*
X118055633Y-44155000D01*
G75*
G02*
X118320000Y-44419367I0J-264367D01*
G01*
X118320000Y-46180633D01*
G75*
G02*
X118055633Y-46445000I-264367J0D01*
G01*
X116744367Y-46445000D01*
G75*
G02*
X116480000Y-46180633I0J264367D01*
G01*
G37*
%TD*%
%TO.C,5VFan1*%
X158940000Y-161700000D03*
G36*
G01*
X155480000Y-162580633D02*
X155480000Y-160819367D01*
G75*
G02*
X155744367Y-160555000I264367J0D01*
G01*
X157055633Y-160555000D01*
G75*
G02*
X157320000Y-160819367I0J-264367D01*
G01*
X157320000Y-162580633D01*
G75*
G02*
X157055633Y-162845000I-264367J0D01*
G01*
X155744367Y-162845000D01*
G75*
G02*
X155480000Y-162580633I0J264367D01*
G01*
G37*
%TD*%
%TO.C,12VFan1*%
X79740000Y-42600000D03*
G36*
G01*
X76280000Y-43480633D02*
X76280000Y-41719367D01*
G75*
G02*
X76544367Y-41455000I264367J0D01*
G01*
X77855633Y-41455000D01*
G75*
G02*
X78120000Y-41719367I0J-264367D01*
G01*
X78120000Y-43480633D01*
G75*
G02*
X77855633Y-43745000I-264367J0D01*
G01*
X76544367Y-43745000D01*
G75*
G02*
X76280000Y-43480633I0J264367D01*
G01*
G37*
%TD*%
D11*
%TO.C,Meanwell RT-50B*%
X121000000Y-78000000D03*
X121000000Y-133000000D03*
%TD*%
D12*
%TO.C,Screw*%
X94250000Y-37250000D03*
%TD*%
%TO.C,Screw*%
X144750000Y-38250000D03*
%TD*%
%TO.C,Screw*%
X144500000Y-175500000D03*
%TD*%
%TO.C,Screw*%
X76000000Y-175500000D03*
%TD*%
M02*
