%TF.GenerationSoftware,KiCad,Pcbnew,(5.1.6)-1*%
%TF.CreationDate,2020-08-16T12:36:38+01:00*%
%TF.ProjectId,KiKadAmigaMeanwell,4b694b61-6441-46d6-9967-614d65616e77,1.00*%
%TF.SameCoordinates,Original*%
%TF.FileFunction,Legend,Top*%
%TF.FilePolarity,Positive*%
%FSLAX46Y46*%
G04 Gerber Fmt 4.6, Leading zero omitted, Abs format (unit mm)*
G04 Created by KiCad (PCBNEW (5.1.6)-1) date 2020-08-16 12:36:38*
%MOMM*%
%LPD*%
G01*
G04 APERTURE LIST*
%ADD10C,0.150000*%
%ADD11C,0.300000*%
%ADD12C,0.120000*%
G04 APERTURE END LIST*
D10*
X127571428Y-52485714D02*
X127571428Y-51723809D01*
X127952380Y-52104761D02*
X127190476Y-52104761D01*
X126952380Y-50771428D02*
X126952380Y-51247619D01*
X127428571Y-51295238D01*
X127380952Y-51247619D01*
X127333333Y-51152380D01*
X127333333Y-50914285D01*
X127380952Y-50819047D01*
X127428571Y-50771428D01*
X127523809Y-50723809D01*
X127761904Y-50723809D01*
X127857142Y-50771428D01*
X127904761Y-50819047D01*
X127952380Y-50914285D01*
X127952380Y-51152380D01*
X127904761Y-51247619D01*
X127857142Y-51295238D01*
X126952380Y-50438095D02*
X127952380Y-50104761D01*
X126952380Y-49771428D01*
X124500000Y-51842857D02*
X124452380Y-51938095D01*
X124452380Y-52080952D01*
X124500000Y-52223809D01*
X124595238Y-52319047D01*
X124690476Y-52366666D01*
X124880952Y-52414285D01*
X125023809Y-52414285D01*
X125214285Y-52366666D01*
X125309523Y-52319047D01*
X125404761Y-52223809D01*
X125452380Y-52080952D01*
X125452380Y-51985714D01*
X125404761Y-51842857D01*
X125357142Y-51795238D01*
X125023809Y-51795238D01*
X125023809Y-51985714D01*
X124785714Y-51366666D02*
X125452380Y-51366666D01*
X124880952Y-51366666D02*
X124833333Y-51319047D01*
X124785714Y-51223809D01*
X124785714Y-51080952D01*
X124833333Y-50985714D01*
X124928571Y-50938095D01*
X125452380Y-50938095D01*
X125452380Y-50033333D02*
X124452380Y-50033333D01*
X125404761Y-50033333D02*
X125452380Y-50128571D01*
X125452380Y-50319047D01*
X125404761Y-50414285D01*
X125357142Y-50461904D01*
X125261904Y-50509523D01*
X124976190Y-50509523D01*
X124880952Y-50461904D01*
X124833333Y-50414285D01*
X124785714Y-50319047D01*
X124785714Y-50128571D01*
X124833333Y-50033333D01*
X122571428Y-52961904D02*
X122571428Y-52200000D01*
X122952380Y-52580952D02*
X122190476Y-52580952D01*
X122952380Y-51200000D02*
X122952380Y-51771428D01*
X122952380Y-51485714D02*
X121952380Y-51485714D01*
X122095238Y-51580952D01*
X122190476Y-51676190D01*
X122238095Y-51771428D01*
X122047619Y-50819047D02*
X122000000Y-50771428D01*
X121952380Y-50676190D01*
X121952380Y-50438095D01*
X122000000Y-50342857D01*
X122047619Y-50295238D01*
X122142857Y-50247619D01*
X122238095Y-50247619D01*
X122380952Y-50295238D01*
X122952380Y-50866666D01*
X122952380Y-50247619D01*
X121952380Y-49961904D02*
X122952380Y-49628571D01*
X121952380Y-49295238D01*
X120071428Y-52861904D02*
X120071428Y-52100000D01*
X120452380Y-51100000D02*
X120452380Y-51671428D01*
X120452380Y-51385714D02*
X119452380Y-51385714D01*
X119595238Y-51480952D01*
X119690476Y-51576190D01*
X119738095Y-51671428D01*
X119547619Y-50719047D02*
X119500000Y-50671428D01*
X119452380Y-50576190D01*
X119452380Y-50338095D01*
X119500000Y-50242857D01*
X119547619Y-50195238D01*
X119642857Y-50147619D01*
X119738095Y-50147619D01*
X119880952Y-50195238D01*
X120452380Y-50766666D01*
X120452380Y-50147619D01*
X119452380Y-49861904D02*
X120452380Y-49528571D01*
X119452380Y-49195238D01*
X117704761Y-53219047D02*
X117752380Y-53076190D01*
X117752380Y-52838095D01*
X117704761Y-52742857D01*
X117657142Y-52695238D01*
X117561904Y-52647619D01*
X117466666Y-52647619D01*
X117371428Y-52695238D01*
X117323809Y-52742857D01*
X117276190Y-52838095D01*
X117228571Y-53028571D01*
X117180952Y-53123809D01*
X117133333Y-53171428D01*
X117038095Y-53219047D01*
X116942857Y-53219047D01*
X116847619Y-53171428D01*
X116800000Y-53123809D01*
X116752380Y-53028571D01*
X116752380Y-52790476D01*
X116800000Y-52647619D01*
X117752380Y-52219047D02*
X116752380Y-52219047D01*
X117752380Y-51790476D02*
X117228571Y-51790476D01*
X117133333Y-51838095D01*
X117085714Y-51933333D01*
X117085714Y-52076190D01*
X117133333Y-52171428D01*
X117180952Y-52219047D01*
X117752380Y-51314285D02*
X117085714Y-51314285D01*
X116752380Y-51314285D02*
X116800000Y-51361904D01*
X116847619Y-51314285D01*
X116800000Y-51266666D01*
X116752380Y-51314285D01*
X116847619Y-51314285D01*
X117704761Y-50457142D02*
X117752380Y-50552380D01*
X117752380Y-50742857D01*
X117704761Y-50838095D01*
X117609523Y-50885714D01*
X117228571Y-50885714D01*
X117133333Y-50838095D01*
X117085714Y-50742857D01*
X117085714Y-50552380D01*
X117133333Y-50457142D01*
X117228571Y-50409523D01*
X117323809Y-50409523D01*
X117419047Y-50885714D01*
X117752380Y-49838095D02*
X117704761Y-49933333D01*
X117609523Y-49980952D01*
X116752380Y-49980952D01*
X117752380Y-49028571D02*
X116752380Y-49028571D01*
X117704761Y-49028571D02*
X117752380Y-49123809D01*
X117752380Y-49314285D01*
X117704761Y-49409523D01*
X117657142Y-49457142D01*
X117561904Y-49504761D01*
X117276190Y-49504761D01*
X117180952Y-49457142D01*
X117133333Y-49409523D01*
X117085714Y-49314285D01*
X117085714Y-49123809D01*
X117133333Y-49028571D01*
X74552380Y-46871428D02*
X75314285Y-46871428D01*
X74933333Y-47252380D02*
X74933333Y-46490476D01*
X76314285Y-47252380D02*
X75742857Y-47252380D01*
X76028571Y-47252380D02*
X76028571Y-46252380D01*
X75933333Y-46395238D01*
X75838095Y-46490476D01*
X75742857Y-46538095D01*
X76695238Y-46347619D02*
X76742857Y-46300000D01*
X76838095Y-46252380D01*
X77076190Y-46252380D01*
X77171428Y-46300000D01*
X77219047Y-46347619D01*
X77266666Y-46442857D01*
X77266666Y-46538095D01*
X77219047Y-46680952D01*
X76647619Y-47252380D01*
X77266666Y-47252380D01*
X77552380Y-46252380D02*
X77885714Y-47252380D01*
X78219047Y-46252380D01*
X79838095Y-46300000D02*
X79742857Y-46252380D01*
X79600000Y-46252380D01*
X79457142Y-46300000D01*
X79361904Y-46395238D01*
X79314285Y-46490476D01*
X79266666Y-46680952D01*
X79266666Y-46823809D01*
X79314285Y-47014285D01*
X79361904Y-47109523D01*
X79457142Y-47204761D01*
X79600000Y-47252380D01*
X79695238Y-47252380D01*
X79838095Y-47204761D01*
X79885714Y-47157142D01*
X79885714Y-46823809D01*
X79695238Y-46823809D01*
X80314285Y-46585714D02*
X80314285Y-47252380D01*
X80314285Y-46680952D02*
X80361904Y-46633333D01*
X80457142Y-46585714D01*
X80600000Y-46585714D01*
X80695238Y-46633333D01*
X80742857Y-46728571D01*
X80742857Y-47252380D01*
X81647619Y-47252380D02*
X81647619Y-46252380D01*
X81647619Y-47204761D02*
X81552380Y-47252380D01*
X81361904Y-47252380D01*
X81266666Y-47204761D01*
X81219047Y-47157142D01*
X81171428Y-47061904D01*
X81171428Y-46776190D01*
X81219047Y-46680952D01*
X81266666Y-46633333D01*
X81361904Y-46585714D01*
X81552380Y-46585714D01*
X81647619Y-46633333D01*
X154328571Y-165971428D02*
X155090476Y-165971428D01*
X154709523Y-166352380D02*
X154709523Y-165590476D01*
X156042857Y-165352380D02*
X155566666Y-165352380D01*
X155519047Y-165828571D01*
X155566666Y-165780952D01*
X155661904Y-165733333D01*
X155900000Y-165733333D01*
X155995238Y-165780952D01*
X156042857Y-165828571D01*
X156090476Y-165923809D01*
X156090476Y-166161904D01*
X156042857Y-166257142D01*
X155995238Y-166304761D01*
X155900000Y-166352380D01*
X155661904Y-166352380D01*
X155566666Y-166304761D01*
X155519047Y-166257142D01*
X156376190Y-165352380D02*
X156709523Y-166352380D01*
X157042857Y-165352380D01*
X158661904Y-165400000D02*
X158566666Y-165352380D01*
X158423809Y-165352380D01*
X158280952Y-165400000D01*
X158185714Y-165495238D01*
X158138095Y-165590476D01*
X158090476Y-165780952D01*
X158090476Y-165923809D01*
X158138095Y-166114285D01*
X158185714Y-166209523D01*
X158280952Y-166304761D01*
X158423809Y-166352380D01*
X158519047Y-166352380D01*
X158661904Y-166304761D01*
X158709523Y-166257142D01*
X158709523Y-165923809D01*
X158519047Y-165923809D01*
X159138095Y-165685714D02*
X159138095Y-166352380D01*
X159138095Y-165780952D02*
X159185714Y-165733333D01*
X159280952Y-165685714D01*
X159423809Y-165685714D01*
X159519047Y-165733333D01*
X159566666Y-165828571D01*
X159566666Y-166352380D01*
X160471428Y-166352380D02*
X160471428Y-165352380D01*
X160471428Y-166304761D02*
X160376190Y-166352380D01*
X160185714Y-166352380D01*
X160090476Y-166304761D01*
X160042857Y-166257142D01*
X159995238Y-166161904D01*
X159995238Y-165876190D01*
X160042857Y-165780952D01*
X160090476Y-165733333D01*
X160185714Y-165685714D01*
X160376190Y-165685714D01*
X160471428Y-165733333D01*
X139228571Y-50771428D02*
X139990476Y-50771428D01*
X139609523Y-51152380D02*
X139609523Y-50390476D01*
X140942857Y-50152380D02*
X140466666Y-50152380D01*
X140419047Y-50628571D01*
X140466666Y-50580952D01*
X140561904Y-50533333D01*
X140800000Y-50533333D01*
X140895238Y-50580952D01*
X140942857Y-50628571D01*
X140990476Y-50723809D01*
X140990476Y-50961904D01*
X140942857Y-51057142D01*
X140895238Y-51104761D01*
X140800000Y-51152380D01*
X140561904Y-51152380D01*
X140466666Y-51104761D01*
X140419047Y-51057142D01*
X141276190Y-50152380D02*
X141609523Y-51152380D01*
X141942857Y-50152380D01*
X143561904Y-50200000D02*
X143466666Y-50152380D01*
X143323809Y-50152380D01*
X143180952Y-50200000D01*
X143085714Y-50295238D01*
X143038095Y-50390476D01*
X142990476Y-50580952D01*
X142990476Y-50723809D01*
X143038095Y-50914285D01*
X143085714Y-51009523D01*
X143180952Y-51104761D01*
X143323809Y-51152380D01*
X143419047Y-51152380D01*
X143561904Y-51104761D01*
X143609523Y-51057142D01*
X143609523Y-50723809D01*
X143419047Y-50723809D01*
X144038095Y-50485714D02*
X144038095Y-51152380D01*
X144038095Y-50580952D02*
X144085714Y-50533333D01*
X144180952Y-50485714D01*
X144323809Y-50485714D01*
X144419047Y-50533333D01*
X144466666Y-50628571D01*
X144466666Y-51152380D01*
X145371428Y-51152380D02*
X145371428Y-50152380D01*
X145371428Y-51104761D02*
X145276190Y-51152380D01*
X145085714Y-51152380D01*
X144990476Y-51104761D01*
X144942857Y-51057142D01*
X144895238Y-50961904D01*
X144895238Y-50676190D01*
X144942857Y-50580952D01*
X144990476Y-50533333D01*
X145085714Y-50485714D01*
X145276190Y-50485714D01*
X145371428Y-50533333D01*
X119857142Y-157228571D02*
X119904761Y-157266666D01*
X119952380Y-157380952D01*
X119952380Y-157457142D01*
X119904761Y-157571428D01*
X119809523Y-157647619D01*
X119714285Y-157685714D01*
X119523809Y-157723809D01*
X119380952Y-157723809D01*
X119190476Y-157685714D01*
X119095238Y-157647619D01*
X119000000Y-157571428D01*
X118952380Y-157457142D01*
X118952380Y-157380952D01*
X119000000Y-157266666D01*
X119047619Y-157228571D01*
X118952380Y-156733333D02*
X118952380Y-156580952D01*
X119000000Y-156504761D01*
X119095238Y-156428571D01*
X119285714Y-156390476D01*
X119619047Y-156390476D01*
X119809523Y-156428571D01*
X119904761Y-156504761D01*
X119952380Y-156580952D01*
X119952380Y-156733333D01*
X119904761Y-156809523D01*
X119809523Y-156885714D01*
X119619047Y-156923809D01*
X119285714Y-156923809D01*
X119095238Y-156885714D01*
X119000000Y-156809523D01*
X118952380Y-156733333D01*
X119952380Y-156047619D02*
X118952380Y-156047619D01*
X119666666Y-155780952D01*
X118952380Y-155514285D01*
X119952380Y-155514285D01*
X111371428Y-157002380D02*
X111371428Y-156002380D01*
X111828571Y-157002380D01*
X111828571Y-156002380D01*
X112666666Y-156907142D02*
X112628571Y-156954761D01*
X112514285Y-157002380D01*
X112438095Y-157002380D01*
X112323809Y-156954761D01*
X112247619Y-156859523D01*
X112209523Y-156764285D01*
X112171428Y-156573809D01*
X112171428Y-156430952D01*
X112209523Y-156240476D01*
X112247619Y-156145238D01*
X112323809Y-156050000D01*
X112438095Y-156002380D01*
X112514285Y-156002380D01*
X112628571Y-156050000D01*
X112666666Y-156097619D01*
X73264166Y-166035714D02*
X73264166Y-166845238D01*
X73216547Y-166940476D01*
X73168928Y-166988095D01*
X73073690Y-167035714D01*
X72930833Y-167035714D01*
X72835595Y-166988095D01*
X73264166Y-166654761D02*
X73168928Y-166702380D01*
X72978452Y-166702380D01*
X72883214Y-166654761D01*
X72835595Y-166607142D01*
X72787976Y-166511904D01*
X72787976Y-166226190D01*
X72835595Y-166130952D01*
X72883214Y-166083333D01*
X72978452Y-166035714D01*
X73168928Y-166035714D01*
X73264166Y-166083333D01*
X73740357Y-166702380D02*
X73740357Y-166035714D01*
X73740357Y-165702380D02*
X73692738Y-165750000D01*
X73740357Y-165797619D01*
X73787976Y-165750000D01*
X73740357Y-165702380D01*
X73740357Y-165797619D01*
X74073690Y-166035714D02*
X74454642Y-166035714D01*
X74216547Y-165702380D02*
X74216547Y-166559523D01*
X74264166Y-166654761D01*
X74359404Y-166702380D01*
X74454642Y-166702380D01*
X74787976Y-166702380D02*
X74787976Y-165702380D01*
X75216547Y-166702380D02*
X75216547Y-166178571D01*
X75168928Y-166083333D01*
X75073690Y-166035714D01*
X74930833Y-166035714D01*
X74835595Y-166083333D01*
X74787976Y-166130952D01*
X76121309Y-166035714D02*
X76121309Y-166702380D01*
X75692738Y-166035714D02*
X75692738Y-166559523D01*
X75740357Y-166654761D01*
X75835595Y-166702380D01*
X75978452Y-166702380D01*
X76073690Y-166654761D01*
X76121309Y-166607142D01*
X76597500Y-166702380D02*
X76597500Y-165702380D01*
X76597500Y-166083333D02*
X76692738Y-166035714D01*
X76883214Y-166035714D01*
X76978452Y-166083333D01*
X77026071Y-166130952D01*
X77073690Y-166226190D01*
X77073690Y-166511904D01*
X77026071Y-166607142D01*
X76978452Y-166654761D01*
X76883214Y-166702380D01*
X76692738Y-166702380D01*
X76597500Y-166654761D01*
X77502261Y-166607142D02*
X77549880Y-166654761D01*
X77502261Y-166702380D01*
X77454642Y-166654761D01*
X77502261Y-166607142D01*
X77502261Y-166702380D01*
X78407023Y-166654761D02*
X78311785Y-166702380D01*
X78121309Y-166702380D01*
X78026071Y-166654761D01*
X77978452Y-166607142D01*
X77930833Y-166511904D01*
X77930833Y-166226190D01*
X77978452Y-166130952D01*
X78026071Y-166083333D01*
X78121309Y-166035714D01*
X78311785Y-166035714D01*
X78407023Y-166083333D01*
X78978452Y-166702380D02*
X78883214Y-166654761D01*
X78835595Y-166607142D01*
X78787976Y-166511904D01*
X78787976Y-166226190D01*
X78835595Y-166130952D01*
X78883214Y-166083333D01*
X78978452Y-166035714D01*
X79121309Y-166035714D01*
X79216547Y-166083333D01*
X79264166Y-166130952D01*
X79311785Y-166226190D01*
X79311785Y-166511904D01*
X79264166Y-166607142D01*
X79216547Y-166654761D01*
X79121309Y-166702380D01*
X78978452Y-166702380D01*
X79740357Y-166702380D02*
X79740357Y-166035714D01*
X79740357Y-166130952D02*
X79787976Y-166083333D01*
X79883214Y-166035714D01*
X80026071Y-166035714D01*
X80121309Y-166083333D01*
X80168928Y-166178571D01*
X80168928Y-166702380D01*
X80168928Y-166178571D02*
X80216547Y-166083333D01*
X80311785Y-166035714D01*
X80454642Y-166035714D01*
X80549880Y-166083333D01*
X80597500Y-166178571D01*
X80597500Y-166702380D01*
X81787976Y-165654761D02*
X80930833Y-166940476D01*
X82549880Y-166702380D02*
X82549880Y-165702380D01*
X82549880Y-166654761D02*
X82454642Y-166702380D01*
X82264166Y-166702380D01*
X82168928Y-166654761D01*
X82121309Y-166607142D01*
X82073690Y-166511904D01*
X82073690Y-166226190D01*
X82121309Y-166130952D01*
X82168928Y-166083333D01*
X82264166Y-166035714D01*
X82454642Y-166035714D01*
X82549880Y-166083333D01*
X83454642Y-166702380D02*
X83454642Y-166178571D01*
X83407023Y-166083333D01*
X83311785Y-166035714D01*
X83121309Y-166035714D01*
X83026071Y-166083333D01*
X83454642Y-166654761D02*
X83359404Y-166702380D01*
X83121309Y-166702380D01*
X83026071Y-166654761D01*
X82978452Y-166559523D01*
X82978452Y-166464285D01*
X83026071Y-166369047D01*
X83121309Y-166321428D01*
X83359404Y-166321428D01*
X83454642Y-166273809D01*
X83835595Y-166035714D02*
X84073690Y-166702380D01*
X84311785Y-166035714D01*
X85073690Y-166654761D02*
X84978452Y-166702380D01*
X84787976Y-166702380D01*
X84692738Y-166654761D01*
X84645119Y-166559523D01*
X84645119Y-166178571D01*
X84692738Y-166083333D01*
X84787976Y-166035714D01*
X84978452Y-166035714D01*
X85073690Y-166083333D01*
X85121309Y-166178571D01*
X85121309Y-166273809D01*
X84645119Y-166369047D01*
X85549880Y-166035714D02*
X85549880Y-167035714D01*
X85549880Y-166083333D02*
X85645119Y-166035714D01*
X85835595Y-166035714D01*
X85930833Y-166083333D01*
X85978452Y-166130952D01*
X86026071Y-166226190D01*
X86026071Y-166511904D01*
X85978452Y-166607142D01*
X85930833Y-166654761D01*
X85835595Y-166702380D01*
X85645119Y-166702380D01*
X85549880Y-166654761D01*
X86597500Y-166702380D02*
X86502261Y-166654761D01*
X86454642Y-166607142D01*
X86407023Y-166511904D01*
X86407023Y-166226190D01*
X86454642Y-166130952D01*
X86502261Y-166083333D01*
X86597500Y-166035714D01*
X86740357Y-166035714D01*
X86835595Y-166083333D01*
X86883214Y-166130952D01*
X86930833Y-166226190D01*
X86930833Y-166511904D01*
X86883214Y-166607142D01*
X86835595Y-166654761D01*
X86740357Y-166702380D01*
X86597500Y-166702380D01*
X87502261Y-166702380D02*
X87407023Y-166654761D01*
X87359404Y-166607142D01*
X87311785Y-166511904D01*
X87311785Y-166226190D01*
X87359404Y-166130952D01*
X87407023Y-166083333D01*
X87502261Y-166035714D01*
X87645119Y-166035714D01*
X87740357Y-166083333D01*
X87787976Y-166130952D01*
X87835595Y-166226190D01*
X87835595Y-166511904D01*
X87787976Y-166607142D01*
X87740357Y-166654761D01*
X87645119Y-166702380D01*
X87502261Y-166702380D01*
X88978452Y-165654761D02*
X88121309Y-166940476D01*
X89264166Y-166416666D02*
X89740357Y-166416666D01*
X89168928Y-166702380D02*
X89502261Y-165702380D01*
X89835595Y-166702380D01*
X90168928Y-166702380D02*
X90168928Y-166035714D01*
X90168928Y-166130952D02*
X90216547Y-166083333D01*
X90311785Y-166035714D01*
X90454642Y-166035714D01*
X90549880Y-166083333D01*
X90597500Y-166178571D01*
X90597500Y-166702380D01*
X90597500Y-166178571D02*
X90645119Y-166083333D01*
X90740357Y-166035714D01*
X90883214Y-166035714D01*
X90978452Y-166083333D01*
X91026071Y-166178571D01*
X91026071Y-166702380D01*
X91502261Y-166702380D02*
X91502261Y-166035714D01*
X91502261Y-165702380D02*
X91454642Y-165750000D01*
X91502261Y-165797619D01*
X91549880Y-165750000D01*
X91502261Y-165702380D01*
X91502261Y-165797619D01*
X92407023Y-166035714D02*
X92407023Y-166845238D01*
X92359404Y-166940476D01*
X92311785Y-166988095D01*
X92216547Y-167035714D01*
X92073690Y-167035714D01*
X91978452Y-166988095D01*
X92407023Y-166654761D02*
X92311785Y-166702380D01*
X92121309Y-166702380D01*
X92026071Y-166654761D01*
X91978452Y-166607142D01*
X91930833Y-166511904D01*
X91930833Y-166226190D01*
X91978452Y-166130952D01*
X92026071Y-166083333D01*
X92121309Y-166035714D01*
X92311785Y-166035714D01*
X92407023Y-166083333D01*
X93311785Y-166702380D02*
X93311785Y-166178571D01*
X93264166Y-166083333D01*
X93168928Y-166035714D01*
X92978452Y-166035714D01*
X92883214Y-166083333D01*
X93311785Y-166654761D02*
X93216547Y-166702380D01*
X92978452Y-166702380D01*
X92883214Y-166654761D01*
X92835595Y-166559523D01*
X92835595Y-166464285D01*
X92883214Y-166369047D01*
X92978452Y-166321428D01*
X93216547Y-166321428D01*
X93311785Y-166273809D01*
X93787976Y-166702380D02*
X93787976Y-165702380D01*
X94168928Y-165702380D01*
X94264166Y-165750000D01*
X94311785Y-165797619D01*
X94359404Y-165892857D01*
X94359404Y-166035714D01*
X94311785Y-166130952D01*
X94264166Y-166178571D01*
X94168928Y-166226190D01*
X93787976Y-166226190D01*
X94740357Y-166654761D02*
X94883214Y-166702380D01*
X95121309Y-166702380D01*
X95216547Y-166654761D01*
X95264166Y-166607142D01*
X95311785Y-166511904D01*
X95311785Y-166416666D01*
X95264166Y-166321428D01*
X95216547Y-166273809D01*
X95121309Y-166226190D01*
X94930833Y-166178571D01*
X94835595Y-166130952D01*
X94787976Y-166083333D01*
X94740357Y-165988095D01*
X94740357Y-165892857D01*
X94787976Y-165797619D01*
X94835595Y-165750000D01*
X94930833Y-165702380D01*
X95168928Y-165702380D01*
X95311785Y-165750000D01*
X95740357Y-165702380D02*
X95740357Y-166511904D01*
X95787976Y-166607142D01*
X95835595Y-166654761D01*
X95930833Y-166702380D01*
X96121309Y-166702380D01*
X96216547Y-166654761D01*
X96264166Y-166607142D01*
X96311785Y-166511904D01*
X96311785Y-165702380D01*
X96645119Y-165702380D02*
X97216547Y-165702380D01*
X96930833Y-166702380D02*
X96930833Y-165702380D01*
X97692738Y-166702380D02*
X97597500Y-166654761D01*
X97549880Y-166607142D01*
X97502261Y-166511904D01*
X97502261Y-166226190D01*
X97549880Y-166130952D01*
X97597500Y-166083333D01*
X97692738Y-166035714D01*
X97835595Y-166035714D01*
X97930833Y-166083333D01*
X97978452Y-166130952D01*
X98026071Y-166226190D01*
X98026071Y-166511904D01*
X97978452Y-166607142D01*
X97930833Y-166654761D01*
X97835595Y-166702380D01*
X97692738Y-166702380D01*
X98454642Y-166702380D02*
X98454642Y-165702380D01*
X98787976Y-166416666D01*
X99121309Y-165702380D01*
X99121309Y-166702380D01*
X99978452Y-166654761D02*
X99883214Y-166702380D01*
X99692738Y-166702380D01*
X99597499Y-166654761D01*
X99549880Y-166559523D01*
X99549880Y-166178571D01*
X99597499Y-166083333D01*
X99692738Y-166035714D01*
X99883214Y-166035714D01*
X99978452Y-166083333D01*
X100026071Y-166178571D01*
X100026071Y-166273809D01*
X99549880Y-166369047D01*
X100883214Y-166702380D02*
X100883214Y-166178571D01*
X100835595Y-166083333D01*
X100740357Y-166035714D01*
X100549880Y-166035714D01*
X100454642Y-166083333D01*
X100883214Y-166654761D02*
X100787976Y-166702380D01*
X100549880Y-166702380D01*
X100454642Y-166654761D01*
X100407023Y-166559523D01*
X100407023Y-166464285D01*
X100454642Y-166369047D01*
X100549880Y-166321428D01*
X100787976Y-166321428D01*
X100883214Y-166273809D01*
X101359404Y-166035714D02*
X101359404Y-166702380D01*
X101359404Y-166130952D02*
X101407023Y-166083333D01*
X101502261Y-166035714D01*
X101645119Y-166035714D01*
X101740357Y-166083333D01*
X101787976Y-166178571D01*
X101787976Y-166702380D01*
X102168928Y-166035714D02*
X102359404Y-166702380D01*
X102549880Y-166226190D01*
X102740357Y-166702380D01*
X102930833Y-166035714D01*
X103692738Y-166654761D02*
X103597499Y-166702380D01*
X103407023Y-166702380D01*
X103311785Y-166654761D01*
X103264166Y-166559523D01*
X103264166Y-166178571D01*
X103311785Y-166083333D01*
X103407023Y-166035714D01*
X103597499Y-166035714D01*
X103692738Y-166083333D01*
X103740357Y-166178571D01*
X103740357Y-166273809D01*
X103264166Y-166369047D01*
X104311785Y-166702380D02*
X104216547Y-166654761D01*
X104168928Y-166559523D01*
X104168928Y-165702380D01*
X104835595Y-166702380D02*
X104740357Y-166654761D01*
X104692738Y-166559523D01*
X104692738Y-165702380D01*
X116821428Y-104583333D02*
X116773809Y-104535714D01*
X116678571Y-104392857D01*
X116630952Y-104297619D01*
X116583333Y-104154761D01*
X116535714Y-103916666D01*
X116535714Y-103726190D01*
X116583333Y-103488095D01*
X116630952Y-103345238D01*
X116678571Y-103250000D01*
X116773809Y-103107142D01*
X116821428Y-103059523D01*
X117059523Y-103202380D02*
X117630952Y-103202380D01*
X117345238Y-104202380D02*
X117345238Y-103202380D01*
X118107142Y-104202380D02*
X118011904Y-104154761D01*
X117964285Y-104107142D01*
X117916666Y-104011904D01*
X117916666Y-103726190D01*
X117964285Y-103630952D01*
X118011904Y-103583333D01*
X118107142Y-103535714D01*
X118250000Y-103535714D01*
X118345238Y-103583333D01*
X118392857Y-103630952D01*
X118440476Y-103726190D01*
X118440476Y-104011904D01*
X118392857Y-104107142D01*
X118345238Y-104154761D01*
X118250000Y-104202380D01*
X118107142Y-104202380D01*
X118869047Y-103535714D02*
X118869047Y-104535714D01*
X118869047Y-103583333D02*
X118964285Y-103535714D01*
X119154761Y-103535714D01*
X119250000Y-103583333D01*
X119297619Y-103630952D01*
X119345238Y-103726190D01*
X119345238Y-104011904D01*
X119297619Y-104107142D01*
X119250000Y-104154761D01*
X119154761Y-104202380D01*
X118964285Y-104202380D01*
X118869047Y-104154761D01*
X119678571Y-104583333D02*
X119726190Y-104535714D01*
X119821428Y-104392857D01*
X119869047Y-104297619D01*
X119916666Y-104154761D01*
X119964285Y-103916666D01*
X119964285Y-103726190D01*
X119916666Y-103488095D01*
X119869047Y-103345238D01*
X119821428Y-103250000D01*
X119726190Y-103107142D01*
X119678571Y-103059523D01*
D11*
X73409285Y-86778571D02*
X72909285Y-86064285D01*
X72552142Y-86778571D02*
X72552142Y-85278571D01*
X73123571Y-85278571D01*
X73266428Y-85350000D01*
X73337857Y-85421428D01*
X73409285Y-85564285D01*
X73409285Y-85778571D01*
X73337857Y-85921428D01*
X73266428Y-85992857D01*
X73123571Y-86064285D01*
X72552142Y-86064285D01*
X74623571Y-86707142D02*
X74480714Y-86778571D01*
X74195000Y-86778571D01*
X74052142Y-86707142D01*
X73980714Y-86564285D01*
X73980714Y-85992857D01*
X74052142Y-85850000D01*
X74195000Y-85778571D01*
X74480714Y-85778571D01*
X74623571Y-85850000D01*
X74695000Y-85992857D01*
X74695000Y-86135714D01*
X73980714Y-86278571D01*
X75980714Y-86778571D02*
X75980714Y-85278571D01*
X75980714Y-86707142D02*
X75837857Y-86778571D01*
X75552142Y-86778571D01*
X75409285Y-86707142D01*
X75337857Y-86635714D01*
X75266428Y-86492857D01*
X75266428Y-86064285D01*
X75337857Y-85921428D01*
X75409285Y-85850000D01*
X75552142Y-85778571D01*
X75837857Y-85778571D01*
X75980714Y-85850000D01*
X76695000Y-86635714D02*
X76766428Y-86707142D01*
X76695000Y-86778571D01*
X76623571Y-86707142D01*
X76695000Y-86635714D01*
X76695000Y-86778571D01*
X76695000Y-85850000D02*
X76766428Y-85921428D01*
X76695000Y-85992857D01*
X76623571Y-85921428D01*
X76695000Y-85850000D01*
X76695000Y-85992857D01*
X78552142Y-86207142D02*
X79695000Y-86207142D01*
X79123571Y-86778571D02*
X79123571Y-85635714D01*
X81123571Y-85278571D02*
X80409285Y-85278571D01*
X80337857Y-85992857D01*
X80409285Y-85921428D01*
X80552142Y-85850000D01*
X80909285Y-85850000D01*
X81052142Y-85921428D01*
X81123571Y-85992857D01*
X81195000Y-86135714D01*
X81195000Y-86492857D01*
X81123571Y-86635714D01*
X81052142Y-86707142D01*
X80909285Y-86778571D01*
X80552142Y-86778571D01*
X80409285Y-86707142D01*
X80337857Y-86635714D01*
X81623571Y-85278571D02*
X82123571Y-86778571D01*
X82623571Y-85278571D01*
X73052142Y-88542857D02*
X73266428Y-88614285D01*
X73337857Y-88685714D01*
X73409285Y-88828571D01*
X73409285Y-89042857D01*
X73337857Y-89185714D01*
X73266428Y-89257142D01*
X73123571Y-89328571D01*
X72552142Y-89328571D01*
X72552142Y-87828571D01*
X73052142Y-87828571D01*
X73195000Y-87900000D01*
X73266428Y-87971428D01*
X73337857Y-88114285D01*
X73337857Y-88257142D01*
X73266428Y-88400000D01*
X73195000Y-88471428D01*
X73052142Y-88542857D01*
X72552142Y-88542857D01*
X74266428Y-89328571D02*
X74123571Y-89257142D01*
X74052142Y-89114285D01*
X74052142Y-87828571D01*
X75480714Y-89328571D02*
X75480714Y-88542857D01*
X75409285Y-88400000D01*
X75266428Y-88328571D01*
X74980714Y-88328571D01*
X74837857Y-88400000D01*
X75480714Y-89257142D02*
X75337857Y-89328571D01*
X74980714Y-89328571D01*
X74837857Y-89257142D01*
X74766428Y-89114285D01*
X74766428Y-88971428D01*
X74837857Y-88828571D01*
X74980714Y-88757142D01*
X75337857Y-88757142D01*
X75480714Y-88685714D01*
X76837857Y-89257142D02*
X76695000Y-89328571D01*
X76409285Y-89328571D01*
X76266428Y-89257142D01*
X76195000Y-89185714D01*
X76123571Y-89042857D01*
X76123571Y-88614285D01*
X76195000Y-88471428D01*
X76266428Y-88400000D01*
X76409285Y-88328571D01*
X76695000Y-88328571D01*
X76837857Y-88400000D01*
X77480714Y-89328571D02*
X77480714Y-87828571D01*
X77623571Y-88757142D02*
X78052142Y-89328571D01*
X78052142Y-88328571D02*
X77480714Y-88900000D01*
X78695000Y-89185714D02*
X78766428Y-89257142D01*
X78695000Y-89328571D01*
X78623571Y-89257142D01*
X78695000Y-89185714D01*
X78695000Y-89328571D01*
X78695000Y-88400000D02*
X78766428Y-88471428D01*
X78695000Y-88542857D01*
X78623571Y-88471428D01*
X78695000Y-88400000D01*
X78695000Y-88542857D01*
X81337857Y-87900000D02*
X81195000Y-87828571D01*
X80980714Y-87828571D01*
X80766428Y-87900000D01*
X80623571Y-88042857D01*
X80552142Y-88185714D01*
X80480714Y-88471428D01*
X80480714Y-88685714D01*
X80552142Y-88971428D01*
X80623571Y-89114285D01*
X80766428Y-89257142D01*
X80980714Y-89328571D01*
X81123571Y-89328571D01*
X81337857Y-89257142D01*
X81409285Y-89185714D01*
X81409285Y-88685714D01*
X81123571Y-88685714D01*
X82052142Y-89328571D02*
X82052142Y-87828571D01*
X82909285Y-89328571D01*
X82909285Y-87828571D01*
X83623571Y-89328571D02*
X83623571Y-87828571D01*
X83980714Y-87828571D01*
X84195000Y-87900000D01*
X84337857Y-88042857D01*
X84409285Y-88185714D01*
X84480714Y-88471428D01*
X84480714Y-88685714D01*
X84409285Y-88971428D01*
X84337857Y-89114285D01*
X84195000Y-89257142D01*
X83980714Y-89328571D01*
X83623571Y-89328571D01*
X73052142Y-91092857D02*
X73266428Y-91164285D01*
X73337857Y-91235714D01*
X73409285Y-91378571D01*
X73409285Y-91592857D01*
X73337857Y-91735714D01*
X73266428Y-91807142D01*
X73123571Y-91878571D01*
X72552142Y-91878571D01*
X72552142Y-90378571D01*
X73052142Y-90378571D01*
X73195000Y-90450000D01*
X73266428Y-90521428D01*
X73337857Y-90664285D01*
X73337857Y-90807142D01*
X73266428Y-90950000D01*
X73195000Y-91021428D01*
X73052142Y-91092857D01*
X72552142Y-91092857D01*
X74052142Y-91878571D02*
X74052142Y-90878571D01*
X74052142Y-91164285D02*
X74123571Y-91021428D01*
X74195000Y-90950000D01*
X74337857Y-90878571D01*
X74480714Y-90878571D01*
X75195000Y-91878571D02*
X75052142Y-91807142D01*
X74980714Y-91735714D01*
X74909285Y-91592857D01*
X74909285Y-91164285D01*
X74980714Y-91021428D01*
X75052142Y-90950000D01*
X75195000Y-90878571D01*
X75409285Y-90878571D01*
X75552142Y-90950000D01*
X75623571Y-91021428D01*
X75695000Y-91164285D01*
X75695000Y-91592857D01*
X75623571Y-91735714D01*
X75552142Y-91807142D01*
X75409285Y-91878571D01*
X75195000Y-91878571D01*
X76195000Y-90878571D02*
X76480714Y-91878571D01*
X76766428Y-91164285D01*
X77052142Y-91878571D01*
X77337857Y-90878571D01*
X77909285Y-90878571D02*
X77909285Y-91878571D01*
X77909285Y-91021428D02*
X77980714Y-90950000D01*
X78123571Y-90878571D01*
X78337857Y-90878571D01*
X78480714Y-90950000D01*
X78552142Y-91092857D01*
X78552142Y-91878571D01*
X79266428Y-91735714D02*
X79337857Y-91807142D01*
X79266428Y-91878571D01*
X79195000Y-91807142D01*
X79266428Y-91735714D01*
X79266428Y-91878571D01*
X79266428Y-90950000D02*
X79337857Y-91021428D01*
X79266428Y-91092857D01*
X79195000Y-91021428D01*
X79266428Y-90950000D01*
X79266428Y-91092857D01*
X81123571Y-91307142D02*
X82266428Y-91307142D01*
X81695000Y-91878571D02*
X81695000Y-90735714D01*
X83766428Y-91878571D02*
X82909285Y-91878571D01*
X83337857Y-91878571D02*
X83337857Y-90378571D01*
X83195000Y-90592857D01*
X83052142Y-90735714D01*
X82909285Y-90807142D01*
X84337857Y-90521428D02*
X84409285Y-90450000D01*
X84552142Y-90378571D01*
X84909285Y-90378571D01*
X85052142Y-90450000D01*
X85123571Y-90521428D01*
X85195000Y-90664285D01*
X85195000Y-90807142D01*
X85123571Y-91021428D01*
X84266428Y-91878571D01*
X85195000Y-91878571D01*
X85623571Y-90378571D02*
X86123571Y-91878571D01*
X86623571Y-90378571D01*
X72409285Y-92928571D02*
X72766428Y-94428571D01*
X73052142Y-93357142D01*
X73337857Y-94428571D01*
X73695000Y-92928571D01*
X74266428Y-94428571D02*
X74266428Y-92928571D01*
X74909285Y-94428571D02*
X74909285Y-93642857D01*
X74837857Y-93500000D01*
X74695000Y-93428571D01*
X74480714Y-93428571D01*
X74337857Y-93500000D01*
X74266428Y-93571428D01*
X75623571Y-94428571D02*
X75623571Y-93428571D01*
X75623571Y-92928571D02*
X75552142Y-93000000D01*
X75623571Y-93071428D01*
X75695000Y-93000000D01*
X75623571Y-92928571D01*
X75623571Y-93071428D01*
X76123571Y-93428571D02*
X76695000Y-93428571D01*
X76337857Y-92928571D02*
X76337857Y-94214285D01*
X76409285Y-94357142D01*
X76552142Y-94428571D01*
X76695000Y-94428571D01*
X77766428Y-94357142D02*
X77623571Y-94428571D01*
X77337857Y-94428571D01*
X77195000Y-94357142D01*
X77123571Y-94214285D01*
X77123571Y-93642857D01*
X77195000Y-93500000D01*
X77337857Y-93428571D01*
X77623571Y-93428571D01*
X77766428Y-93500000D01*
X77837857Y-93642857D01*
X77837857Y-93785714D01*
X77123571Y-93928571D01*
X78480714Y-94285714D02*
X78552142Y-94357142D01*
X78480714Y-94428571D01*
X78409285Y-94357142D01*
X78480714Y-94285714D01*
X78480714Y-94428571D01*
X78480714Y-93500000D02*
X78552142Y-93571428D01*
X78480714Y-93642857D01*
X78409285Y-93571428D01*
X78480714Y-93500000D01*
X78480714Y-93642857D01*
X80337857Y-93857142D02*
X81480714Y-93857142D01*
X82980714Y-94428571D02*
X82123571Y-94428571D01*
X82552142Y-94428571D02*
X82552142Y-92928571D01*
X82409285Y-93142857D01*
X82266428Y-93285714D01*
X82123571Y-93357142D01*
X83552142Y-93071428D02*
X83623571Y-93000000D01*
X83766428Y-92928571D01*
X84123571Y-92928571D01*
X84266428Y-93000000D01*
X84337857Y-93071428D01*
X84409285Y-93214285D01*
X84409285Y-93357142D01*
X84337857Y-93571428D01*
X83480714Y-94428571D01*
X84409285Y-94428571D01*
X84837857Y-92928571D02*
X85337857Y-94428571D01*
X85837857Y-92928571D01*
X72837857Y-96264285D02*
X72837857Y-96978571D01*
X72337857Y-95478571D02*
X72837857Y-96264285D01*
X73337857Y-95478571D01*
X74409285Y-96907142D02*
X74266428Y-96978571D01*
X73980714Y-96978571D01*
X73837857Y-96907142D01*
X73766428Y-96764285D01*
X73766428Y-96192857D01*
X73837857Y-96050000D01*
X73980714Y-95978571D01*
X74266428Y-95978571D01*
X74409285Y-96050000D01*
X74480714Y-96192857D01*
X74480714Y-96335714D01*
X73766428Y-96478571D01*
X75337857Y-96978571D02*
X75195000Y-96907142D01*
X75123571Y-96764285D01*
X75123571Y-95478571D01*
X76123571Y-96978571D02*
X75980714Y-96907142D01*
X75909285Y-96764285D01*
X75909285Y-95478571D01*
X76909285Y-96978571D02*
X76766428Y-96907142D01*
X76695000Y-96835714D01*
X76623571Y-96692857D01*
X76623571Y-96264285D01*
X76695000Y-96121428D01*
X76766428Y-96050000D01*
X76909285Y-95978571D01*
X77123571Y-95978571D01*
X77266428Y-96050000D01*
X77337857Y-96121428D01*
X77409285Y-96264285D01*
X77409285Y-96692857D01*
X77337857Y-96835714D01*
X77266428Y-96907142D01*
X77123571Y-96978571D01*
X76909285Y-96978571D01*
X77909285Y-95978571D02*
X78195000Y-96978571D01*
X78480714Y-96264285D01*
X78766428Y-96978571D01*
X79052142Y-95978571D01*
X79623571Y-96835714D02*
X79695000Y-96907142D01*
X79623571Y-96978571D01*
X79552142Y-96907142D01*
X79623571Y-96835714D01*
X79623571Y-96978571D01*
X79623571Y-96050000D02*
X79695000Y-96121428D01*
X79623571Y-96192857D01*
X79552142Y-96121428D01*
X79623571Y-96050000D01*
X79623571Y-96192857D01*
X81409285Y-96907142D02*
X81623571Y-96978571D01*
X81980714Y-96978571D01*
X82123571Y-96907142D01*
X82195000Y-96835714D01*
X82266428Y-96692857D01*
X82266428Y-96550000D01*
X82195000Y-96407142D01*
X82123571Y-96335714D01*
X81980714Y-96264285D01*
X81695000Y-96192857D01*
X81552142Y-96121428D01*
X81480714Y-96050000D01*
X81409285Y-95907142D01*
X81409285Y-95764285D01*
X81480714Y-95621428D01*
X81552142Y-95550000D01*
X81695000Y-95478571D01*
X82052142Y-95478571D01*
X82266428Y-95550000D01*
X82909285Y-96978571D02*
X82909285Y-95478571D01*
X83552142Y-96978571D02*
X83552142Y-96192857D01*
X83480714Y-96050000D01*
X83337857Y-95978571D01*
X83123571Y-95978571D01*
X82980714Y-96050000D01*
X82909285Y-96121428D01*
X84266428Y-96978571D02*
X84266428Y-95978571D01*
X84266428Y-95478571D02*
X84195000Y-95550000D01*
X84266428Y-95621428D01*
X84337857Y-95550000D01*
X84266428Y-95478571D01*
X84266428Y-95621428D01*
X85552142Y-96907142D02*
X85409285Y-96978571D01*
X85123571Y-96978571D01*
X84980714Y-96907142D01*
X84909285Y-96764285D01*
X84909285Y-96192857D01*
X84980714Y-96050000D01*
X85123571Y-95978571D01*
X85409285Y-95978571D01*
X85552142Y-96050000D01*
X85623571Y-96192857D01*
X85623571Y-96335714D01*
X84909285Y-96478571D01*
X86480714Y-96978571D02*
X86337857Y-96907142D01*
X86266428Y-96764285D01*
X86266428Y-95478571D01*
X87695000Y-96978571D02*
X87695000Y-95478571D01*
X87695000Y-96907142D02*
X87552142Y-96978571D01*
X87266428Y-96978571D01*
X87123571Y-96907142D01*
X87052142Y-96835714D01*
X86980714Y-96692857D01*
X86980714Y-96264285D01*
X87052142Y-96121428D01*
X87123571Y-96050000D01*
X87266428Y-95978571D01*
X87552142Y-95978571D01*
X87695000Y-96050000D01*
D10*
X70537976Y-51091666D02*
X71014166Y-51091666D01*
X70442738Y-51377380D02*
X70776071Y-50377380D01*
X71109404Y-51377380D01*
X71585595Y-51377380D02*
X71490357Y-51329761D01*
X71442738Y-51234523D01*
X71442738Y-50377380D01*
X71871309Y-50710714D02*
X72061785Y-51377380D01*
X72252261Y-50901190D01*
X72442738Y-51377380D01*
X72633214Y-50710714D01*
X73442738Y-51377380D02*
X73442738Y-50853571D01*
X73395119Y-50758333D01*
X73299880Y-50710714D01*
X73109404Y-50710714D01*
X73014166Y-50758333D01*
X73442738Y-51329761D02*
X73347500Y-51377380D01*
X73109404Y-51377380D01*
X73014166Y-51329761D01*
X72966547Y-51234523D01*
X72966547Y-51139285D01*
X73014166Y-51044047D01*
X73109404Y-50996428D01*
X73347500Y-50996428D01*
X73442738Y-50948809D01*
X73823690Y-50710714D02*
X74061785Y-51377380D01*
X74299880Y-50710714D02*
X74061785Y-51377380D01*
X73966547Y-51615476D01*
X73918928Y-51663095D01*
X73823690Y-51710714D01*
X74633214Y-51329761D02*
X74728452Y-51377380D01*
X74918928Y-51377380D01*
X75014166Y-51329761D01*
X75061785Y-51234523D01*
X75061785Y-51186904D01*
X75014166Y-51091666D01*
X74918928Y-51044047D01*
X74776071Y-51044047D01*
X74680833Y-50996428D01*
X74633214Y-50901190D01*
X74633214Y-50853571D01*
X74680833Y-50758333D01*
X74776071Y-50710714D01*
X74918928Y-50710714D01*
X75014166Y-50758333D01*
X76680833Y-51329761D02*
X76585595Y-51377380D01*
X76395119Y-51377380D01*
X76299880Y-51329761D01*
X76252261Y-51282142D01*
X76204642Y-51186904D01*
X76204642Y-50901190D01*
X76252261Y-50805952D01*
X76299880Y-50758333D01*
X76395119Y-50710714D01*
X76585595Y-50710714D01*
X76680833Y-50758333D01*
X77109404Y-51377380D02*
X77109404Y-50377380D01*
X77537976Y-51377380D02*
X77537976Y-50853571D01*
X77490357Y-50758333D01*
X77395119Y-50710714D01*
X77252261Y-50710714D01*
X77157023Y-50758333D01*
X77109404Y-50805952D01*
X78395119Y-51329761D02*
X78299880Y-51377380D01*
X78109404Y-51377380D01*
X78014166Y-51329761D01*
X77966547Y-51234523D01*
X77966547Y-50853571D01*
X78014166Y-50758333D01*
X78109404Y-50710714D01*
X78299880Y-50710714D01*
X78395119Y-50758333D01*
X78442738Y-50853571D01*
X78442738Y-50948809D01*
X77966547Y-51044047D01*
X79299880Y-51329761D02*
X79204642Y-51377380D01*
X79014166Y-51377380D01*
X78918928Y-51329761D01*
X78871309Y-51282142D01*
X78823690Y-51186904D01*
X78823690Y-50901190D01*
X78871309Y-50805952D01*
X78918928Y-50758333D01*
X79014166Y-50710714D01*
X79204642Y-50710714D01*
X79299880Y-50758333D01*
X79728452Y-51377380D02*
X79728452Y-50377380D01*
X79823690Y-50996428D02*
X80109404Y-51377380D01*
X80109404Y-50710714D02*
X79728452Y-51091666D01*
X81157023Y-50710714D02*
X81537976Y-50710714D01*
X81299880Y-50377380D02*
X81299880Y-51234523D01*
X81347500Y-51329761D01*
X81442738Y-51377380D01*
X81537976Y-51377380D01*
X81871309Y-51377380D02*
X81871309Y-50377380D01*
X82299880Y-51377380D02*
X82299880Y-50853571D01*
X82252261Y-50758333D01*
X82157023Y-50710714D01*
X82014166Y-50710714D01*
X81918928Y-50758333D01*
X81871309Y-50805952D01*
X83157023Y-51329761D02*
X83061785Y-51377380D01*
X82871309Y-51377380D01*
X82776071Y-51329761D01*
X82728452Y-51234523D01*
X82728452Y-50853571D01*
X82776071Y-50758333D01*
X82871309Y-50710714D01*
X83061785Y-50710714D01*
X83157023Y-50758333D01*
X83204642Y-50853571D01*
X83204642Y-50948809D01*
X82728452Y-51044047D01*
X84299880Y-50710714D02*
X84490357Y-51377380D01*
X84680833Y-50901190D01*
X84871309Y-51377380D01*
X85061785Y-50710714D01*
X85442738Y-51377380D02*
X85442738Y-50710714D01*
X85442738Y-50377380D02*
X85395119Y-50425000D01*
X85442738Y-50472619D01*
X85490357Y-50425000D01*
X85442738Y-50377380D01*
X85442738Y-50472619D01*
X85918928Y-51377380D02*
X85918928Y-50710714D01*
X85918928Y-50901190D02*
X85966547Y-50805952D01*
X86014166Y-50758333D01*
X86109404Y-50710714D01*
X86204642Y-50710714D01*
X86537976Y-51377380D02*
X86537976Y-50710714D01*
X86537976Y-50377380D02*
X86490357Y-50425000D01*
X86537976Y-50472619D01*
X86585595Y-50425000D01*
X86537976Y-50377380D01*
X86537976Y-50472619D01*
X87014166Y-50710714D02*
X87014166Y-51377380D01*
X87014166Y-50805952D02*
X87061785Y-50758333D01*
X87157023Y-50710714D01*
X87299880Y-50710714D01*
X87395119Y-50758333D01*
X87442738Y-50853571D01*
X87442738Y-51377380D01*
X88347500Y-50710714D02*
X88347500Y-51520238D01*
X88299880Y-51615476D01*
X88252261Y-51663095D01*
X88157023Y-51710714D01*
X88014166Y-51710714D01*
X87918928Y-51663095D01*
X88347500Y-51329761D02*
X88252261Y-51377380D01*
X88061785Y-51377380D01*
X87966547Y-51329761D01*
X87918928Y-51282142D01*
X87871309Y-51186904D01*
X87871309Y-50901190D01*
X87918928Y-50805952D01*
X87966547Y-50758333D01*
X88061785Y-50710714D01*
X88252261Y-50710714D01*
X88347500Y-50758333D01*
X89728452Y-51377380D02*
X89633214Y-51329761D01*
X89585595Y-51282142D01*
X89537976Y-51186904D01*
X89537976Y-50901190D01*
X89585595Y-50805952D01*
X89633214Y-50758333D01*
X89728452Y-50710714D01*
X89871309Y-50710714D01*
X89966547Y-50758333D01*
X90014166Y-50805952D01*
X90061785Y-50901190D01*
X90061785Y-51186904D01*
X90014166Y-51282142D01*
X89966547Y-51329761D01*
X89871309Y-51377380D01*
X89728452Y-51377380D01*
X90347500Y-50710714D02*
X90728452Y-50710714D01*
X90490357Y-51377380D02*
X90490357Y-50520238D01*
X90537976Y-50425000D01*
X90633214Y-50377380D01*
X90728452Y-50377380D01*
X91728452Y-50710714D02*
X91966547Y-51377380D01*
X92204642Y-50710714D02*
X91966547Y-51377380D01*
X91871309Y-51615476D01*
X91823690Y-51663095D01*
X91728452Y-51710714D01*
X92728452Y-51377380D02*
X92633214Y-51329761D01*
X92585595Y-51282142D01*
X92537976Y-51186904D01*
X92537976Y-50901190D01*
X92585595Y-50805952D01*
X92633214Y-50758333D01*
X92728452Y-50710714D01*
X92871309Y-50710714D01*
X92966547Y-50758333D01*
X93014166Y-50805952D01*
X93061785Y-50901190D01*
X93061785Y-51186904D01*
X93014166Y-51282142D01*
X92966547Y-51329761D01*
X92871309Y-51377380D01*
X92728452Y-51377380D01*
X93918928Y-50710714D02*
X93918928Y-51377380D01*
X93490357Y-50710714D02*
X93490357Y-51234523D01*
X93537976Y-51329761D01*
X93633214Y-51377380D01*
X93776071Y-51377380D01*
X93871309Y-51329761D01*
X93918928Y-51282142D01*
X94395119Y-51377380D02*
X94395119Y-50710714D01*
X94395119Y-50901190D02*
X94442738Y-50805952D01*
X94490357Y-50758333D01*
X94585595Y-50710714D01*
X94680833Y-50710714D01*
X96157023Y-51329761D02*
X96061785Y-51377380D01*
X95871309Y-51377380D01*
X95776071Y-51329761D01*
X95728452Y-51234523D01*
X95728452Y-50853571D01*
X95776071Y-50758333D01*
X95871309Y-50710714D01*
X96061785Y-50710714D01*
X96157023Y-50758333D01*
X96204642Y-50853571D01*
X96204642Y-50948809D01*
X95728452Y-51044047D01*
X96537976Y-51377380D02*
X97061785Y-50710714D01*
X96537976Y-50710714D02*
X97061785Y-51377380D01*
X97442738Y-51377380D02*
X97442738Y-50710714D01*
X97442738Y-50377380D02*
X97395119Y-50425000D01*
X97442738Y-50472619D01*
X97490357Y-50425000D01*
X97442738Y-50377380D01*
X97442738Y-50472619D01*
X97871309Y-51329761D02*
X97966547Y-51377380D01*
X98157023Y-51377380D01*
X98252261Y-51329761D01*
X98299880Y-51234523D01*
X98299880Y-51186904D01*
X98252261Y-51091666D01*
X98157023Y-51044047D01*
X98014166Y-51044047D01*
X97918928Y-50996428D01*
X97871309Y-50901190D01*
X97871309Y-50853571D01*
X97918928Y-50758333D01*
X98014166Y-50710714D01*
X98157023Y-50710714D01*
X98252261Y-50758333D01*
X98585595Y-50710714D02*
X98966547Y-50710714D01*
X98728452Y-50377380D02*
X98728452Y-51234523D01*
X98776071Y-51329761D01*
X98871309Y-51377380D01*
X98966547Y-51377380D01*
X99299880Y-51377380D02*
X99299880Y-50710714D01*
X99299880Y-50377380D02*
X99252261Y-50425000D01*
X99299880Y-50472619D01*
X99347499Y-50425000D01*
X99299880Y-50377380D01*
X99299880Y-50472619D01*
X99776071Y-50710714D02*
X99776071Y-51377380D01*
X99776071Y-50805952D02*
X99823690Y-50758333D01*
X99918928Y-50710714D01*
X100061785Y-50710714D01*
X100157023Y-50758333D01*
X100204642Y-50853571D01*
X100204642Y-51377380D01*
X101109404Y-50710714D02*
X101109404Y-51520238D01*
X101061785Y-51615476D01*
X101014166Y-51663095D01*
X100918928Y-51710714D01*
X100776071Y-51710714D01*
X100680833Y-51663095D01*
X101109404Y-51329761D02*
X101014166Y-51377380D01*
X100823690Y-51377380D01*
X100728452Y-51329761D01*
X100680833Y-51282142D01*
X100633214Y-51186904D01*
X100633214Y-50901190D01*
X100680833Y-50805952D01*
X100728452Y-50758333D01*
X100823690Y-50710714D01*
X101014166Y-50710714D01*
X101109404Y-50758333D01*
X102347499Y-50710714D02*
X102347499Y-51710714D01*
X102347499Y-50758333D02*
X102442738Y-50710714D01*
X102633214Y-50710714D01*
X102728452Y-50758333D01*
X102776071Y-50805952D01*
X102823690Y-50901190D01*
X102823690Y-51186904D01*
X102776071Y-51282142D01*
X102728452Y-51329761D01*
X102633214Y-51377380D01*
X102442738Y-51377380D01*
X102347499Y-51329761D01*
X103395119Y-51377380D02*
X103299880Y-51329761D01*
X103252261Y-51282142D01*
X103204642Y-51186904D01*
X103204642Y-50901190D01*
X103252261Y-50805952D01*
X103299880Y-50758333D01*
X103395119Y-50710714D01*
X103537976Y-50710714D01*
X103633214Y-50758333D01*
X103680833Y-50805952D01*
X103728452Y-50901190D01*
X103728452Y-51186904D01*
X103680833Y-51282142D01*
X103633214Y-51329761D01*
X103537976Y-51377380D01*
X103395119Y-51377380D01*
X104061785Y-50710714D02*
X104252261Y-51377380D01*
X104442738Y-50901190D01*
X104633214Y-51377380D01*
X104823690Y-50710714D01*
X105585595Y-51329761D02*
X105490357Y-51377380D01*
X105299880Y-51377380D01*
X105204642Y-51329761D01*
X105157023Y-51234523D01*
X105157023Y-50853571D01*
X105204642Y-50758333D01*
X105299880Y-50710714D01*
X105490357Y-50710714D01*
X105585595Y-50758333D01*
X105633214Y-50853571D01*
X105633214Y-50948809D01*
X105157023Y-51044047D01*
X106061785Y-51377380D02*
X106061785Y-50710714D01*
X106061785Y-50901190D02*
X106109404Y-50805952D01*
X106157023Y-50758333D01*
X106252261Y-50710714D01*
X106347499Y-50710714D01*
X107585595Y-51377380D02*
X107490357Y-51329761D01*
X107442738Y-51234523D01*
X107442738Y-50377380D01*
X108347499Y-51329761D02*
X108252261Y-51377380D01*
X108061785Y-51377380D01*
X107966547Y-51329761D01*
X107918928Y-51234523D01*
X107918928Y-50853571D01*
X107966547Y-50758333D01*
X108061785Y-50710714D01*
X108252261Y-50710714D01*
X108347499Y-50758333D01*
X108395119Y-50853571D01*
X108395119Y-50948809D01*
X107918928Y-51044047D01*
X109252261Y-51377380D02*
X109252261Y-50853571D01*
X109204642Y-50758333D01*
X109109404Y-50710714D01*
X108918928Y-50710714D01*
X108823690Y-50758333D01*
X109252261Y-51329761D02*
X109157023Y-51377380D01*
X108918928Y-51377380D01*
X108823690Y-51329761D01*
X108776071Y-51234523D01*
X108776071Y-51139285D01*
X108823690Y-51044047D01*
X108918928Y-50996428D01*
X109157023Y-50996428D01*
X109252261Y-50948809D01*
X110157023Y-51377380D02*
X110157023Y-50377380D01*
X110157023Y-51329761D02*
X110061785Y-51377380D01*
X109871309Y-51377380D01*
X109776071Y-51329761D01*
X109728452Y-51282142D01*
X109680833Y-51186904D01*
X109680833Y-50901190D01*
X109728452Y-50805952D01*
X109776071Y-50758333D01*
X109871309Y-50710714D01*
X110061785Y-50710714D01*
X110157023Y-50758333D01*
X110680833Y-51329761D02*
X110680833Y-51377380D01*
X110633214Y-51472619D01*
X110585595Y-51520238D01*
X71157023Y-52932142D02*
X71109404Y-52979761D01*
X70966547Y-53027380D01*
X70871309Y-53027380D01*
X70728452Y-52979761D01*
X70633214Y-52884523D01*
X70585595Y-52789285D01*
X70537976Y-52598809D01*
X70537976Y-52455952D01*
X70585595Y-52265476D01*
X70633214Y-52170238D01*
X70728452Y-52075000D01*
X70871309Y-52027380D01*
X70966547Y-52027380D01*
X71109404Y-52075000D01*
X71157023Y-52122619D01*
X71728452Y-53027380D02*
X71633214Y-52979761D01*
X71585595Y-52932142D01*
X71537976Y-52836904D01*
X71537976Y-52551190D01*
X71585595Y-52455952D01*
X71633214Y-52408333D01*
X71728452Y-52360714D01*
X71871309Y-52360714D01*
X71966547Y-52408333D01*
X72014166Y-52455952D01*
X72061785Y-52551190D01*
X72061785Y-52836904D01*
X72014166Y-52932142D01*
X71966547Y-52979761D01*
X71871309Y-53027380D01*
X71728452Y-53027380D01*
X72490357Y-53027380D02*
X72490357Y-52360714D01*
X72490357Y-52455952D02*
X72537976Y-52408333D01*
X72633214Y-52360714D01*
X72776071Y-52360714D01*
X72871309Y-52408333D01*
X72918928Y-52503571D01*
X72918928Y-53027380D01*
X72918928Y-52503571D02*
X72966547Y-52408333D01*
X73061785Y-52360714D01*
X73204642Y-52360714D01*
X73299880Y-52408333D01*
X73347500Y-52503571D01*
X73347500Y-53027380D01*
X73823690Y-53027380D02*
X73823690Y-52360714D01*
X73823690Y-52455952D02*
X73871309Y-52408333D01*
X73966547Y-52360714D01*
X74109404Y-52360714D01*
X74204642Y-52408333D01*
X74252261Y-52503571D01*
X74252261Y-53027380D01*
X74252261Y-52503571D02*
X74299880Y-52408333D01*
X74395119Y-52360714D01*
X74537976Y-52360714D01*
X74633214Y-52408333D01*
X74680833Y-52503571D01*
X74680833Y-53027380D01*
X75299880Y-53027380D02*
X75204642Y-52979761D01*
X75157023Y-52932142D01*
X75109404Y-52836904D01*
X75109404Y-52551190D01*
X75157023Y-52455952D01*
X75204642Y-52408333D01*
X75299880Y-52360714D01*
X75442738Y-52360714D01*
X75537976Y-52408333D01*
X75585595Y-52455952D01*
X75633214Y-52551190D01*
X75633214Y-52836904D01*
X75585595Y-52932142D01*
X75537976Y-52979761D01*
X75442738Y-53027380D01*
X75299880Y-53027380D01*
X76490357Y-53027380D02*
X76490357Y-52027380D01*
X76490357Y-52979761D02*
X76395119Y-53027380D01*
X76204642Y-53027380D01*
X76109404Y-52979761D01*
X76061785Y-52932142D01*
X76014166Y-52836904D01*
X76014166Y-52551190D01*
X76061785Y-52455952D01*
X76109404Y-52408333D01*
X76204642Y-52360714D01*
X76395119Y-52360714D01*
X76490357Y-52408333D01*
X77109404Y-53027380D02*
X77014166Y-52979761D01*
X76966547Y-52932142D01*
X76918928Y-52836904D01*
X76918928Y-52551190D01*
X76966547Y-52455952D01*
X77014166Y-52408333D01*
X77109404Y-52360714D01*
X77252261Y-52360714D01*
X77347500Y-52408333D01*
X77395119Y-52455952D01*
X77442738Y-52551190D01*
X77442738Y-52836904D01*
X77395119Y-52932142D01*
X77347500Y-52979761D01*
X77252261Y-53027380D01*
X77109404Y-53027380D01*
X77871309Y-53027380D02*
X77871309Y-52360714D01*
X77871309Y-52551190D02*
X77918928Y-52455952D01*
X77966547Y-52408333D01*
X78061785Y-52360714D01*
X78157023Y-52360714D01*
X78871309Y-52979761D02*
X78776071Y-53027380D01*
X78585595Y-53027380D01*
X78490357Y-52979761D01*
X78442738Y-52884523D01*
X78442738Y-52503571D01*
X78490357Y-52408333D01*
X78585595Y-52360714D01*
X78776071Y-52360714D01*
X78871309Y-52408333D01*
X78918928Y-52503571D01*
X78918928Y-52598809D01*
X78442738Y-52694047D01*
X80014166Y-52360714D02*
X80204642Y-53027380D01*
X80395119Y-52551190D01*
X80585595Y-53027380D01*
X80776071Y-52360714D01*
X81537976Y-52979761D02*
X81442738Y-53027380D01*
X81252261Y-53027380D01*
X81157023Y-52979761D01*
X81109404Y-52884523D01*
X81109404Y-52503571D01*
X81157023Y-52408333D01*
X81252261Y-52360714D01*
X81442738Y-52360714D01*
X81537976Y-52408333D01*
X81585595Y-52503571D01*
X81585595Y-52598809D01*
X81109404Y-52694047D01*
X82014166Y-53027380D02*
X82014166Y-52360714D01*
X82014166Y-52551190D02*
X82061785Y-52455952D01*
X82109404Y-52408333D01*
X82204642Y-52360714D01*
X82299880Y-52360714D01*
X83014166Y-52979761D02*
X82918928Y-53027380D01*
X82728452Y-53027380D01*
X82633214Y-52979761D01*
X82585595Y-52884523D01*
X82585595Y-52503571D01*
X82633214Y-52408333D01*
X82728452Y-52360714D01*
X82918928Y-52360714D01*
X83014166Y-52408333D01*
X83061785Y-52503571D01*
X83061785Y-52598809D01*
X82585595Y-52694047D01*
X84252261Y-52360714D02*
X84252261Y-53027380D01*
X84252261Y-52455952D02*
X84299880Y-52408333D01*
X84395119Y-52360714D01*
X84537976Y-52360714D01*
X84633214Y-52408333D01*
X84680833Y-52503571D01*
X84680833Y-53027380D01*
X85299880Y-53027380D02*
X85204642Y-52979761D01*
X85157023Y-52932142D01*
X85109404Y-52836904D01*
X85109404Y-52551190D01*
X85157023Y-52455952D01*
X85204642Y-52408333D01*
X85299880Y-52360714D01*
X85442738Y-52360714D01*
X85537976Y-52408333D01*
X85585595Y-52455952D01*
X85633214Y-52551190D01*
X85633214Y-52836904D01*
X85585595Y-52932142D01*
X85537976Y-52979761D01*
X85442738Y-53027380D01*
X85299880Y-53027380D01*
X85918928Y-52360714D02*
X86299880Y-52360714D01*
X86061785Y-52027380D02*
X86061785Y-52884523D01*
X86109404Y-52979761D01*
X86204642Y-53027380D01*
X86299880Y-53027380D01*
X87823690Y-52979761D02*
X87728452Y-53027380D01*
X87537976Y-53027380D01*
X87442738Y-52979761D01*
X87395119Y-52932142D01*
X87347500Y-52836904D01*
X87347500Y-52551190D01*
X87395119Y-52455952D01*
X87442738Y-52408333D01*
X87537976Y-52360714D01*
X87728452Y-52360714D01*
X87823690Y-52408333D01*
X88395119Y-53027380D02*
X88299880Y-52979761D01*
X88252261Y-52932142D01*
X88204642Y-52836904D01*
X88204642Y-52551190D01*
X88252261Y-52455952D01*
X88299880Y-52408333D01*
X88395119Y-52360714D01*
X88537976Y-52360714D01*
X88633214Y-52408333D01*
X88680833Y-52455952D01*
X88728452Y-52551190D01*
X88728452Y-52836904D01*
X88680833Y-52932142D01*
X88633214Y-52979761D01*
X88537976Y-53027380D01*
X88395119Y-53027380D01*
X89157023Y-52360714D02*
X89157023Y-53027380D01*
X89157023Y-52455952D02*
X89204642Y-52408333D01*
X89299880Y-52360714D01*
X89442738Y-52360714D01*
X89537976Y-52408333D01*
X89585595Y-52503571D01*
X89585595Y-53027380D01*
X90014166Y-52979761D02*
X90109404Y-53027380D01*
X90299880Y-53027380D01*
X90395119Y-52979761D01*
X90442738Y-52884523D01*
X90442738Y-52836904D01*
X90395119Y-52741666D01*
X90299880Y-52694047D01*
X90157023Y-52694047D01*
X90061785Y-52646428D01*
X90014166Y-52551190D01*
X90014166Y-52503571D01*
X90061785Y-52408333D01*
X90157023Y-52360714D01*
X90299880Y-52360714D01*
X90395119Y-52408333D01*
X90871309Y-53027380D02*
X90871309Y-52360714D01*
X90871309Y-52027380D02*
X90823690Y-52075000D01*
X90871309Y-52122619D01*
X90918928Y-52075000D01*
X90871309Y-52027380D01*
X90871309Y-52122619D01*
X91299880Y-52979761D02*
X91395119Y-53027380D01*
X91585595Y-53027380D01*
X91680833Y-52979761D01*
X91728452Y-52884523D01*
X91728452Y-52836904D01*
X91680833Y-52741666D01*
X91585595Y-52694047D01*
X91442738Y-52694047D01*
X91347500Y-52646428D01*
X91299880Y-52551190D01*
X91299880Y-52503571D01*
X91347500Y-52408333D01*
X91442738Y-52360714D01*
X91585595Y-52360714D01*
X91680833Y-52408333D01*
X92014166Y-52360714D02*
X92395119Y-52360714D01*
X92157023Y-52027380D02*
X92157023Y-52884523D01*
X92204642Y-52979761D01*
X92299880Y-53027380D01*
X92395119Y-53027380D01*
X93109404Y-52979761D02*
X93014166Y-53027380D01*
X92823690Y-53027380D01*
X92728452Y-52979761D01*
X92680833Y-52884523D01*
X92680833Y-52503571D01*
X92728452Y-52408333D01*
X92823690Y-52360714D01*
X93014166Y-52360714D01*
X93109404Y-52408333D01*
X93157023Y-52503571D01*
X93157023Y-52598809D01*
X92680833Y-52694047D01*
X93585595Y-52360714D02*
X93585595Y-53027380D01*
X93585595Y-52455952D02*
X93633214Y-52408333D01*
X93728452Y-52360714D01*
X93871309Y-52360714D01*
X93966547Y-52408333D01*
X94014166Y-52503571D01*
X94014166Y-53027380D01*
X94347500Y-52360714D02*
X94728452Y-52360714D01*
X94490357Y-52027380D02*
X94490357Y-52884523D01*
X94537976Y-52979761D01*
X94633214Y-53027380D01*
X94728452Y-53027380D01*
X95728452Y-52360714D02*
X95918928Y-53027380D01*
X96109404Y-52551190D01*
X96299880Y-53027380D01*
X96490357Y-52360714D01*
X96871309Y-53027380D02*
X96871309Y-52360714D01*
X96871309Y-52027380D02*
X96823690Y-52075000D01*
X96871309Y-52122619D01*
X96918928Y-52075000D01*
X96871309Y-52027380D01*
X96871309Y-52122619D01*
X97204642Y-52360714D02*
X97585595Y-52360714D01*
X97347500Y-52027380D02*
X97347500Y-52884523D01*
X97395119Y-52979761D01*
X97490357Y-53027380D01*
X97585595Y-53027380D01*
X97918928Y-53027380D02*
X97918928Y-52027380D01*
X98347500Y-53027380D02*
X98347500Y-52503571D01*
X98299880Y-52408333D01*
X98204642Y-52360714D01*
X98061785Y-52360714D01*
X97966547Y-52408333D01*
X97918928Y-52455952D01*
X99442738Y-52360714D02*
X99823690Y-52360714D01*
X99585595Y-52027380D02*
X99585595Y-52884523D01*
X99633214Y-52979761D01*
X99728452Y-53027380D01*
X99823690Y-53027380D01*
X100157023Y-53027380D02*
X100157023Y-52027380D01*
X100585595Y-53027380D02*
X100585595Y-52503571D01*
X100537976Y-52408333D01*
X100442738Y-52360714D01*
X100299880Y-52360714D01*
X100204642Y-52408333D01*
X100157023Y-52455952D01*
X101442738Y-52979761D02*
X101347499Y-53027380D01*
X101157023Y-53027380D01*
X101061785Y-52979761D01*
X101014166Y-52884523D01*
X101014166Y-52503571D01*
X101061785Y-52408333D01*
X101157023Y-52360714D01*
X101347499Y-52360714D01*
X101442738Y-52408333D01*
X101490357Y-52503571D01*
X101490357Y-52598809D01*
X101014166Y-52694047D01*
X101918928Y-53027380D02*
X101918928Y-52360714D01*
X101918928Y-52027380D02*
X101871309Y-52075000D01*
X101918928Y-52122619D01*
X101966547Y-52075000D01*
X101918928Y-52027380D01*
X101918928Y-52122619D01*
X102395119Y-53027380D02*
X102395119Y-52360714D01*
X102395119Y-52551190D02*
X102442738Y-52455952D01*
X102490357Y-52408333D01*
X102585595Y-52360714D01*
X102680833Y-52360714D01*
X103680833Y-52360714D02*
X103871309Y-53027380D01*
X104061785Y-52551190D01*
X104252261Y-53027380D01*
X104442738Y-52360714D01*
X104823690Y-53027380D02*
X104823690Y-52360714D01*
X104823690Y-52027380D02*
X104776071Y-52075000D01*
X104823690Y-52122619D01*
X104871309Y-52075000D01*
X104823690Y-52027380D01*
X104823690Y-52122619D01*
X105299880Y-53027380D02*
X105299880Y-52360714D01*
X105299880Y-52551190D02*
X105347500Y-52455952D01*
X105395119Y-52408333D01*
X105490357Y-52360714D01*
X105585595Y-52360714D01*
X105918928Y-53027380D02*
X105918928Y-52360714D01*
X105918928Y-52027380D02*
X105871309Y-52075000D01*
X105918928Y-52122619D01*
X105966547Y-52075000D01*
X105918928Y-52027380D01*
X105918928Y-52122619D01*
X106395119Y-52360714D02*
X106395119Y-53027380D01*
X106395119Y-52455952D02*
X106442738Y-52408333D01*
X106537976Y-52360714D01*
X106680833Y-52360714D01*
X106776071Y-52408333D01*
X106823690Y-52503571D01*
X106823690Y-53027380D01*
X107728452Y-52360714D02*
X107728452Y-53170238D01*
X107680833Y-53265476D01*
X107633214Y-53313095D01*
X107537976Y-53360714D01*
X107395119Y-53360714D01*
X107299880Y-53313095D01*
X107728452Y-52979761D02*
X107633214Y-53027380D01*
X107442738Y-53027380D01*
X107347500Y-52979761D01*
X107299880Y-52932142D01*
X107252261Y-52836904D01*
X107252261Y-52551190D01*
X107299880Y-52455952D01*
X107347500Y-52408333D01*
X107442738Y-52360714D01*
X107633214Y-52360714D01*
X107728452Y-52408333D01*
X109395119Y-52979761D02*
X109299880Y-53027380D01*
X109109404Y-53027380D01*
X109014166Y-52979761D01*
X108966547Y-52932142D01*
X108918928Y-52836904D01*
X108918928Y-52551190D01*
X108966547Y-52455952D01*
X109014166Y-52408333D01*
X109109404Y-52360714D01*
X109299880Y-52360714D01*
X109395119Y-52408333D01*
X109966547Y-53027380D02*
X109871309Y-52979761D01*
X109823690Y-52932142D01*
X109776071Y-52836904D01*
X109776071Y-52551190D01*
X109823690Y-52455952D01*
X109871309Y-52408333D01*
X109966547Y-52360714D01*
X110109404Y-52360714D01*
X110204642Y-52408333D01*
X110252261Y-52455952D01*
X110299880Y-52551190D01*
X110299880Y-52836904D01*
X110252261Y-52932142D01*
X110204642Y-52979761D01*
X110109404Y-53027380D01*
X109966547Y-53027380D01*
X110871309Y-53027380D02*
X110776071Y-52979761D01*
X110728452Y-52884523D01*
X110728452Y-52027380D01*
X111395119Y-53027380D02*
X111299880Y-52979761D01*
X111252261Y-52932142D01*
X111204642Y-52836904D01*
X111204642Y-52551190D01*
X111252261Y-52455952D01*
X111299880Y-52408333D01*
X111395119Y-52360714D01*
X111537976Y-52360714D01*
X111633214Y-52408333D01*
X111680833Y-52455952D01*
X111728452Y-52551190D01*
X111728452Y-52836904D01*
X111680833Y-52932142D01*
X111633214Y-52979761D01*
X111537976Y-53027380D01*
X111395119Y-53027380D01*
X112157023Y-53027380D02*
X112157023Y-52360714D01*
X112157023Y-52551190D02*
X112204642Y-52455952D01*
X112252261Y-52408333D01*
X112347499Y-52360714D01*
X112442738Y-52360714D01*
X112728452Y-52979761D02*
X112823690Y-53027380D01*
X113014166Y-53027380D01*
X113109404Y-52979761D01*
X113157023Y-52884523D01*
X113157023Y-52836904D01*
X113109404Y-52741666D01*
X113014166Y-52694047D01*
X112871309Y-52694047D01*
X112776071Y-52646428D01*
X112728452Y-52551190D01*
X112728452Y-52503571D01*
X112776071Y-52408333D01*
X112871309Y-52360714D01*
X113014166Y-52360714D01*
X113109404Y-52408333D01*
X113585595Y-52932142D02*
X113633214Y-52979761D01*
X113585595Y-53027380D01*
X113537976Y-52979761D01*
X113585595Y-52932142D01*
X113585595Y-53027380D01*
X119654761Y-37333333D02*
X120607142Y-37333333D01*
X119464285Y-37904761D02*
X120130952Y-35904761D01*
X120797619Y-37904761D01*
X121464285Y-37904761D02*
X121464285Y-36571428D01*
X121464285Y-36761904D02*
X121559523Y-36666666D01*
X121750000Y-36571428D01*
X122035714Y-36571428D01*
X122226190Y-36666666D01*
X122321428Y-36857142D01*
X122321428Y-37904761D01*
X122321428Y-36857142D02*
X122416666Y-36666666D01*
X122607142Y-36571428D01*
X122892857Y-36571428D01*
X123083333Y-36666666D01*
X123178571Y-36857142D01*
X123178571Y-37904761D01*
X124130952Y-37904761D02*
X124130952Y-36571428D01*
X124130952Y-35904761D02*
X124035714Y-36000000D01*
X124130952Y-36095238D01*
X124226190Y-36000000D01*
X124130952Y-35904761D01*
X124130952Y-36095238D01*
X125940476Y-36571428D02*
X125940476Y-38190476D01*
X125845238Y-38380952D01*
X125750000Y-38476190D01*
X125559523Y-38571428D01*
X125273809Y-38571428D01*
X125083333Y-38476190D01*
X125940476Y-37809523D02*
X125750000Y-37904761D01*
X125369047Y-37904761D01*
X125178571Y-37809523D01*
X125083333Y-37714285D01*
X124988095Y-37523809D01*
X124988095Y-36952380D01*
X125083333Y-36761904D01*
X125178571Y-36666666D01*
X125369047Y-36571428D01*
X125750000Y-36571428D01*
X125940476Y-36666666D01*
X127750000Y-37904761D02*
X127750000Y-36857142D01*
X127654761Y-36666666D01*
X127464285Y-36571428D01*
X127083333Y-36571428D01*
X126892857Y-36666666D01*
X127750000Y-37809523D02*
X127559523Y-37904761D01*
X127083333Y-37904761D01*
X126892857Y-37809523D01*
X126797619Y-37619047D01*
X126797619Y-37428571D01*
X126892857Y-37238095D01*
X127083333Y-37142857D01*
X127559523Y-37142857D01*
X127750000Y-37047619D01*
X115871428Y-156621428D02*
X116480952Y-156621428D01*
X116176190Y-157002380D02*
X116176190Y-156240476D01*
X116747619Y-156002380D02*
X117014285Y-157002380D01*
X117280952Y-156002380D01*
X117509523Y-156097619D02*
X117547619Y-156050000D01*
X117623809Y-156002380D01*
X117814285Y-156002380D01*
X117890476Y-156050000D01*
X117928571Y-156097619D01*
X117966666Y-156192857D01*
X117966666Y-156288095D01*
X117928571Y-156430952D01*
X117471428Y-157002380D01*
X117966666Y-157002380D01*
X113752380Y-156002380D02*
X114019047Y-157002380D01*
X114285714Y-156002380D01*
X114476190Y-156002380D02*
X114971428Y-156002380D01*
X114704761Y-156383333D01*
X114819047Y-156383333D01*
X114895238Y-156430952D01*
X114933333Y-156478571D01*
X114971428Y-156573809D01*
X114971428Y-156811904D01*
X114933333Y-156907142D01*
X114895238Y-156954761D01*
X114819047Y-157002380D01*
X114590476Y-157002380D01*
X114514285Y-156954761D01*
X114476190Y-156907142D01*
X121747619Y-156002380D02*
X121366666Y-156002380D01*
X121328571Y-156478571D01*
X121366666Y-156430952D01*
X121442857Y-156383333D01*
X121633333Y-156383333D01*
X121709523Y-156430952D01*
X121747619Y-156478571D01*
X121785714Y-156573809D01*
X121785714Y-156811904D01*
X121747619Y-156907142D01*
X121709523Y-156954761D01*
X121633333Y-157002380D01*
X121442857Y-157002380D01*
X121366666Y-156954761D01*
X121328571Y-156907142D01*
X122014285Y-156002380D02*
X122280952Y-157002380D01*
X122547619Y-156002380D01*
X72883214Y-158350000D02*
X73597500Y-158350000D01*
X72740357Y-158778571D02*
X73240357Y-157278571D01*
X73740357Y-158778571D01*
X74240357Y-158778571D02*
X74240357Y-157778571D01*
X74240357Y-157921428D02*
X74311785Y-157850000D01*
X74454642Y-157778571D01*
X74668928Y-157778571D01*
X74811785Y-157850000D01*
X74883214Y-157992857D01*
X74883214Y-158778571D01*
X74883214Y-157992857D02*
X74954642Y-157850000D01*
X75097500Y-157778571D01*
X75311785Y-157778571D01*
X75454642Y-157850000D01*
X75526071Y-157992857D01*
X75526071Y-158778571D01*
X76240357Y-158778571D02*
X76240357Y-157778571D01*
X76240357Y-157278571D02*
X76168928Y-157350000D01*
X76240357Y-157421428D01*
X76311785Y-157350000D01*
X76240357Y-157278571D01*
X76240357Y-157421428D01*
X77597500Y-157778571D02*
X77597500Y-158992857D01*
X77526071Y-159135714D01*
X77454642Y-159207142D01*
X77311785Y-159278571D01*
X77097500Y-159278571D01*
X76954642Y-159207142D01*
X77597500Y-158707142D02*
X77454642Y-158778571D01*
X77168928Y-158778571D01*
X77026071Y-158707142D01*
X76954642Y-158635714D01*
X76883214Y-158492857D01*
X76883214Y-158064285D01*
X76954642Y-157921428D01*
X77026071Y-157850000D01*
X77168928Y-157778571D01*
X77454642Y-157778571D01*
X77597500Y-157850000D01*
X78954642Y-158778571D02*
X78954642Y-157992857D01*
X78883214Y-157850000D01*
X78740357Y-157778571D01*
X78454642Y-157778571D01*
X78311785Y-157850000D01*
X78954642Y-158707142D02*
X78811785Y-158778571D01*
X78454642Y-158778571D01*
X78311785Y-158707142D01*
X78240357Y-158564285D01*
X78240357Y-158421428D01*
X78311785Y-158278571D01*
X78454642Y-158207142D01*
X78811785Y-158207142D01*
X78954642Y-158135714D01*
X80811785Y-158778571D02*
X80811785Y-157278571D01*
X81383214Y-157278571D01*
X81526071Y-157350000D01*
X81597500Y-157421428D01*
X81668928Y-157564285D01*
X81668928Y-157778571D01*
X81597500Y-157921428D01*
X81526071Y-157992857D01*
X81383214Y-158064285D01*
X80811785Y-158064285D01*
X82240357Y-158707142D02*
X82454642Y-158778571D01*
X82811785Y-158778571D01*
X82954642Y-158707142D01*
X83026071Y-158635714D01*
X83097500Y-158492857D01*
X83097500Y-158350000D01*
X83026071Y-158207142D01*
X82954642Y-158135714D01*
X82811785Y-158064285D01*
X82526071Y-157992857D01*
X82383214Y-157921428D01*
X82311785Y-157850000D01*
X82240357Y-157707142D01*
X82240357Y-157564285D01*
X82311785Y-157421428D01*
X82383214Y-157350000D01*
X82526071Y-157278571D01*
X82883214Y-157278571D01*
X83097500Y-157350000D01*
X83740357Y-157278571D02*
X83740357Y-158492857D01*
X83811785Y-158635714D01*
X83883214Y-158707142D01*
X84026071Y-158778571D01*
X84311785Y-158778571D01*
X84454642Y-158707142D01*
X84526071Y-158635714D01*
X84597500Y-158492857D01*
X84597500Y-157278571D01*
X86240357Y-157778571D02*
X86811785Y-157778571D01*
X86454642Y-157278571D02*
X86454642Y-158564285D01*
X86526071Y-158707142D01*
X86668928Y-158778571D01*
X86811785Y-158778571D01*
X87526071Y-158778571D02*
X87383214Y-158707142D01*
X87311785Y-158635714D01*
X87240357Y-158492857D01*
X87240357Y-158064285D01*
X87311785Y-157921428D01*
X87383214Y-157850000D01*
X87526071Y-157778571D01*
X87740357Y-157778571D01*
X87883214Y-157850000D01*
X87954642Y-157921428D01*
X88026071Y-158064285D01*
X88026071Y-158492857D01*
X87954642Y-158635714D01*
X87883214Y-158707142D01*
X87740357Y-158778571D01*
X87526071Y-158778571D01*
X72954642Y-161178571D02*
X72954642Y-159678571D01*
X73454642Y-160750000D01*
X73954642Y-159678571D01*
X73954642Y-161178571D01*
X75240357Y-161107142D02*
X75097500Y-161178571D01*
X74811785Y-161178571D01*
X74668928Y-161107142D01*
X74597500Y-160964285D01*
X74597500Y-160392857D01*
X74668928Y-160250000D01*
X74811785Y-160178571D01*
X75097500Y-160178571D01*
X75240357Y-160250000D01*
X75311785Y-160392857D01*
X75311785Y-160535714D01*
X74597500Y-160678571D01*
X76597500Y-161178571D02*
X76597500Y-160392857D01*
X76526071Y-160250000D01*
X76383214Y-160178571D01*
X76097500Y-160178571D01*
X75954642Y-160250000D01*
X76597500Y-161107142D02*
X76454642Y-161178571D01*
X76097500Y-161178571D01*
X75954642Y-161107142D01*
X75883214Y-160964285D01*
X75883214Y-160821428D01*
X75954642Y-160678571D01*
X76097500Y-160607142D01*
X76454642Y-160607142D01*
X76597500Y-160535714D01*
X77311785Y-160178571D02*
X77311785Y-161178571D01*
X77311785Y-160321428D02*
X77383214Y-160250000D01*
X77526071Y-160178571D01*
X77740357Y-160178571D01*
X77883214Y-160250000D01*
X77954642Y-160392857D01*
X77954642Y-161178571D01*
X78526071Y-160178571D02*
X78811785Y-161178571D01*
X79097500Y-160464285D01*
X79383214Y-161178571D01*
X79668928Y-160178571D01*
X80811785Y-161107142D02*
X80668928Y-161178571D01*
X80383214Y-161178571D01*
X80240357Y-161107142D01*
X80168928Y-160964285D01*
X80168928Y-160392857D01*
X80240357Y-160250000D01*
X80383214Y-160178571D01*
X80668928Y-160178571D01*
X80811785Y-160250000D01*
X80883214Y-160392857D01*
X80883214Y-160535714D01*
X80168928Y-160678571D01*
X81740357Y-161178571D02*
X81597500Y-161107142D01*
X81526071Y-160964285D01*
X81526071Y-159678571D01*
X82526071Y-161178571D02*
X82383214Y-161107142D01*
X82311785Y-160964285D01*
X82311785Y-159678571D01*
X85097500Y-161178571D02*
X84597500Y-160464285D01*
X84240357Y-161178571D02*
X84240357Y-159678571D01*
X84811785Y-159678571D01*
X84954642Y-159750000D01*
X85026071Y-159821428D01*
X85097500Y-159964285D01*
X85097500Y-160178571D01*
X85026071Y-160321428D01*
X84954642Y-160392857D01*
X84811785Y-160464285D01*
X84240357Y-160464285D01*
X85526071Y-159678571D02*
X86383214Y-159678571D01*
X85954642Y-161178571D02*
X85954642Y-159678571D01*
X86883214Y-160607142D02*
X88026071Y-160607142D01*
X89454642Y-159678571D02*
X88740357Y-159678571D01*
X88668928Y-160392857D01*
X88740357Y-160321428D01*
X88883214Y-160250000D01*
X89240357Y-160250000D01*
X89383214Y-160321428D01*
X89454642Y-160392857D01*
X89526071Y-160535714D01*
X89526071Y-160892857D01*
X89454642Y-161035714D01*
X89383214Y-161107142D01*
X89240357Y-161178571D01*
X88883214Y-161178571D01*
X88740357Y-161107142D01*
X88668928Y-161035714D01*
X90454642Y-159678571D02*
X90597500Y-159678571D01*
X90740357Y-159750000D01*
X90811785Y-159821428D01*
X90883214Y-159964285D01*
X90954642Y-160250000D01*
X90954642Y-160607142D01*
X90883214Y-160892857D01*
X90811785Y-161035714D01*
X90740357Y-161107142D01*
X90597500Y-161178571D01*
X90454642Y-161178571D01*
X90311785Y-161107142D01*
X90240357Y-161035714D01*
X90168928Y-160892857D01*
X90097500Y-160607142D01*
X90097500Y-160250000D01*
X90168928Y-159964285D01*
X90240357Y-159821428D01*
X90311785Y-159750000D01*
X90454642Y-159678571D01*
X92097500Y-160392857D02*
X92311785Y-160464285D01*
X92383214Y-160535714D01*
X92454642Y-160678571D01*
X92454642Y-160892857D01*
X92383214Y-161035714D01*
X92311785Y-161107142D01*
X92168928Y-161178571D01*
X91597500Y-161178571D01*
X91597500Y-159678571D01*
X92097500Y-159678571D01*
X92240357Y-159750000D01*
X92311785Y-159821428D01*
X92383214Y-159964285D01*
X92383214Y-160107142D01*
X92311785Y-160250000D01*
X92240357Y-160321428D01*
X92097500Y-160392857D01*
X91597500Y-160392857D01*
X73597500Y-163578571D02*
X73597500Y-162792857D01*
X73526071Y-162650000D01*
X73383214Y-162578571D01*
X73097500Y-162578571D01*
X72954642Y-162650000D01*
X73597500Y-163507142D02*
X73454642Y-163578571D01*
X73097500Y-163578571D01*
X72954642Y-163507142D01*
X72883214Y-163364285D01*
X72883214Y-163221428D01*
X72954642Y-163078571D01*
X73097500Y-163007142D01*
X73454642Y-163007142D01*
X73597500Y-162935714D01*
X74954642Y-163578571D02*
X74954642Y-162078571D01*
X74954642Y-163507142D02*
X74811785Y-163578571D01*
X74526071Y-163578571D01*
X74383214Y-163507142D01*
X74311785Y-163435714D01*
X74240357Y-163292857D01*
X74240357Y-162864285D01*
X74311785Y-162721428D01*
X74383214Y-162650000D01*
X74526071Y-162578571D01*
X74811785Y-162578571D01*
X74954642Y-162650000D01*
X76311785Y-163578571D02*
X76311785Y-162792857D01*
X76240357Y-162650000D01*
X76097500Y-162578571D01*
X75811785Y-162578571D01*
X75668928Y-162650000D01*
X76311785Y-163507142D02*
X76168928Y-163578571D01*
X75811785Y-163578571D01*
X75668928Y-163507142D01*
X75597500Y-163364285D01*
X75597500Y-163221428D01*
X75668928Y-163078571D01*
X75811785Y-163007142D01*
X76168928Y-163007142D01*
X76311785Y-162935714D01*
X77026071Y-162578571D02*
X77026071Y-164078571D01*
X77026071Y-162650000D02*
X77168928Y-162578571D01*
X77454642Y-162578571D01*
X77597500Y-162650000D01*
X77668928Y-162721428D01*
X77740357Y-162864285D01*
X77740357Y-163292857D01*
X77668928Y-163435714D01*
X77597500Y-163507142D01*
X77454642Y-163578571D01*
X77168928Y-163578571D01*
X77026071Y-163507142D01*
X78168928Y-162578571D02*
X78740357Y-162578571D01*
X78383214Y-162078571D02*
X78383214Y-163364285D01*
X78454642Y-163507142D01*
X78597500Y-163578571D01*
X78740357Y-163578571D01*
X79454642Y-163578571D02*
X79311785Y-163507142D01*
X79240357Y-163435714D01*
X79168928Y-163292857D01*
X79168928Y-162864285D01*
X79240357Y-162721428D01*
X79311785Y-162650000D01*
X79454642Y-162578571D01*
X79668928Y-162578571D01*
X79811785Y-162650000D01*
X79883214Y-162721428D01*
X79954642Y-162864285D01*
X79954642Y-163292857D01*
X79883214Y-163435714D01*
X79811785Y-163507142D01*
X79668928Y-163578571D01*
X79454642Y-163578571D01*
X80597500Y-163578571D02*
X80597500Y-162578571D01*
X80597500Y-162864285D02*
X80668928Y-162721428D01*
X80740357Y-162650000D01*
X80883214Y-162578571D01*
X81026071Y-162578571D01*
X82526071Y-162578571D02*
X82883214Y-163578571D01*
X83240357Y-162578571D01*
X84597500Y-163578571D02*
X83740357Y-163578571D01*
X84168928Y-163578571D02*
X84168928Y-162078571D01*
X84026071Y-162292857D01*
X83883214Y-162435714D01*
X83740357Y-162507142D01*
X85240357Y-163435714D02*
X85311785Y-163507142D01*
X85240357Y-163578571D01*
X85168928Y-163507142D01*
X85240357Y-163435714D01*
X85240357Y-163578571D01*
X86240357Y-162078571D02*
X86383214Y-162078571D01*
X86526071Y-162150000D01*
X86597500Y-162221428D01*
X86668928Y-162364285D01*
X86740357Y-162650000D01*
X86740357Y-163007142D01*
X86668928Y-163292857D01*
X86597500Y-163435714D01*
X86526071Y-163507142D01*
X86383214Y-163578571D01*
X86240357Y-163578571D01*
X86097500Y-163507142D01*
X86026071Y-163435714D01*
X85954642Y-163292857D01*
X85883214Y-163007142D01*
X85883214Y-162650000D01*
X85954642Y-162364285D01*
X86026071Y-162221428D01*
X86097500Y-162150000D01*
X86240357Y-162078571D01*
X88168928Y-163578571D02*
X87311785Y-163578571D01*
X87740357Y-163578571D02*
X87740357Y-162078571D01*
X87597500Y-162292857D01*
X87454642Y-162435714D01*
X87311785Y-162507142D01*
X115797619Y-176404761D02*
X115797619Y-174404761D01*
X116464285Y-175833333D01*
X117130952Y-174404761D01*
X117130952Y-176404761D01*
X118940476Y-176404761D02*
X118940476Y-175357142D01*
X118845238Y-175166666D01*
X118654761Y-175071428D01*
X118273809Y-175071428D01*
X118083333Y-175166666D01*
X118940476Y-176309523D02*
X118750000Y-176404761D01*
X118273809Y-176404761D01*
X118083333Y-176309523D01*
X117988095Y-176119047D01*
X117988095Y-175928571D01*
X118083333Y-175738095D01*
X118273809Y-175642857D01*
X118750000Y-175642857D01*
X118940476Y-175547619D01*
X119892857Y-176404761D02*
X119892857Y-175071428D01*
X119892857Y-174404761D02*
X119797619Y-174500000D01*
X119892857Y-174595238D01*
X119988095Y-174500000D01*
X119892857Y-174404761D01*
X119892857Y-174595238D01*
X120845238Y-175071428D02*
X120845238Y-176404761D01*
X120845238Y-175261904D02*
X120940476Y-175166666D01*
X121130952Y-175071428D01*
X121416666Y-175071428D01*
X121607142Y-175166666D01*
X121702380Y-175357142D01*
X121702380Y-176404761D01*
X122559523Y-176309523D02*
X122750000Y-176404761D01*
X123130952Y-176404761D01*
X123321428Y-176309523D01*
X123416666Y-176119047D01*
X123416666Y-176023809D01*
X123321428Y-175833333D01*
X123130952Y-175738095D01*
X122845238Y-175738095D01*
X122654761Y-175642857D01*
X122559523Y-175452380D01*
X122559523Y-175357142D01*
X122654761Y-175166666D01*
X122845238Y-175071428D01*
X123130952Y-175071428D01*
X123321428Y-175166666D01*
X125797619Y-176404761D02*
X125797619Y-174404761D01*
X126559523Y-174404761D01*
X126750000Y-174500000D01*
X126845238Y-174595238D01*
X126940476Y-174785714D01*
X126940476Y-175071428D01*
X126845238Y-175261904D01*
X126750000Y-175357142D01*
X126559523Y-175452380D01*
X125797619Y-175452380D01*
X128083333Y-176404761D02*
X127892857Y-176309523D01*
X127797619Y-176214285D01*
X127702380Y-176023809D01*
X127702380Y-175452380D01*
X127797619Y-175261904D01*
X127892857Y-175166666D01*
X128083333Y-175071428D01*
X128369047Y-175071428D01*
X128559523Y-175166666D01*
X128654761Y-175261904D01*
X128750000Y-175452380D01*
X128750000Y-176023809D01*
X128654761Y-176214285D01*
X128559523Y-176309523D01*
X128369047Y-176404761D01*
X128083333Y-176404761D01*
X129416666Y-175071428D02*
X129797619Y-176404761D01*
X130178571Y-175452380D01*
X130559523Y-176404761D01*
X130940476Y-175071428D01*
X132464285Y-176309523D02*
X132273809Y-176404761D01*
X131892857Y-176404761D01*
X131702380Y-176309523D01*
X131607142Y-176119047D01*
X131607142Y-175357142D01*
X131702380Y-175166666D01*
X131892857Y-175071428D01*
X132273809Y-175071428D01*
X132464285Y-175166666D01*
X132559523Y-175357142D01*
X132559523Y-175547619D01*
X131607142Y-175738095D01*
X133416666Y-176404761D02*
X133416666Y-175071428D01*
X133416666Y-175452380D02*
X133511904Y-175261904D01*
X133607142Y-175166666D01*
X133797619Y-175071428D01*
X133988095Y-175071428D01*
D12*
%TO.C,5VFan2*%
X144840000Y-44170000D02*
X144840000Y-43570000D01*
X143240000Y-44170000D02*
X144840000Y-44170000D01*
X143240000Y-43570000D02*
X143240000Y-44170000D01*
X142300000Y-44170000D02*
X142300000Y-43570000D01*
X140700000Y-44170000D02*
X142300000Y-44170000D01*
X140700000Y-43570000D02*
X140700000Y-44170000D01*
X143790000Y-49590000D02*
X143790000Y-48590000D01*
X141750000Y-49590000D02*
X141750000Y-48590000D01*
X143790000Y-48060000D02*
X144040000Y-48590000D01*
X141750000Y-48060000D02*
X143790000Y-48060000D01*
X141500000Y-48590000D02*
X141750000Y-48060000D01*
X144040000Y-48590000D02*
X144040000Y-49590000D01*
X141500000Y-48590000D02*
X144040000Y-48590000D01*
X141500000Y-49590000D02*
X141500000Y-48590000D01*
X139830000Y-44600000D02*
X139830000Y-48600000D01*
X145420000Y-43570000D02*
X140120000Y-43570000D01*
X145420000Y-49590000D02*
X145420000Y-43570000D01*
X140120000Y-49590000D02*
X145420000Y-49590000D01*
X140120000Y-43570000D02*
X140120000Y-49590000D01*
%TO.C,FromMeanwell1*%
X111140000Y-164030000D02*
X111140000Y-164630000D01*
X112740000Y-164030000D02*
X111140000Y-164030000D01*
X112740000Y-164630000D02*
X112740000Y-164030000D01*
X113680000Y-164030000D02*
X113680000Y-164630000D01*
X115280000Y-164030000D02*
X113680000Y-164030000D01*
X115280000Y-164630000D02*
X115280000Y-164030000D01*
X116220000Y-164030000D02*
X116220000Y-164630000D01*
X117820000Y-164030000D02*
X116220000Y-164030000D01*
X117820000Y-164630000D02*
X117820000Y-164030000D01*
X118760000Y-164030000D02*
X118760000Y-164630000D01*
X120360000Y-164030000D02*
X118760000Y-164030000D01*
X120360000Y-164630000D02*
X120360000Y-164030000D01*
X121300000Y-164030000D02*
X121300000Y-164630000D01*
X122900000Y-164030000D02*
X121300000Y-164030000D01*
X122900000Y-164630000D02*
X122900000Y-164030000D01*
X112190000Y-158610000D02*
X112190000Y-159610000D01*
X121850000Y-158610000D02*
X121850000Y-159610000D01*
X112190000Y-160140000D02*
X111940000Y-159610000D01*
X121850000Y-160140000D02*
X112190000Y-160140000D01*
X122100000Y-159610000D02*
X121850000Y-160140000D01*
X111940000Y-159610000D02*
X111940000Y-158610000D01*
X122100000Y-159610000D02*
X111940000Y-159610000D01*
X122100000Y-158610000D02*
X122100000Y-159610000D01*
X123770000Y-163600000D02*
X123770000Y-159600000D01*
X110560000Y-164630000D02*
X123480000Y-164630000D01*
X110560000Y-158610000D02*
X110560000Y-164630000D01*
X123480000Y-158610000D02*
X110560000Y-158610000D01*
X123480000Y-164630000D02*
X123480000Y-158610000D01*
%TO.C,ToAmiga1*%
X128360000Y-42870000D02*
X128360000Y-42270000D01*
X126760000Y-42870000D02*
X128360000Y-42870000D01*
X126760000Y-42270000D02*
X126760000Y-42870000D01*
X125820000Y-42870000D02*
X125820000Y-42270000D01*
X124220000Y-42870000D02*
X125820000Y-42870000D01*
X124220000Y-42270000D02*
X124220000Y-42870000D01*
X123280000Y-42870000D02*
X123280000Y-42270000D01*
X121680000Y-42870000D02*
X123280000Y-42870000D01*
X121680000Y-42270000D02*
X121680000Y-42870000D01*
X120740000Y-42870000D02*
X120740000Y-42270000D01*
X119140000Y-42870000D02*
X120740000Y-42870000D01*
X119140000Y-42270000D02*
X119140000Y-42870000D01*
X118200000Y-42870000D02*
X118200000Y-42270000D01*
X116600000Y-42870000D02*
X118200000Y-42870000D01*
X116600000Y-42270000D02*
X116600000Y-42870000D01*
X127310000Y-48290000D02*
X127310000Y-47290000D01*
X117650000Y-48290000D02*
X117650000Y-47290000D01*
X127310000Y-46760000D02*
X127560000Y-47290000D01*
X117650000Y-46760000D02*
X127310000Y-46760000D01*
X117400000Y-47290000D02*
X117650000Y-46760000D01*
X127560000Y-47290000D02*
X127560000Y-48290000D01*
X117400000Y-47290000D02*
X127560000Y-47290000D01*
X117400000Y-48290000D02*
X117400000Y-47290000D01*
X115730000Y-43300000D02*
X115730000Y-47300000D01*
X128940000Y-42270000D02*
X116020000Y-42270000D01*
X128940000Y-48290000D02*
X128940000Y-42270000D01*
X116020000Y-48290000D02*
X128940000Y-48290000D01*
X116020000Y-42270000D02*
X116020000Y-48290000D01*
%TO.C,5VFan1*%
X159740000Y-159270000D02*
X159740000Y-158670000D01*
X158140000Y-159270000D02*
X159740000Y-159270000D01*
X158140000Y-158670000D02*
X158140000Y-159270000D01*
X157200000Y-159270000D02*
X157200000Y-158670000D01*
X155600000Y-159270000D02*
X157200000Y-159270000D01*
X155600000Y-158670000D02*
X155600000Y-159270000D01*
X158690000Y-164690000D02*
X158690000Y-163690000D01*
X156650000Y-164690000D02*
X156650000Y-163690000D01*
X158690000Y-163160000D02*
X158940000Y-163690000D01*
X156650000Y-163160000D02*
X158690000Y-163160000D01*
X156400000Y-163690000D02*
X156650000Y-163160000D01*
X158940000Y-163690000D02*
X158940000Y-164690000D01*
X156400000Y-163690000D02*
X158940000Y-163690000D01*
X156400000Y-164690000D02*
X156400000Y-163690000D01*
X154730000Y-159700000D02*
X154730000Y-163700000D01*
X160320000Y-158670000D02*
X155020000Y-158670000D01*
X160320000Y-164690000D02*
X160320000Y-158670000D01*
X155020000Y-164690000D02*
X160320000Y-164690000D01*
X155020000Y-158670000D02*
X155020000Y-164690000D01*
%TO.C,12VFan1*%
X80540000Y-40170000D02*
X80540000Y-39570000D01*
X78940000Y-40170000D02*
X80540000Y-40170000D01*
X78940000Y-39570000D02*
X78940000Y-40170000D01*
X78000000Y-40170000D02*
X78000000Y-39570000D01*
X76400000Y-40170000D02*
X78000000Y-40170000D01*
X76400000Y-39570000D02*
X76400000Y-40170000D01*
X79490000Y-45590000D02*
X79490000Y-44590000D01*
X77450000Y-45590000D02*
X77450000Y-44590000D01*
X79490000Y-44060000D02*
X79740000Y-44590000D01*
X77450000Y-44060000D02*
X79490000Y-44060000D01*
X77200000Y-44590000D02*
X77450000Y-44060000D01*
X79740000Y-44590000D02*
X79740000Y-45590000D01*
X77200000Y-44590000D02*
X79740000Y-44590000D01*
X77200000Y-45590000D02*
X77200000Y-44590000D01*
X75530000Y-40600000D02*
X75530000Y-44600000D01*
X81120000Y-39570000D02*
X75820000Y-39570000D01*
X81120000Y-45590000D02*
X81120000Y-39570000D01*
X75820000Y-45590000D02*
X81120000Y-45590000D01*
X75820000Y-39570000D02*
X75820000Y-45590000D01*
%TO.C,Amiga Connector Plug*%
X84000000Y-59250000D02*
X82000000Y-57250000D01*
X86000000Y-57250000D02*
X84000000Y-59250000D01*
X86000000Y-57250000D02*
X96000000Y-57250000D01*
X77000000Y-77250000D02*
G75*
G03*
X77000000Y-77250000I-1000000J0D01*
G01*
X93000000Y-77250000D02*
G75*
G03*
X93000000Y-77250000I-1000000J0D01*
G01*
X93000000Y-61250000D02*
G75*
G03*
X93000000Y-61250000I-1000000J0D01*
G01*
X77000000Y-61250000D02*
G75*
G03*
X77000000Y-61250000I-1000000J0D01*
G01*
X85000000Y-69250000D02*
G75*
G03*
X85000000Y-69250000I-1000000J0D01*
G01*
X72000000Y-57250000D02*
X72000000Y-81250000D01*
X82000000Y-57250000D02*
X72000000Y-57250000D01*
X96000000Y-81250000D02*
X96000000Y-57250000D01*
X72000000Y-81250000D02*
X96000000Y-81250000D01*
%TO.C,Meanwell RT-50B*%
X166500000Y-153500000D02*
X69500000Y-153500000D01*
X166500000Y-54500000D02*
X166500000Y-153500000D01*
X69500000Y-54500000D02*
X166500000Y-54500000D01*
X69500000Y-153500000D02*
X69500000Y-54500000D01*
%TO.C,5VFan2*%
D10*
X140770000Y-41932380D02*
X140293809Y-41932380D01*
X140246190Y-42408571D01*
X140293809Y-42360952D01*
X140389047Y-42313333D01*
X140627142Y-42313333D01*
X140722380Y-42360952D01*
X140770000Y-42408571D01*
X140817619Y-42503809D01*
X140817619Y-42741904D01*
X140770000Y-42837142D01*
X140722380Y-42884761D01*
X140627142Y-42932380D01*
X140389047Y-42932380D01*
X140293809Y-42884761D01*
X140246190Y-42837142D01*
X141103333Y-41932380D02*
X141436666Y-42932380D01*
X141770000Y-41932380D01*
X142436666Y-42408571D02*
X142103333Y-42408571D01*
X142103333Y-42932380D02*
X142103333Y-41932380D01*
X142579523Y-41932380D01*
X143389047Y-42932380D02*
X143389047Y-42408571D01*
X143341428Y-42313333D01*
X143246190Y-42265714D01*
X143055714Y-42265714D01*
X142960476Y-42313333D01*
X143389047Y-42884761D02*
X143293809Y-42932380D01*
X143055714Y-42932380D01*
X142960476Y-42884761D01*
X142912857Y-42789523D01*
X142912857Y-42694285D01*
X142960476Y-42599047D01*
X143055714Y-42551428D01*
X143293809Y-42551428D01*
X143389047Y-42503809D01*
X143865238Y-42265714D02*
X143865238Y-42932380D01*
X143865238Y-42360952D02*
X143912857Y-42313333D01*
X144008095Y-42265714D01*
X144150952Y-42265714D01*
X144246190Y-42313333D01*
X144293809Y-42408571D01*
X144293809Y-42932380D01*
X144722380Y-42027619D02*
X144770000Y-41980000D01*
X144865238Y-41932380D01*
X145103333Y-41932380D01*
X145198571Y-41980000D01*
X145246190Y-42027619D01*
X145293809Y-42122857D01*
X145293809Y-42218095D01*
X145246190Y-42360952D01*
X144674761Y-42932380D01*
X145293809Y-42932380D01*
%TO.C,FromMeanwell1*%
X111877142Y-165648571D02*
X111543809Y-165648571D01*
X111543809Y-166172380D02*
X111543809Y-165172380D01*
X112020000Y-165172380D01*
X112400952Y-166172380D02*
X112400952Y-165505714D01*
X112400952Y-165696190D02*
X112448571Y-165600952D01*
X112496190Y-165553333D01*
X112591428Y-165505714D01*
X112686666Y-165505714D01*
X113162857Y-166172380D02*
X113067619Y-166124761D01*
X113020000Y-166077142D01*
X112972380Y-165981904D01*
X112972380Y-165696190D01*
X113020000Y-165600952D01*
X113067619Y-165553333D01*
X113162857Y-165505714D01*
X113305714Y-165505714D01*
X113400952Y-165553333D01*
X113448571Y-165600952D01*
X113496190Y-165696190D01*
X113496190Y-165981904D01*
X113448571Y-166077142D01*
X113400952Y-166124761D01*
X113305714Y-166172380D01*
X113162857Y-166172380D01*
X113924761Y-166172380D02*
X113924761Y-165505714D01*
X113924761Y-165600952D02*
X113972380Y-165553333D01*
X114067619Y-165505714D01*
X114210476Y-165505714D01*
X114305714Y-165553333D01*
X114353333Y-165648571D01*
X114353333Y-166172380D01*
X114353333Y-165648571D02*
X114400952Y-165553333D01*
X114496190Y-165505714D01*
X114639047Y-165505714D01*
X114734285Y-165553333D01*
X114781904Y-165648571D01*
X114781904Y-166172380D01*
X115258095Y-166172380D02*
X115258095Y-165172380D01*
X115591428Y-165886666D01*
X115924761Y-165172380D01*
X115924761Y-166172380D01*
X116781904Y-166124761D02*
X116686666Y-166172380D01*
X116496190Y-166172380D01*
X116400952Y-166124761D01*
X116353333Y-166029523D01*
X116353333Y-165648571D01*
X116400952Y-165553333D01*
X116496190Y-165505714D01*
X116686666Y-165505714D01*
X116781904Y-165553333D01*
X116829523Y-165648571D01*
X116829523Y-165743809D01*
X116353333Y-165839047D01*
X117686666Y-166172380D02*
X117686666Y-165648571D01*
X117639047Y-165553333D01*
X117543809Y-165505714D01*
X117353333Y-165505714D01*
X117258095Y-165553333D01*
X117686666Y-166124761D02*
X117591428Y-166172380D01*
X117353333Y-166172380D01*
X117258095Y-166124761D01*
X117210476Y-166029523D01*
X117210476Y-165934285D01*
X117258095Y-165839047D01*
X117353333Y-165791428D01*
X117591428Y-165791428D01*
X117686666Y-165743809D01*
X118162857Y-165505714D02*
X118162857Y-166172380D01*
X118162857Y-165600952D02*
X118210476Y-165553333D01*
X118305714Y-165505714D01*
X118448571Y-165505714D01*
X118543809Y-165553333D01*
X118591428Y-165648571D01*
X118591428Y-166172380D01*
X118972380Y-165505714D02*
X119162857Y-166172380D01*
X119353333Y-165696190D01*
X119543809Y-166172380D01*
X119734285Y-165505714D01*
X120496190Y-166124761D02*
X120400952Y-166172380D01*
X120210476Y-166172380D01*
X120115238Y-166124761D01*
X120067619Y-166029523D01*
X120067619Y-165648571D01*
X120115238Y-165553333D01*
X120210476Y-165505714D01*
X120400952Y-165505714D01*
X120496190Y-165553333D01*
X120543809Y-165648571D01*
X120543809Y-165743809D01*
X120067619Y-165839047D01*
X121115238Y-166172380D02*
X121020000Y-166124761D01*
X120972380Y-166029523D01*
X120972380Y-165172380D01*
X121639047Y-166172380D02*
X121543809Y-166124761D01*
X121496190Y-166029523D01*
X121496190Y-165172380D01*
X122543809Y-166172380D02*
X121972380Y-166172380D01*
X122258095Y-166172380D02*
X122258095Y-165172380D01*
X122162857Y-165315238D01*
X122067619Y-165410476D01*
X121972380Y-165458095D01*
%TO.C,ToAmiga1*%
X119027619Y-40632380D02*
X119599047Y-40632380D01*
X119313333Y-41632380D02*
X119313333Y-40632380D01*
X120075238Y-41632380D02*
X119980000Y-41584761D01*
X119932380Y-41537142D01*
X119884761Y-41441904D01*
X119884761Y-41156190D01*
X119932380Y-41060952D01*
X119980000Y-41013333D01*
X120075238Y-40965714D01*
X120218095Y-40965714D01*
X120313333Y-41013333D01*
X120360952Y-41060952D01*
X120408571Y-41156190D01*
X120408571Y-41441904D01*
X120360952Y-41537142D01*
X120313333Y-41584761D01*
X120218095Y-41632380D01*
X120075238Y-41632380D01*
X120789523Y-41346666D02*
X121265714Y-41346666D01*
X120694285Y-41632380D02*
X121027619Y-40632380D01*
X121360952Y-41632380D01*
X121694285Y-41632380D02*
X121694285Y-40965714D01*
X121694285Y-41060952D02*
X121741904Y-41013333D01*
X121837142Y-40965714D01*
X121980000Y-40965714D01*
X122075238Y-41013333D01*
X122122857Y-41108571D01*
X122122857Y-41632380D01*
X122122857Y-41108571D02*
X122170476Y-41013333D01*
X122265714Y-40965714D01*
X122408571Y-40965714D01*
X122503809Y-41013333D01*
X122551428Y-41108571D01*
X122551428Y-41632380D01*
X123027619Y-41632380D02*
X123027619Y-40965714D01*
X123027619Y-40632380D02*
X122980000Y-40680000D01*
X123027619Y-40727619D01*
X123075238Y-40680000D01*
X123027619Y-40632380D01*
X123027619Y-40727619D01*
X123932380Y-40965714D02*
X123932380Y-41775238D01*
X123884761Y-41870476D01*
X123837142Y-41918095D01*
X123741904Y-41965714D01*
X123599047Y-41965714D01*
X123503809Y-41918095D01*
X123932380Y-41584761D02*
X123837142Y-41632380D01*
X123646666Y-41632380D01*
X123551428Y-41584761D01*
X123503809Y-41537142D01*
X123456190Y-41441904D01*
X123456190Y-41156190D01*
X123503809Y-41060952D01*
X123551428Y-41013333D01*
X123646666Y-40965714D01*
X123837142Y-40965714D01*
X123932380Y-41013333D01*
X124837142Y-41632380D02*
X124837142Y-41108571D01*
X124789523Y-41013333D01*
X124694285Y-40965714D01*
X124503809Y-40965714D01*
X124408571Y-41013333D01*
X124837142Y-41584761D02*
X124741904Y-41632380D01*
X124503809Y-41632380D01*
X124408571Y-41584761D01*
X124360952Y-41489523D01*
X124360952Y-41394285D01*
X124408571Y-41299047D01*
X124503809Y-41251428D01*
X124741904Y-41251428D01*
X124837142Y-41203809D01*
X125837142Y-41632380D02*
X125265714Y-41632380D01*
X125551428Y-41632380D02*
X125551428Y-40632380D01*
X125456190Y-40775238D01*
X125360952Y-40870476D01*
X125265714Y-40918095D01*
%TO.C,5VFan1*%
X155670000Y-157032380D02*
X155193809Y-157032380D01*
X155146190Y-157508571D01*
X155193809Y-157460952D01*
X155289047Y-157413333D01*
X155527142Y-157413333D01*
X155622380Y-157460952D01*
X155670000Y-157508571D01*
X155717619Y-157603809D01*
X155717619Y-157841904D01*
X155670000Y-157937142D01*
X155622380Y-157984761D01*
X155527142Y-158032380D01*
X155289047Y-158032380D01*
X155193809Y-157984761D01*
X155146190Y-157937142D01*
X156003333Y-157032380D02*
X156336666Y-158032380D01*
X156670000Y-157032380D01*
X157336666Y-157508571D02*
X157003333Y-157508571D01*
X157003333Y-158032380D02*
X157003333Y-157032380D01*
X157479523Y-157032380D01*
X158289047Y-158032380D02*
X158289047Y-157508571D01*
X158241428Y-157413333D01*
X158146190Y-157365714D01*
X157955714Y-157365714D01*
X157860476Y-157413333D01*
X158289047Y-157984761D02*
X158193809Y-158032380D01*
X157955714Y-158032380D01*
X157860476Y-157984761D01*
X157812857Y-157889523D01*
X157812857Y-157794285D01*
X157860476Y-157699047D01*
X157955714Y-157651428D01*
X158193809Y-157651428D01*
X158289047Y-157603809D01*
X158765238Y-157365714D02*
X158765238Y-158032380D01*
X158765238Y-157460952D02*
X158812857Y-157413333D01*
X158908095Y-157365714D01*
X159050952Y-157365714D01*
X159146190Y-157413333D01*
X159193809Y-157508571D01*
X159193809Y-158032380D01*
X160193809Y-158032380D02*
X159622380Y-158032380D01*
X159908095Y-158032380D02*
X159908095Y-157032380D01*
X159812857Y-157175238D01*
X159717619Y-157270476D01*
X159622380Y-157318095D01*
%TO.C,12VFan1*%
X76041428Y-38932380D02*
X75470000Y-38932380D01*
X75755714Y-38932380D02*
X75755714Y-37932380D01*
X75660476Y-38075238D01*
X75565238Y-38170476D01*
X75470000Y-38218095D01*
X76422380Y-38027619D02*
X76470000Y-37980000D01*
X76565238Y-37932380D01*
X76803333Y-37932380D01*
X76898571Y-37980000D01*
X76946190Y-38027619D01*
X76993809Y-38122857D01*
X76993809Y-38218095D01*
X76946190Y-38360952D01*
X76374761Y-38932380D01*
X76993809Y-38932380D01*
X77279523Y-37932380D02*
X77612857Y-38932380D01*
X77946190Y-37932380D01*
X78612857Y-38408571D02*
X78279523Y-38408571D01*
X78279523Y-38932380D02*
X78279523Y-37932380D01*
X78755714Y-37932380D01*
X79565238Y-38932380D02*
X79565238Y-38408571D01*
X79517619Y-38313333D01*
X79422380Y-38265714D01*
X79231904Y-38265714D01*
X79136666Y-38313333D01*
X79565238Y-38884761D02*
X79470000Y-38932380D01*
X79231904Y-38932380D01*
X79136666Y-38884761D01*
X79089047Y-38789523D01*
X79089047Y-38694285D01*
X79136666Y-38599047D01*
X79231904Y-38551428D01*
X79470000Y-38551428D01*
X79565238Y-38503809D01*
X80041428Y-38265714D02*
X80041428Y-38932380D01*
X80041428Y-38360952D02*
X80089047Y-38313333D01*
X80184285Y-38265714D01*
X80327142Y-38265714D01*
X80422380Y-38313333D01*
X80470000Y-38408571D01*
X80470000Y-38932380D01*
X81470000Y-38932380D02*
X80898571Y-38932380D01*
X81184285Y-38932380D02*
X81184285Y-37932380D01*
X81089047Y-38075238D01*
X80993809Y-38170476D01*
X80898571Y-38218095D01*
%TO.C,Amiga Connector Plug*%
X75761904Y-56416666D02*
X76238095Y-56416666D01*
X75666666Y-56702380D02*
X76000000Y-55702380D01*
X76333333Y-56702380D01*
X76666666Y-56702380D02*
X76666666Y-56035714D01*
X76666666Y-56130952D02*
X76714285Y-56083333D01*
X76809523Y-56035714D01*
X76952380Y-56035714D01*
X77047619Y-56083333D01*
X77095238Y-56178571D01*
X77095238Y-56702380D01*
X77095238Y-56178571D02*
X77142857Y-56083333D01*
X77238095Y-56035714D01*
X77380952Y-56035714D01*
X77476190Y-56083333D01*
X77523809Y-56178571D01*
X77523809Y-56702380D01*
X78000000Y-56702380D02*
X78000000Y-56035714D01*
X78000000Y-55702380D02*
X77952380Y-55750000D01*
X78000000Y-55797619D01*
X78047619Y-55750000D01*
X78000000Y-55702380D01*
X78000000Y-55797619D01*
X78904761Y-56035714D02*
X78904761Y-56845238D01*
X78857142Y-56940476D01*
X78809523Y-56988095D01*
X78714285Y-57035714D01*
X78571428Y-57035714D01*
X78476190Y-56988095D01*
X78904761Y-56654761D02*
X78809523Y-56702380D01*
X78619047Y-56702380D01*
X78523809Y-56654761D01*
X78476190Y-56607142D01*
X78428571Y-56511904D01*
X78428571Y-56226190D01*
X78476190Y-56130952D01*
X78523809Y-56083333D01*
X78619047Y-56035714D01*
X78809523Y-56035714D01*
X78904761Y-56083333D01*
X79809523Y-56702380D02*
X79809523Y-56178571D01*
X79761904Y-56083333D01*
X79666666Y-56035714D01*
X79476190Y-56035714D01*
X79380952Y-56083333D01*
X79809523Y-56654761D02*
X79714285Y-56702380D01*
X79476190Y-56702380D01*
X79380952Y-56654761D01*
X79333333Y-56559523D01*
X79333333Y-56464285D01*
X79380952Y-56369047D01*
X79476190Y-56321428D01*
X79714285Y-56321428D01*
X79809523Y-56273809D01*
X81619047Y-56607142D02*
X81571428Y-56654761D01*
X81428571Y-56702380D01*
X81333333Y-56702380D01*
X81190476Y-56654761D01*
X81095238Y-56559523D01*
X81047619Y-56464285D01*
X81000000Y-56273809D01*
X81000000Y-56130952D01*
X81047619Y-55940476D01*
X81095238Y-55845238D01*
X81190476Y-55750000D01*
X81333333Y-55702380D01*
X81428571Y-55702380D01*
X81571428Y-55750000D01*
X81619047Y-55797619D01*
X82190476Y-56702380D02*
X82095238Y-56654761D01*
X82047619Y-56607142D01*
X82000000Y-56511904D01*
X82000000Y-56226190D01*
X82047619Y-56130952D01*
X82095238Y-56083333D01*
X82190476Y-56035714D01*
X82333333Y-56035714D01*
X82428571Y-56083333D01*
X82476190Y-56130952D01*
X82523809Y-56226190D01*
X82523809Y-56511904D01*
X82476190Y-56607142D01*
X82428571Y-56654761D01*
X82333333Y-56702380D01*
X82190476Y-56702380D01*
X82952380Y-56035714D02*
X82952380Y-56702380D01*
X82952380Y-56130952D02*
X83000000Y-56083333D01*
X83095238Y-56035714D01*
X83238095Y-56035714D01*
X83333333Y-56083333D01*
X83380952Y-56178571D01*
X83380952Y-56702380D01*
X83857142Y-56035714D02*
X83857142Y-56702380D01*
X83857142Y-56130952D02*
X83904761Y-56083333D01*
X84000000Y-56035714D01*
X84142857Y-56035714D01*
X84238095Y-56083333D01*
X84285714Y-56178571D01*
X84285714Y-56702380D01*
X85142857Y-56654761D02*
X85047619Y-56702380D01*
X84857142Y-56702380D01*
X84761904Y-56654761D01*
X84714285Y-56559523D01*
X84714285Y-56178571D01*
X84761904Y-56083333D01*
X84857142Y-56035714D01*
X85047619Y-56035714D01*
X85142857Y-56083333D01*
X85190476Y-56178571D01*
X85190476Y-56273809D01*
X84714285Y-56369047D01*
X86047619Y-56654761D02*
X85952380Y-56702380D01*
X85761904Y-56702380D01*
X85666666Y-56654761D01*
X85619047Y-56607142D01*
X85571428Y-56511904D01*
X85571428Y-56226190D01*
X85619047Y-56130952D01*
X85666666Y-56083333D01*
X85761904Y-56035714D01*
X85952380Y-56035714D01*
X86047619Y-56083333D01*
X86333333Y-56035714D02*
X86714285Y-56035714D01*
X86476190Y-55702380D02*
X86476190Y-56559523D01*
X86523809Y-56654761D01*
X86619047Y-56702380D01*
X86714285Y-56702380D01*
X87190476Y-56702380D02*
X87095238Y-56654761D01*
X87047619Y-56607142D01*
X87000000Y-56511904D01*
X87000000Y-56226190D01*
X87047619Y-56130952D01*
X87095238Y-56083333D01*
X87190476Y-56035714D01*
X87333333Y-56035714D01*
X87428571Y-56083333D01*
X87476190Y-56130952D01*
X87523809Y-56226190D01*
X87523809Y-56511904D01*
X87476190Y-56607142D01*
X87428571Y-56654761D01*
X87333333Y-56702380D01*
X87190476Y-56702380D01*
X87952380Y-56702380D02*
X87952380Y-56035714D01*
X87952380Y-56226190D02*
X88000000Y-56130952D01*
X88047619Y-56083333D01*
X88142857Y-56035714D01*
X88238095Y-56035714D01*
X89333333Y-56702380D02*
X89333333Y-55702380D01*
X89714285Y-55702380D01*
X89809523Y-55750000D01*
X89857142Y-55797619D01*
X89904761Y-55892857D01*
X89904761Y-56035714D01*
X89857142Y-56130952D01*
X89809523Y-56178571D01*
X89714285Y-56226190D01*
X89333333Y-56226190D01*
X90476190Y-56702380D02*
X90380952Y-56654761D01*
X90333333Y-56559523D01*
X90333333Y-55702380D01*
X91285714Y-56035714D02*
X91285714Y-56702380D01*
X90857142Y-56035714D02*
X90857142Y-56559523D01*
X90904761Y-56654761D01*
X91000000Y-56702380D01*
X91142857Y-56702380D01*
X91238095Y-56654761D01*
X91285714Y-56607142D01*
X92190476Y-56035714D02*
X92190476Y-56845238D01*
X92142857Y-56940476D01*
X92095238Y-56988095D01*
X92000000Y-57035714D01*
X91857142Y-57035714D01*
X91761904Y-56988095D01*
X92190476Y-56654761D02*
X92095238Y-56702380D01*
X91904761Y-56702380D01*
X91809523Y-56654761D01*
X91761904Y-56607142D01*
X91714285Y-56511904D01*
X91714285Y-56226190D01*
X91761904Y-56130952D01*
X91809523Y-56083333D01*
X91904761Y-56035714D01*
X92095238Y-56035714D01*
X92190476Y-56083333D01*
X73392857Y-75857142D02*
X73607142Y-75928571D01*
X73964285Y-75928571D01*
X74107142Y-75857142D01*
X74178571Y-75785714D01*
X74250000Y-75642857D01*
X74250000Y-75500000D01*
X74178571Y-75357142D01*
X74107142Y-75285714D01*
X73964285Y-75214285D01*
X73678571Y-75142857D01*
X73535714Y-75071428D01*
X73464285Y-75000000D01*
X73392857Y-74857142D01*
X73392857Y-74714285D01*
X73464285Y-74571428D01*
X73535714Y-74500000D01*
X73678571Y-74428571D01*
X74035714Y-74428571D01*
X74250000Y-74500000D01*
X74892857Y-75928571D02*
X74892857Y-74428571D01*
X74892857Y-75142857D02*
X75750000Y-75142857D01*
X75750000Y-75928571D02*
X75750000Y-74428571D01*
X76464285Y-75928571D02*
X76464285Y-74428571D01*
X77178571Y-75142857D02*
X77678571Y-75142857D01*
X77892857Y-75928571D02*
X77178571Y-75928571D01*
X77178571Y-74428571D01*
X77892857Y-74428571D01*
X79250000Y-75928571D02*
X78535714Y-75928571D01*
X78535714Y-74428571D01*
X79750000Y-75928571D02*
X79750000Y-74428571D01*
X80107142Y-74428571D01*
X80321428Y-74500000D01*
X80464285Y-74642857D01*
X80535714Y-74785714D01*
X80607142Y-75071428D01*
X80607142Y-75285714D01*
X80535714Y-75571428D01*
X80464285Y-75714285D01*
X80321428Y-75857142D01*
X80107142Y-75928571D01*
X79750000Y-75928571D01*
X90071428Y-75357142D02*
X91214285Y-75357142D01*
X90642857Y-75928571D02*
X90642857Y-74785714D01*
X92642857Y-74428571D02*
X91928571Y-74428571D01*
X91857142Y-75142857D01*
X91928571Y-75071428D01*
X92071428Y-75000000D01*
X92428571Y-75000000D01*
X92571428Y-75071428D01*
X92642857Y-75142857D01*
X92714285Y-75285714D01*
X92714285Y-75642857D01*
X92642857Y-75785714D01*
X92571428Y-75857142D01*
X92428571Y-75928571D01*
X92071428Y-75928571D01*
X91928571Y-75857142D01*
X91857142Y-75785714D01*
X93142857Y-74428571D02*
X93642857Y-75928571D01*
X94142857Y-74428571D01*
X81357142Y-67357142D02*
X82500000Y-67357142D01*
X84000000Y-67928571D02*
X83142857Y-67928571D01*
X83571428Y-67928571D02*
X83571428Y-66428571D01*
X83428571Y-66642857D01*
X83285714Y-66785714D01*
X83142857Y-66857142D01*
X84571428Y-66571428D02*
X84642857Y-66500000D01*
X84785714Y-66428571D01*
X85142857Y-66428571D01*
X85285714Y-66500000D01*
X85357142Y-66571428D01*
X85428571Y-66714285D01*
X85428571Y-66857142D01*
X85357142Y-67071428D01*
X84500000Y-67928571D01*
X85428571Y-67928571D01*
X85857142Y-66428571D02*
X86357142Y-67928571D01*
X86857142Y-66428571D01*
X90857142Y-58500000D02*
X90714285Y-58428571D01*
X90500000Y-58428571D01*
X90285714Y-58500000D01*
X90142857Y-58642857D01*
X90071428Y-58785714D01*
X90000000Y-59071428D01*
X90000000Y-59285714D01*
X90071428Y-59571428D01*
X90142857Y-59714285D01*
X90285714Y-59857142D01*
X90500000Y-59928571D01*
X90642857Y-59928571D01*
X90857142Y-59857142D01*
X90928571Y-59785714D01*
X90928571Y-59285714D01*
X90642857Y-59285714D01*
X91571428Y-59928571D02*
X91571428Y-58428571D01*
X92428571Y-59928571D01*
X92428571Y-58428571D01*
X93142857Y-59928571D02*
X93142857Y-58428571D01*
X93500000Y-58428571D01*
X93714285Y-58500000D01*
X93857142Y-58642857D01*
X93928571Y-58785714D01*
X94000000Y-59071428D01*
X94000000Y-59285714D01*
X93928571Y-59571428D01*
X93857142Y-59714285D01*
X93714285Y-59857142D01*
X93500000Y-59928571D01*
X93142857Y-59928571D01*
X73357142Y-59357142D02*
X74500000Y-59357142D01*
X73928571Y-59928571D02*
X73928571Y-58785714D01*
X76000000Y-59928571D02*
X75142857Y-59928571D01*
X75571428Y-59928571D02*
X75571428Y-58428571D01*
X75428571Y-58642857D01*
X75285714Y-58785714D01*
X75142857Y-58857142D01*
X76571428Y-58571428D02*
X76642857Y-58500000D01*
X76785714Y-58428571D01*
X77142857Y-58428571D01*
X77285714Y-58500000D01*
X77357142Y-58571428D01*
X77428571Y-58714285D01*
X77428571Y-58857142D01*
X77357142Y-59071428D01*
X76500000Y-59928571D01*
X77428571Y-59928571D01*
X77857142Y-58428571D02*
X78357142Y-59928571D01*
X78857142Y-58428571D01*
%TO.C,Meanwell RT-50B*%
X105247619Y-101404761D02*
X105247619Y-99404761D01*
X105914285Y-100833333D01*
X106580952Y-99404761D01*
X106580952Y-101404761D01*
X108295238Y-101309523D02*
X108104761Y-101404761D01*
X107723809Y-101404761D01*
X107533333Y-101309523D01*
X107438095Y-101119047D01*
X107438095Y-100357142D01*
X107533333Y-100166666D01*
X107723809Y-100071428D01*
X108104761Y-100071428D01*
X108295238Y-100166666D01*
X108390476Y-100357142D01*
X108390476Y-100547619D01*
X107438095Y-100738095D01*
X110104761Y-101404761D02*
X110104761Y-100357142D01*
X110009523Y-100166666D01*
X109819047Y-100071428D01*
X109438095Y-100071428D01*
X109247619Y-100166666D01*
X110104761Y-101309523D02*
X109914285Y-101404761D01*
X109438095Y-101404761D01*
X109247619Y-101309523D01*
X109152380Y-101119047D01*
X109152380Y-100928571D01*
X109247619Y-100738095D01*
X109438095Y-100642857D01*
X109914285Y-100642857D01*
X110104761Y-100547619D01*
X111057142Y-100071428D02*
X111057142Y-101404761D01*
X111057142Y-100261904D02*
X111152380Y-100166666D01*
X111342857Y-100071428D01*
X111628571Y-100071428D01*
X111819047Y-100166666D01*
X111914285Y-100357142D01*
X111914285Y-101404761D01*
X112676190Y-100071428D02*
X113057142Y-101404761D01*
X113438095Y-100452380D01*
X113819047Y-101404761D01*
X114200000Y-100071428D01*
X115723809Y-101309523D02*
X115533333Y-101404761D01*
X115152380Y-101404761D01*
X114961904Y-101309523D01*
X114866666Y-101119047D01*
X114866666Y-100357142D01*
X114961904Y-100166666D01*
X115152380Y-100071428D01*
X115533333Y-100071428D01*
X115723809Y-100166666D01*
X115819047Y-100357142D01*
X115819047Y-100547619D01*
X114866666Y-100738095D01*
X116961904Y-101404761D02*
X116771428Y-101309523D01*
X116676190Y-101119047D01*
X116676190Y-99404761D01*
X118009523Y-101404761D02*
X117819047Y-101309523D01*
X117723809Y-101119047D01*
X117723809Y-99404761D01*
X121438095Y-101404761D02*
X120771428Y-100452380D01*
X120295238Y-101404761D02*
X120295238Y-99404761D01*
X121057142Y-99404761D01*
X121247619Y-99500000D01*
X121342857Y-99595238D01*
X121438095Y-99785714D01*
X121438095Y-100071428D01*
X121342857Y-100261904D01*
X121247619Y-100357142D01*
X121057142Y-100452380D01*
X120295238Y-100452380D01*
X122009523Y-99404761D02*
X123152380Y-99404761D01*
X122580952Y-101404761D02*
X122580952Y-99404761D01*
X123819047Y-100642857D02*
X125342857Y-100642857D01*
X127247619Y-99404761D02*
X126295238Y-99404761D01*
X126200000Y-100357142D01*
X126295238Y-100261904D01*
X126485714Y-100166666D01*
X126961904Y-100166666D01*
X127152380Y-100261904D01*
X127247619Y-100357142D01*
X127342857Y-100547619D01*
X127342857Y-101023809D01*
X127247619Y-101214285D01*
X127152380Y-101309523D01*
X126961904Y-101404761D01*
X126485714Y-101404761D01*
X126295238Y-101309523D01*
X126200000Y-101214285D01*
X128580952Y-99404761D02*
X128771428Y-99404761D01*
X128961904Y-99500000D01*
X129057142Y-99595238D01*
X129152380Y-99785714D01*
X129247619Y-100166666D01*
X129247619Y-100642857D01*
X129152380Y-101023809D01*
X129057142Y-101214285D01*
X128961904Y-101309523D01*
X128771428Y-101404761D01*
X128580952Y-101404761D01*
X128390476Y-101309523D01*
X128295238Y-101214285D01*
X128200000Y-101023809D01*
X128104761Y-100642857D01*
X128104761Y-100166666D01*
X128200000Y-99785714D01*
X128295238Y-99595238D01*
X128390476Y-99500000D01*
X128580952Y-99404761D01*
X130771428Y-100357142D02*
X131057142Y-100452380D01*
X131152380Y-100547619D01*
X131247619Y-100738095D01*
X131247619Y-101023809D01*
X131152380Y-101214285D01*
X131057142Y-101309523D01*
X130866666Y-101404761D01*
X130104761Y-101404761D01*
X130104761Y-99404761D01*
X130771428Y-99404761D01*
X130961904Y-99500000D01*
X131057142Y-99595238D01*
X131152380Y-99785714D01*
X131152380Y-99976190D01*
X131057142Y-100166666D01*
X130961904Y-100261904D01*
X130771428Y-100357142D01*
X130104761Y-100357142D01*
X110702380Y-147535714D02*
X109702380Y-147535714D01*
X110702380Y-146964285D01*
X109702380Y-146964285D01*
X110607142Y-145916666D02*
X110654761Y-145964285D01*
X110702380Y-146107142D01*
X110702380Y-146202380D01*
X110654761Y-146345238D01*
X110559523Y-146440476D01*
X110464285Y-146488095D01*
X110273809Y-146535714D01*
X110130952Y-146535714D01*
X109940476Y-146488095D01*
X109845238Y-146440476D01*
X109750000Y-146345238D01*
X109702380Y-146202380D01*
X109702380Y-146107142D01*
X109750000Y-145964285D01*
X109797619Y-145916666D01*
X101928571Y-146964285D02*
X101928571Y-146630952D01*
X102452380Y-146488095D02*
X102452380Y-146964285D01*
X101452380Y-146964285D01*
X101452380Y-146488095D01*
X94452380Y-147035714D02*
X93452380Y-147035714D01*
X94452380Y-146464285D01*
X93452380Y-146464285D01*
X85952380Y-146440476D02*
X85952380Y-146916666D01*
X84952380Y-146916666D01*
X117702380Y-147559523D02*
X118702380Y-147226190D01*
X117702380Y-146892857D01*
X117702380Y-146654761D02*
X117702380Y-146035714D01*
X118083333Y-146369047D01*
X118083333Y-146226190D01*
X118130952Y-146130952D01*
X118178571Y-146083333D01*
X118273809Y-146035714D01*
X118511904Y-146035714D01*
X118607142Y-146083333D01*
X118654761Y-146130952D01*
X118702380Y-146226190D01*
X118702380Y-146511904D01*
X118654761Y-146607142D01*
X118607142Y-146654761D01*
X126821428Y-148285714D02*
X126821428Y-147523809D01*
X127202380Y-147904761D02*
X126440476Y-147904761D01*
X126202380Y-147190476D02*
X127202380Y-146857142D01*
X126202380Y-146523809D01*
X126297619Y-146238095D02*
X126250000Y-146190476D01*
X126202380Y-146095238D01*
X126202380Y-145857142D01*
X126250000Y-145761904D01*
X126297619Y-145714285D01*
X126392857Y-145666666D01*
X126488095Y-145666666D01*
X126630952Y-145714285D01*
X127202380Y-146285714D01*
X127202380Y-145666666D01*
X135107142Y-147535714D02*
X135154761Y-147583333D01*
X135202380Y-147726190D01*
X135202380Y-147821428D01*
X135154761Y-147964285D01*
X135059523Y-148059523D01*
X134964285Y-148107142D01*
X134773809Y-148154761D01*
X134630952Y-148154761D01*
X134440476Y-148107142D01*
X134345238Y-148059523D01*
X134250000Y-147964285D01*
X134202380Y-147821428D01*
X134202380Y-147726190D01*
X134250000Y-147583333D01*
X134297619Y-147535714D01*
X134202380Y-146916666D02*
X134202380Y-146726190D01*
X134250000Y-146630952D01*
X134345238Y-146535714D01*
X134535714Y-146488095D01*
X134869047Y-146488095D01*
X135059523Y-146535714D01*
X135154761Y-146630952D01*
X135202380Y-146726190D01*
X135202380Y-146916666D01*
X135154761Y-147011904D01*
X135059523Y-147107142D01*
X134869047Y-147154761D01*
X134535714Y-147154761D01*
X134345238Y-147107142D01*
X134250000Y-147011904D01*
X134202380Y-146916666D01*
X135202380Y-146059523D02*
X134202380Y-146059523D01*
X134916666Y-145726190D01*
X134202380Y-145392857D01*
X135202380Y-145392857D01*
X142452380Y-146940476D02*
X142452380Y-147416666D01*
X142928571Y-147464285D01*
X142880952Y-147416666D01*
X142833333Y-147321428D01*
X142833333Y-147083333D01*
X142880952Y-146988095D01*
X142928571Y-146940476D01*
X143023809Y-146892857D01*
X143261904Y-146892857D01*
X143357142Y-146940476D01*
X143404761Y-146988095D01*
X143452380Y-147083333D01*
X143452380Y-147321428D01*
X143404761Y-147416666D01*
X143357142Y-147464285D01*
X142452380Y-146607142D02*
X143452380Y-146273809D01*
X142452380Y-145940476D01*
X108500000Y-151452380D02*
X109071428Y-151452380D01*
X108785714Y-152452380D02*
X108785714Y-151452380D01*
X109785714Y-152404761D02*
X109690476Y-152452380D01*
X109500000Y-152452380D01*
X109404761Y-152404761D01*
X109357142Y-152309523D01*
X109357142Y-151928571D01*
X109404761Y-151833333D01*
X109500000Y-151785714D01*
X109690476Y-151785714D01*
X109785714Y-151833333D01*
X109833333Y-151928571D01*
X109833333Y-152023809D01*
X109357142Y-152119047D01*
X110261904Y-152452380D02*
X110261904Y-151785714D01*
X110261904Y-151976190D02*
X110309523Y-151880952D01*
X110357142Y-151833333D01*
X110452380Y-151785714D01*
X110547619Y-151785714D01*
X110880952Y-152452380D02*
X110880952Y-151785714D01*
X110880952Y-151880952D02*
X110928571Y-151833333D01*
X111023809Y-151785714D01*
X111166666Y-151785714D01*
X111261904Y-151833333D01*
X111309523Y-151928571D01*
X111309523Y-152452380D01*
X111309523Y-151928571D02*
X111357142Y-151833333D01*
X111452380Y-151785714D01*
X111595238Y-151785714D01*
X111690476Y-151833333D01*
X111738095Y-151928571D01*
X111738095Y-152452380D01*
X112214285Y-152452380D02*
X112214285Y-151785714D01*
X112214285Y-151452380D02*
X112166666Y-151500000D01*
X112214285Y-151547619D01*
X112261904Y-151500000D01*
X112214285Y-151452380D01*
X112214285Y-151547619D01*
X112690476Y-151785714D02*
X112690476Y-152452380D01*
X112690476Y-151880952D02*
X112738095Y-151833333D01*
X112833333Y-151785714D01*
X112976190Y-151785714D01*
X113071428Y-151833333D01*
X113119047Y-151928571D01*
X113119047Y-152452380D01*
X114023809Y-152452380D02*
X114023809Y-151928571D01*
X113976190Y-151833333D01*
X113880952Y-151785714D01*
X113690476Y-151785714D01*
X113595238Y-151833333D01*
X114023809Y-152404761D02*
X113928571Y-152452380D01*
X113690476Y-152452380D01*
X113595238Y-152404761D01*
X113547619Y-152309523D01*
X113547619Y-152214285D01*
X113595238Y-152119047D01*
X113690476Y-152071428D01*
X113928571Y-152071428D01*
X114023809Y-152023809D01*
X114642857Y-152452380D02*
X114547619Y-152404761D01*
X114500000Y-152309523D01*
X114500000Y-151452380D01*
X114976190Y-152404761D02*
X115071428Y-152452380D01*
X115261904Y-152452380D01*
X115357142Y-152404761D01*
X115404761Y-152309523D01*
X115404761Y-152261904D01*
X115357142Y-152166666D01*
X115261904Y-152119047D01*
X115119047Y-152119047D01*
X115023809Y-152071428D01*
X114976190Y-151976190D01*
X114976190Y-151928571D01*
X115023809Y-151833333D01*
X115119047Y-151785714D01*
X115261904Y-151785714D01*
X115357142Y-151833333D01*
%TD*%
M02*
