%TF.GenerationSoftware,KiCad,Pcbnew,(5.1.6)-1*%
%TF.CreationDate,2020-08-16T12:36:38+01:00*%
%TF.ProjectId,KiKadAmigaMeanwell,4b694b61-6441-46d6-9967-614d65616e77,1.00*%
%TF.SameCoordinates,Original*%
%TF.FileFunction,Copper,L2,Bot*%
%TF.FilePolarity,Positive*%
%FSLAX46Y46*%
G04 Gerber Fmt 4.6, Leading zero omitted, Abs format (unit mm)*
G04 Created by KiCad (PCBNEW (5.1.6)-1) date 2020-08-16 12:36:38*
%MOMM*%
%LPD*%
G01*
G04 APERTURE LIST*
%TA.AperFunction,ComponentPad*%
%ADD10O,1.740000X2.190000*%
%TD*%
%TA.AperFunction,ComponentPad*%
%ADD11C,6.300000*%
%TD*%
%TA.AperFunction,WasherPad*%
%ADD12C,6.300000*%
%TD*%
%TA.AperFunction,Conductor*%
%ADD13C,1.000000*%
%TD*%
%TA.AperFunction,Conductor*%
%ADD14C,0.350000*%
%TD*%
%TA.AperFunction,Conductor*%
%ADD15C,2.000000*%
%TD*%
G04 APERTURE END LIST*
D10*
%TO.P,5VFan2,2*%
%TO.N,GND*%
X144040000Y-46600000D03*
%TO.P,5VFan2,1*%
%TO.N,+5V*%
%TA.AperFunction,ComponentPad*%
G36*
G01*
X140630000Y-47445001D02*
X140630000Y-45754999D01*
G75*
G02*
X140879999Y-45505000I249999J0D01*
G01*
X142120001Y-45505000D01*
G75*
G02*
X142370000Y-45754999I0J-249999D01*
G01*
X142370000Y-47445001D01*
G75*
G02*
X142120001Y-47695000I-249999J0D01*
G01*
X140879999Y-47695000D01*
G75*
G02*
X140630000Y-47445001I0J249999D01*
G01*
G37*
%TD.AperFunction*%
%TD*%
%TO.P,FromMeanwell1,5*%
%TO.N,Net-(FromMeanwell1-Pad5)*%
X111940000Y-161600000D03*
%TO.P,FromMeanwell1,4*%
%TO.N,-12V*%
X114480000Y-161600000D03*
%TO.P,FromMeanwell1,3*%
%TO.N,+12V*%
X117020000Y-161600000D03*
%TO.P,FromMeanwell1,2*%
%TO.N,GND*%
X119560000Y-161600000D03*
%TO.P,FromMeanwell1,1*%
%TO.N,+5V*%
%TA.AperFunction,ComponentPad*%
G36*
G01*
X122970000Y-160754999D02*
X122970000Y-162445001D01*
G75*
G02*
X122720001Y-162695000I-249999J0D01*
G01*
X121479999Y-162695000D01*
G75*
G02*
X121230000Y-162445001I0J249999D01*
G01*
X121230000Y-160754999D01*
G75*
G02*
X121479999Y-160505000I249999J0D01*
G01*
X122720001Y-160505000D01*
G75*
G02*
X122970000Y-160754999I0J-249999D01*
G01*
G37*
%TD.AperFunction*%
%TD*%
%TO.P,ToAmiga1,5*%
%TO.N,+5V*%
X127560000Y-45300000D03*
%TO.P,ToAmiga1,4*%
%TO.N,GND*%
X125020000Y-45300000D03*
%TO.P,ToAmiga1,3*%
%TO.N,+12V*%
X122480000Y-45300000D03*
%TO.P,ToAmiga1,2*%
%TO.N,-12V*%
X119940000Y-45300000D03*
%TO.P,ToAmiga1,1*%
%TO.N,Earth*%
%TA.AperFunction,ComponentPad*%
G36*
G01*
X116530000Y-46145001D02*
X116530000Y-44454999D01*
G75*
G02*
X116779999Y-44205000I249999J0D01*
G01*
X118020001Y-44205000D01*
G75*
G02*
X118270000Y-44454999I0J-249999D01*
G01*
X118270000Y-46145001D01*
G75*
G02*
X118020001Y-46395000I-249999J0D01*
G01*
X116779999Y-46395000D01*
G75*
G02*
X116530000Y-46145001I0J249999D01*
G01*
G37*
%TD.AperFunction*%
%TD*%
%TO.P,5VFan1,2*%
%TO.N,GND*%
X158940000Y-161700000D03*
%TO.P,5VFan1,1*%
%TO.N,+5V*%
%TA.AperFunction,ComponentPad*%
G36*
G01*
X155530000Y-162545001D02*
X155530000Y-160854999D01*
G75*
G02*
X155779999Y-160605000I249999J0D01*
G01*
X157020001Y-160605000D01*
G75*
G02*
X157270000Y-160854999I0J-249999D01*
G01*
X157270000Y-162545001D01*
G75*
G02*
X157020001Y-162795000I-249999J0D01*
G01*
X155779999Y-162795000D01*
G75*
G02*
X155530000Y-162545001I0J249999D01*
G01*
G37*
%TD.AperFunction*%
%TD*%
%TO.P,12VFan1,2*%
%TO.N,GND*%
X79740000Y-42600000D03*
%TO.P,12VFan1,1*%
%TO.N,+12V*%
%TA.AperFunction,ComponentPad*%
G36*
G01*
X76330000Y-43445001D02*
X76330000Y-41754999D01*
G75*
G02*
X76579999Y-41505000I249999J0D01*
G01*
X77820001Y-41505000D01*
G75*
G02*
X78070000Y-41754999I0J-249999D01*
G01*
X78070000Y-43445001D01*
G75*
G02*
X77820001Y-43695000I-249999J0D01*
G01*
X76579999Y-43695000D01*
G75*
G02*
X76330000Y-43445001I0J249999D01*
G01*
G37*
%TD.AperFunction*%
%TD*%
D11*
%TO.P,Meanwell RT-50B,*%
%TO.N,Earth*%
X121000000Y-78000000D03*
D12*
%TO.N,*%
X121000000Y-133000000D03*
%TD*%
D13*
%TO.N,+12V*%
X117020000Y-161600000D02*
X117020000Y-157280000D01*
X117020000Y-157280000D02*
X134600000Y-139700000D01*
X134600000Y-139700000D02*
X134600000Y-62500000D01*
X122480000Y-50380000D02*
X122480000Y-45300000D01*
X134600000Y-62500000D02*
X122480000Y-50380000D01*
D14*
X115400000Y-41100000D02*
X122400000Y-41100000D01*
X122480000Y-41180000D02*
X122480000Y-45300000D01*
X83505000Y-50400000D02*
X111200000Y-50400000D01*
X111200000Y-50400000D02*
X115400000Y-46200000D01*
X115400000Y-46200000D02*
X115400000Y-41100000D01*
X83505000Y-48905000D02*
X77200000Y-42600000D01*
X83505000Y-50400000D02*
X83505000Y-48905000D01*
D15*
%TO.N,GND*%
X119560000Y-158505000D02*
X137500000Y-140565000D01*
X119560000Y-161600000D02*
X119560000Y-158505000D01*
X137500000Y-60875000D02*
X125020000Y-48395000D01*
X125020000Y-48395000D02*
X125020000Y-45300000D01*
X137500000Y-140565000D02*
X137500000Y-60875000D01*
X125000000Y-45280000D02*
X125020000Y-45300000D01*
D14*
X125000000Y-39500000D02*
X125000000Y-45280000D01*
X124900000Y-39500000D02*
X125000000Y-39500000D01*
X144040000Y-46600000D02*
X144040000Y-45624374D01*
X144040000Y-44540000D02*
X144040000Y-46600000D01*
X124900000Y-39500000D02*
X139000000Y-39500000D01*
X139000000Y-39500000D02*
X144040000Y-44540000D01*
X114000000Y-39500000D02*
X114000000Y-45500000D01*
X124900000Y-39500000D02*
X114000000Y-39500000D01*
X114000000Y-45500000D02*
X110600000Y-48900000D01*
X110600000Y-48900000D02*
X84700000Y-48900000D01*
X84700000Y-47560000D02*
X79740000Y-42600000D01*
X84700000Y-48900000D02*
X84700000Y-47560000D01*
X158300000Y-166300000D02*
X158940000Y-165660000D01*
X158940000Y-165660000D02*
X158940000Y-161700000D01*
X119700000Y-166300000D02*
X158300000Y-166300000D01*
X119700000Y-161740000D02*
X119560000Y-161600000D01*
X119700000Y-166300000D02*
X119700000Y-161740000D01*
D15*
%TO.N,+5V*%
X141549999Y-142350001D02*
X141549999Y-59289999D01*
X141549999Y-59289999D02*
X127560000Y-45300000D01*
X122300000Y-161600000D02*
X141549999Y-142350001D01*
D14*
X141500000Y-46600000D02*
X128860000Y-46600000D01*
X122100000Y-161600000D02*
X156300000Y-161600000D01*
D13*
%TO.N,-12V*%
X114480000Y-161600000D02*
X114480000Y-155020000D01*
X114480000Y-155020000D02*
X132100000Y-137400000D01*
X132100000Y-137400000D02*
X132100000Y-64200000D01*
X119940000Y-52040000D02*
X119940000Y-45300000D01*
X132100000Y-64200000D02*
X119940000Y-52040000D01*
D14*
%TO.N,Earth*%
X117400000Y-74400000D02*
X121000000Y-78000000D01*
X117400000Y-45300000D02*
X117400000Y-74400000D01*
%TD*%
M02*
