%TF.GenerationSoftware,KiCad,Pcbnew,(5.1.6)-1*%
%TF.CreationDate,2020-08-06T22:58:29+01:00*%
%TF.ProjectId,KiKadAmigaMeanwell,4b694b61-6441-46d6-9967-614d65616e77,1.00*%
%TF.SameCoordinates,Original*%
%TF.FileFunction,Legend,Bot*%
%TF.FilePolarity,Positive*%
%FSLAX46Y46*%
G04 Gerber Fmt 4.6, Leading zero omitted, Abs format (unit mm)*
G04 Created by KiCad (PCBNEW (5.1.6)-1) date 2020-08-06 22:58:29*
%MOMM*%
%LPD*%
G01*
G04 APERTURE LIST*
%ADD10C,0.150000*%
G04 APERTURE END LIST*
D10*
X105414404Y-59127380D02*
X105414404Y-58127380D01*
X104842976Y-59127380D02*
X105271547Y-58555952D01*
X104842976Y-58127380D02*
X105414404Y-58698809D01*
X104414404Y-58460714D02*
X104414404Y-59127380D01*
X104414404Y-58555952D02*
X104366785Y-58508333D01*
X104271547Y-58460714D01*
X104128690Y-58460714D01*
X104033452Y-58508333D01*
X103985833Y-58603571D01*
X103985833Y-59127380D01*
X103366785Y-59127380D02*
X103462023Y-59079761D01*
X103509642Y-59032142D01*
X103557261Y-58936904D01*
X103557261Y-58651190D01*
X103509642Y-58555952D01*
X103462023Y-58508333D01*
X103366785Y-58460714D01*
X103223928Y-58460714D01*
X103128690Y-58508333D01*
X103081071Y-58555952D01*
X103033452Y-58651190D01*
X103033452Y-58936904D01*
X103081071Y-59032142D01*
X103128690Y-59079761D01*
X103223928Y-59127380D01*
X103366785Y-59127380D01*
X102700119Y-58460714D02*
X102509642Y-59127380D01*
X102319166Y-58651190D01*
X102128690Y-59127380D01*
X101938214Y-58460714D01*
X101557261Y-58460714D02*
X101557261Y-59127380D01*
X101557261Y-58555952D02*
X101509642Y-58508333D01*
X101414404Y-58460714D01*
X101271547Y-58460714D01*
X101176309Y-58508333D01*
X101128690Y-58603571D01*
X101128690Y-59127380D01*
X99462023Y-59079761D02*
X99557261Y-59127380D01*
X99747738Y-59127380D01*
X99842976Y-59079761D01*
X99890595Y-59032142D01*
X99938214Y-58936904D01*
X99938214Y-58651190D01*
X99890595Y-58555952D01*
X99842976Y-58508333D01*
X99747738Y-58460714D01*
X99557261Y-58460714D01*
X99462023Y-58508333D01*
X98604880Y-59127380D02*
X98604880Y-58603571D01*
X98652500Y-58508333D01*
X98747738Y-58460714D01*
X98938214Y-58460714D01*
X99033452Y-58508333D01*
X98604880Y-59079761D02*
X98700119Y-59127380D01*
X98938214Y-59127380D01*
X99033452Y-59079761D01*
X99081071Y-58984523D01*
X99081071Y-58889285D01*
X99033452Y-58794047D01*
X98938214Y-58746428D01*
X98700119Y-58746428D01*
X98604880Y-58698809D01*
X98176309Y-59079761D02*
X98081071Y-59127380D01*
X97890595Y-59127380D01*
X97795357Y-59079761D01*
X97747738Y-58984523D01*
X97747738Y-58936904D01*
X97795357Y-58841666D01*
X97890595Y-58794047D01*
X98033452Y-58794047D01*
X98128690Y-58746428D01*
X98176309Y-58651190D01*
X98176309Y-58603571D01*
X98128690Y-58508333D01*
X98033452Y-58460714D01*
X97890595Y-58460714D01*
X97795357Y-58508333D01*
X96938214Y-59079761D02*
X97033452Y-59127380D01*
X97223928Y-59127380D01*
X97319166Y-59079761D01*
X97366785Y-58984523D01*
X97366785Y-58603571D01*
X97319166Y-58508333D01*
X97223928Y-58460714D01*
X97033452Y-58460714D01*
X96938214Y-58508333D01*
X96890595Y-58603571D01*
X96890595Y-58698809D01*
X97366785Y-58794047D01*
X95271547Y-59079761D02*
X95366785Y-59127380D01*
X95557261Y-59127380D01*
X95652500Y-59079761D01*
X95700119Y-59032142D01*
X95747738Y-58936904D01*
X95747738Y-58651190D01*
X95700119Y-58555952D01*
X95652500Y-58508333D01*
X95557261Y-58460714D01*
X95366785Y-58460714D01*
X95271547Y-58508333D01*
X94700119Y-59127380D02*
X94795357Y-59079761D01*
X94842976Y-59032142D01*
X94890595Y-58936904D01*
X94890595Y-58651190D01*
X94842976Y-58555952D01*
X94795357Y-58508333D01*
X94700119Y-58460714D01*
X94557261Y-58460714D01*
X94462023Y-58508333D01*
X94414404Y-58555952D01*
X94366785Y-58651190D01*
X94366785Y-58936904D01*
X94414404Y-59032142D01*
X94462023Y-59079761D01*
X94557261Y-59127380D01*
X94700119Y-59127380D01*
X93938214Y-59127380D02*
X93938214Y-58460714D01*
X93938214Y-58555952D02*
X93890595Y-58508333D01*
X93795357Y-58460714D01*
X93652500Y-58460714D01*
X93557261Y-58508333D01*
X93509642Y-58603571D01*
X93509642Y-59127380D01*
X93509642Y-58603571D02*
X93462023Y-58508333D01*
X93366785Y-58460714D01*
X93223928Y-58460714D01*
X93128690Y-58508333D01*
X93081071Y-58603571D01*
X93081071Y-59127380D01*
X92604880Y-58460714D02*
X92604880Y-59460714D01*
X92604880Y-58508333D02*
X92509642Y-58460714D01*
X92319166Y-58460714D01*
X92223928Y-58508333D01*
X92176309Y-58555952D01*
X92128690Y-58651190D01*
X92128690Y-58936904D01*
X92176309Y-59032142D01*
X92223928Y-59079761D01*
X92319166Y-59127380D01*
X92509642Y-59127380D01*
X92604880Y-59079761D01*
X91271547Y-59127380D02*
X91271547Y-58603571D01*
X91319166Y-58508333D01*
X91414404Y-58460714D01*
X91604880Y-58460714D01*
X91700119Y-58508333D01*
X91271547Y-59079761D02*
X91366785Y-59127380D01*
X91604880Y-59127380D01*
X91700119Y-59079761D01*
X91747738Y-58984523D01*
X91747738Y-58889285D01*
X91700119Y-58794047D01*
X91604880Y-58746428D01*
X91366785Y-58746428D01*
X91271547Y-58698809D01*
X90938214Y-58460714D02*
X90557261Y-58460714D01*
X90795357Y-58127380D02*
X90795357Y-58984523D01*
X90747738Y-59079761D01*
X90652500Y-59127380D01*
X90557261Y-59127380D01*
X90223928Y-59127380D02*
X90223928Y-58460714D01*
X90223928Y-58127380D02*
X90271547Y-58175000D01*
X90223928Y-58222619D01*
X90176309Y-58175000D01*
X90223928Y-58127380D01*
X90223928Y-58222619D01*
X89747738Y-59127380D02*
X89747738Y-58127380D01*
X89747738Y-58508333D02*
X89652500Y-58460714D01*
X89462023Y-58460714D01*
X89366785Y-58508333D01*
X89319166Y-58555952D01*
X89271547Y-58651190D01*
X89271547Y-58936904D01*
X89319166Y-59032142D01*
X89366785Y-59079761D01*
X89462023Y-59127380D01*
X89652500Y-59127380D01*
X89747738Y-59079761D01*
X88842976Y-59127380D02*
X88842976Y-58460714D01*
X88842976Y-58127380D02*
X88890595Y-58175000D01*
X88842976Y-58222619D01*
X88795357Y-58175000D01*
X88842976Y-58127380D01*
X88842976Y-58222619D01*
X88223928Y-59127380D02*
X88319166Y-59079761D01*
X88366785Y-58984523D01*
X88366785Y-58127380D01*
X87842976Y-59127380D02*
X87842976Y-58460714D01*
X87842976Y-58127380D02*
X87890595Y-58175000D01*
X87842976Y-58222619D01*
X87795357Y-58175000D01*
X87842976Y-58127380D01*
X87842976Y-58222619D01*
X87509642Y-58460714D02*
X87128690Y-58460714D01*
X87366785Y-58127380D02*
X87366785Y-58984523D01*
X87319166Y-59079761D01*
X87223928Y-59127380D01*
X87128690Y-59127380D01*
X86890595Y-58460714D02*
X86652500Y-59127380D01*
X86414404Y-58460714D02*
X86652500Y-59127380D01*
X86747738Y-59365476D01*
X86795357Y-59413095D01*
X86890595Y-59460714D01*
X86033452Y-59032142D02*
X85985833Y-59079761D01*
X86033452Y-59127380D01*
X86081071Y-59079761D01*
X86033452Y-59032142D01*
X86033452Y-59127380D01*
X86033452Y-58508333D02*
X85985833Y-58555952D01*
X86033452Y-58603571D01*
X86081071Y-58555952D01*
X86033452Y-58508333D01*
X86033452Y-58603571D01*
X105462023Y-60491666D02*
X104985833Y-60491666D01*
X105557261Y-60777380D02*
X105223928Y-59777380D01*
X104890595Y-60777380D01*
X104652500Y-59777380D02*
X104033452Y-59777380D01*
X104366785Y-60158333D01*
X104223928Y-60158333D01*
X104128690Y-60205952D01*
X104081071Y-60253571D01*
X104033452Y-60348809D01*
X104033452Y-60586904D01*
X104081071Y-60682142D01*
X104128690Y-60729761D01*
X104223928Y-60777380D01*
X104509642Y-60777380D01*
X104604880Y-60729761D01*
X104652500Y-60682142D01*
X103414404Y-59777380D02*
X103319166Y-59777380D01*
X103223928Y-59825000D01*
X103176309Y-59872619D01*
X103128690Y-59967857D01*
X103081071Y-60158333D01*
X103081071Y-60396428D01*
X103128690Y-60586904D01*
X103176309Y-60682142D01*
X103223928Y-60729761D01*
X103319166Y-60777380D01*
X103414404Y-60777380D01*
X103509642Y-60729761D01*
X103557261Y-60682142D01*
X103604880Y-60586904D01*
X103652500Y-60396428D01*
X103652500Y-60158333D01*
X103604880Y-59967857D01*
X103557261Y-59872619D01*
X103509642Y-59825000D01*
X103414404Y-59777380D01*
X102462023Y-59777380D02*
X102366785Y-59777380D01*
X102271547Y-59825000D01*
X102223928Y-59872619D01*
X102176309Y-59967857D01*
X102128690Y-60158333D01*
X102128690Y-60396428D01*
X102176309Y-60586904D01*
X102223928Y-60682142D01*
X102271547Y-60729761D01*
X102366785Y-60777380D01*
X102462023Y-60777380D01*
X102557261Y-60729761D01*
X102604880Y-60682142D01*
X102652500Y-60586904D01*
X102700119Y-60396428D01*
X102700119Y-60158333D01*
X102652500Y-59967857D01*
X102604880Y-59872619D01*
X102557261Y-59825000D01*
X102462023Y-59777380D01*
X100985833Y-59729761D02*
X101842976Y-61015476D01*
X100223928Y-59777380D02*
X100414404Y-59777380D01*
X100509642Y-59825000D01*
X100557261Y-59872619D01*
X100652500Y-60015476D01*
X100700119Y-60205952D01*
X100700119Y-60586904D01*
X100652500Y-60682142D01*
X100604880Y-60729761D01*
X100509642Y-60777380D01*
X100319166Y-60777380D01*
X100223928Y-60729761D01*
X100176309Y-60682142D01*
X100128690Y-60586904D01*
X100128690Y-60348809D01*
X100176309Y-60253571D01*
X100223928Y-60205952D01*
X100319166Y-60158333D01*
X100509642Y-60158333D01*
X100604880Y-60205952D01*
X100652500Y-60253571D01*
X100700119Y-60348809D01*
X99509642Y-59777380D02*
X99414404Y-59777380D01*
X99319166Y-59825000D01*
X99271547Y-59872619D01*
X99223928Y-59967857D01*
X99176309Y-60158333D01*
X99176309Y-60396428D01*
X99223928Y-60586904D01*
X99271547Y-60682142D01*
X99319166Y-60729761D01*
X99414404Y-60777380D01*
X99509642Y-60777380D01*
X99604880Y-60729761D01*
X99652500Y-60682142D01*
X99700119Y-60586904D01*
X99747738Y-60396428D01*
X99747738Y-60158333D01*
X99700119Y-59967857D01*
X99652500Y-59872619D01*
X99604880Y-59825000D01*
X99509642Y-59777380D01*
X98557261Y-59777380D02*
X98462023Y-59777380D01*
X98366785Y-59825000D01*
X98319166Y-59872619D01*
X98271547Y-59967857D01*
X98223928Y-60158333D01*
X98223928Y-60396428D01*
X98271547Y-60586904D01*
X98319166Y-60682142D01*
X98366785Y-60729761D01*
X98462023Y-60777380D01*
X98557261Y-60777380D01*
X98652500Y-60729761D01*
X98700119Y-60682142D01*
X98747738Y-60586904D01*
X98795357Y-60396428D01*
X98795357Y-60158333D01*
X98747738Y-59967857D01*
X98700119Y-59872619D01*
X98652500Y-59825000D01*
X98557261Y-59777380D01*
X97033452Y-60777380D02*
X97033452Y-59777380D01*
X96652500Y-59777380D01*
X96557261Y-59825000D01*
X96509642Y-59872619D01*
X96462023Y-59967857D01*
X96462023Y-60110714D01*
X96509642Y-60205952D01*
X96557261Y-60253571D01*
X96652500Y-60301190D01*
X97033452Y-60301190D01*
X95890595Y-60777380D02*
X95985833Y-60729761D01*
X96033452Y-60682142D01*
X96081071Y-60586904D01*
X96081071Y-60301190D01*
X96033452Y-60205952D01*
X95985833Y-60158333D01*
X95890595Y-60110714D01*
X95747738Y-60110714D01*
X95652500Y-60158333D01*
X95604880Y-60205952D01*
X95557261Y-60301190D01*
X95557261Y-60586904D01*
X95604880Y-60682142D01*
X95652500Y-60729761D01*
X95747738Y-60777380D01*
X95890595Y-60777380D01*
X95223928Y-60110714D02*
X95033452Y-60777380D01*
X94842976Y-60301190D01*
X94652500Y-60777380D01*
X94462023Y-60110714D01*
X93700119Y-60729761D02*
X93795357Y-60777380D01*
X93985833Y-60777380D01*
X94081071Y-60729761D01*
X94128690Y-60634523D01*
X94128690Y-60253571D01*
X94081071Y-60158333D01*
X93985833Y-60110714D01*
X93795357Y-60110714D01*
X93700119Y-60158333D01*
X93652500Y-60253571D01*
X93652500Y-60348809D01*
X94128690Y-60444047D01*
X93223928Y-60777380D02*
X93223928Y-60110714D01*
X93223928Y-60301190D02*
X93176309Y-60205952D01*
X93128690Y-60158333D01*
X93033452Y-60110714D01*
X92938214Y-60110714D01*
X91890595Y-60729761D02*
X91747738Y-60777380D01*
X91509642Y-60777380D01*
X91414404Y-60729761D01*
X91366785Y-60682142D01*
X91319166Y-60586904D01*
X91319166Y-60491666D01*
X91366785Y-60396428D01*
X91414404Y-60348809D01*
X91509642Y-60301190D01*
X91700119Y-60253571D01*
X91795357Y-60205952D01*
X91842976Y-60158333D01*
X91890595Y-60063095D01*
X91890595Y-59967857D01*
X91842976Y-59872619D01*
X91795357Y-59825000D01*
X91700119Y-59777380D01*
X91462023Y-59777380D01*
X91319166Y-59825000D01*
X90462023Y-60110714D02*
X90462023Y-60777380D01*
X90890595Y-60110714D02*
X90890595Y-60634523D01*
X90842976Y-60729761D01*
X90747738Y-60777380D01*
X90604880Y-60777380D01*
X90509642Y-60729761D01*
X90462023Y-60682142D01*
X89985833Y-60110714D02*
X89985833Y-61110714D01*
X89985833Y-60158333D02*
X89890595Y-60110714D01*
X89700119Y-60110714D01*
X89604880Y-60158333D01*
X89557261Y-60205952D01*
X89509642Y-60301190D01*
X89509642Y-60586904D01*
X89557261Y-60682142D01*
X89604880Y-60729761D01*
X89700119Y-60777380D01*
X89890595Y-60777380D01*
X89985833Y-60729761D01*
X89081071Y-60110714D02*
X89081071Y-61110714D01*
X89081071Y-60158333D02*
X88985833Y-60110714D01*
X88795357Y-60110714D01*
X88700119Y-60158333D01*
X88652500Y-60205952D01*
X88604880Y-60301190D01*
X88604880Y-60586904D01*
X88652500Y-60682142D01*
X88700119Y-60729761D01*
X88795357Y-60777380D01*
X88985833Y-60777380D01*
X89081071Y-60729761D01*
X88033452Y-60777380D02*
X88128690Y-60729761D01*
X88176309Y-60634523D01*
X88176309Y-59777380D01*
X87747738Y-60110714D02*
X87509642Y-60777380D01*
X87271547Y-60110714D02*
X87509642Y-60777380D01*
X87604880Y-61015476D01*
X87652500Y-61063095D01*
X87747738Y-61110714D01*
X86128690Y-60396428D02*
X85366785Y-60396428D01*
X84128690Y-60777380D02*
X84128690Y-59777380D01*
X83747738Y-59777380D01*
X83652500Y-59825000D01*
X83604880Y-59872619D01*
X83557261Y-59967857D01*
X83557261Y-60110714D01*
X83604880Y-60205952D01*
X83652500Y-60253571D01*
X83747738Y-60301190D01*
X84128690Y-60301190D01*
X83128690Y-60396428D02*
X82366785Y-60396428D01*
X81890595Y-60777380D02*
X81890595Y-59777380D01*
X81319166Y-60777380D01*
X81319166Y-59777380D01*
X80700119Y-60777380D02*
X80795357Y-60729761D01*
X80842976Y-60682142D01*
X80890595Y-60586904D01*
X80890595Y-60301190D01*
X80842976Y-60205952D01*
X80795357Y-60158333D01*
X80700119Y-60110714D01*
X80557261Y-60110714D01*
X80462023Y-60158333D01*
X80414404Y-60205952D01*
X80366785Y-60301190D01*
X80366785Y-60586904D01*
X80414404Y-60682142D01*
X80462023Y-60729761D01*
X80557261Y-60777380D01*
X80700119Y-60777380D01*
X79938214Y-60682142D02*
X79890595Y-60729761D01*
X79938214Y-60777380D01*
X79985833Y-60729761D01*
X79938214Y-60682142D01*
X79938214Y-60777380D01*
X79938214Y-60158333D02*
X79890595Y-60205952D01*
X79938214Y-60253571D01*
X79985833Y-60205952D01*
X79938214Y-60158333D01*
X79938214Y-60253571D01*
X78795357Y-59777380D02*
X78176309Y-59777380D01*
X78509642Y-60158333D01*
X78366785Y-60158333D01*
X78271547Y-60205952D01*
X78223928Y-60253571D01*
X78176309Y-60348809D01*
X78176309Y-60586904D01*
X78223928Y-60682142D01*
X78271547Y-60729761D01*
X78366785Y-60777380D01*
X78652500Y-60777380D01*
X78747738Y-60729761D01*
X78795357Y-60682142D01*
X77700119Y-60777380D02*
X77509642Y-60777380D01*
X77414404Y-60729761D01*
X77366785Y-60682142D01*
X77271547Y-60539285D01*
X77223928Y-60348809D01*
X77223928Y-59967857D01*
X77271547Y-59872619D01*
X77319166Y-59825000D01*
X77414404Y-59777380D01*
X77604880Y-59777380D01*
X77700119Y-59825000D01*
X77747738Y-59872619D01*
X77795357Y-59967857D01*
X77795357Y-60205952D01*
X77747738Y-60301190D01*
X77700119Y-60348809D01*
X77604880Y-60396428D01*
X77414404Y-60396428D01*
X77319166Y-60348809D01*
X77271547Y-60301190D01*
X77223928Y-60205952D01*
X76271547Y-60777380D02*
X76842976Y-60777380D01*
X76557261Y-60777380D02*
X76557261Y-59777380D01*
X76652500Y-59920238D01*
X76747738Y-60015476D01*
X76842976Y-60063095D01*
X75652500Y-59777380D02*
X75557261Y-59777380D01*
X75462023Y-59825000D01*
X75414404Y-59872619D01*
X75366785Y-59967857D01*
X75319166Y-60158333D01*
X75319166Y-60396428D01*
X75366785Y-60586904D01*
X75414404Y-60682142D01*
X75462023Y-60729761D01*
X75557261Y-60777380D01*
X75652500Y-60777380D01*
X75747738Y-60729761D01*
X75795357Y-60682142D01*
X75842976Y-60586904D01*
X75890595Y-60396428D01*
X75890595Y-60158333D01*
X75842976Y-59967857D01*
X75795357Y-59872619D01*
X75747738Y-59825000D01*
X75652500Y-59777380D01*
X74938214Y-59872619D02*
X74890595Y-59825000D01*
X74795357Y-59777380D01*
X74557261Y-59777380D01*
X74462023Y-59825000D01*
X74414404Y-59872619D01*
X74366785Y-59967857D01*
X74366785Y-60063095D01*
X74414404Y-60205952D01*
X74985833Y-60777380D01*
X74366785Y-60777380D01*
X73890595Y-60777380D02*
X73700119Y-60777380D01*
X73604880Y-60729761D01*
X73557261Y-60682142D01*
X73462023Y-60539285D01*
X73414404Y-60348809D01*
X73414404Y-59967857D01*
X73462023Y-59872619D01*
X73509642Y-59825000D01*
X73604880Y-59777380D01*
X73795357Y-59777380D01*
X73890595Y-59825000D01*
X73938214Y-59872619D01*
X73985833Y-59967857D01*
X73985833Y-60205952D01*
X73938214Y-60301190D01*
X73890595Y-60348809D01*
X73795357Y-60396428D01*
X73604880Y-60396428D01*
X73509642Y-60348809D01*
X73462023Y-60301190D01*
X73414404Y-60205952D01*
X72985833Y-60396428D02*
X72223928Y-60396428D01*
X71557261Y-59777380D02*
X71462023Y-59777380D01*
X71366785Y-59825000D01*
X71319166Y-59872619D01*
X71271547Y-59967857D01*
X71223928Y-60158333D01*
X71223928Y-60396428D01*
X71271547Y-60586904D01*
X71319166Y-60682142D01*
X71366785Y-60729761D01*
X71462023Y-60777380D01*
X71557261Y-60777380D01*
X71652500Y-60729761D01*
X71700119Y-60682142D01*
X71747738Y-60586904D01*
X71795357Y-60396428D01*
X71795357Y-60158333D01*
X71747738Y-59967857D01*
X71700119Y-59872619D01*
X71652500Y-59825000D01*
X71557261Y-59777380D01*
X70842976Y-59872619D02*
X70795357Y-59825000D01*
X70700119Y-59777380D01*
X70462023Y-59777380D01*
X70366785Y-59825000D01*
X70319166Y-59872619D01*
X70271547Y-59967857D01*
X70271547Y-60063095D01*
X70319166Y-60205952D01*
X70890595Y-60777380D01*
X70271547Y-60777380D01*
X120071428Y-99678571D02*
X119928571Y-99726190D01*
X119880952Y-99773809D01*
X119833333Y-99869047D01*
X119833333Y-100011904D01*
X119880952Y-100107142D01*
X119928571Y-100154761D01*
X120023809Y-100202380D01*
X120404761Y-100202380D01*
X120404761Y-99202380D01*
X120071428Y-99202380D01*
X119976190Y-99250000D01*
X119928571Y-99297619D01*
X119880952Y-99392857D01*
X119880952Y-99488095D01*
X119928571Y-99583333D01*
X119976190Y-99630952D01*
X120071428Y-99678571D01*
X120404761Y-99678571D01*
X119261904Y-100202380D02*
X119357142Y-100154761D01*
X119404761Y-100107142D01*
X119452380Y-100011904D01*
X119452380Y-99726190D01*
X119404761Y-99630952D01*
X119357142Y-99583333D01*
X119261904Y-99535714D01*
X119119047Y-99535714D01*
X119023809Y-99583333D01*
X118976190Y-99630952D01*
X118928571Y-99726190D01*
X118928571Y-100011904D01*
X118976190Y-100107142D01*
X119023809Y-100154761D01*
X119119047Y-100202380D01*
X119261904Y-100202380D01*
X118642857Y-99535714D02*
X118261904Y-99535714D01*
X118500000Y-99202380D02*
X118500000Y-100059523D01*
X118452380Y-100154761D01*
X118357142Y-100202380D01*
X118261904Y-100202380D01*
X118071428Y-99535714D02*
X117690476Y-99535714D01*
X117928571Y-99202380D02*
X117928571Y-100059523D01*
X117880952Y-100154761D01*
X117785714Y-100202380D01*
X117690476Y-100202380D01*
X117214285Y-100202380D02*
X117309523Y-100154761D01*
X117357142Y-100107142D01*
X117404761Y-100011904D01*
X117404761Y-99726190D01*
X117357142Y-99630952D01*
X117309523Y-99583333D01*
X117214285Y-99535714D01*
X117071428Y-99535714D01*
X116976190Y-99583333D01*
X116928571Y-99630952D01*
X116880952Y-99726190D01*
X116880952Y-100011904D01*
X116928571Y-100107142D01*
X116976190Y-100154761D01*
X117071428Y-100202380D01*
X117214285Y-100202380D01*
X116452380Y-100202380D02*
X116452380Y-99535714D01*
X116452380Y-99630952D02*
X116404761Y-99583333D01*
X116309523Y-99535714D01*
X116166666Y-99535714D01*
X116071428Y-99583333D01*
X116023809Y-99678571D01*
X116023809Y-100202380D01*
X116023809Y-99678571D02*
X115976190Y-99583333D01*
X115880952Y-99535714D01*
X115738095Y-99535714D01*
X115642857Y-99583333D01*
X115595238Y-99678571D01*
X115595238Y-100202380D01*
%TO.C,Meanwell RT50-B*%
X121702380Y-81940476D02*
X120702380Y-81940476D01*
X121416666Y-82273809D01*
X120702380Y-82607142D01*
X121702380Y-82607142D01*
X120702380Y-82988095D02*
X120702380Y-83607142D01*
X121083333Y-83273809D01*
X121083333Y-83416666D01*
X121130952Y-83511904D01*
X121178571Y-83559523D01*
X121273809Y-83607142D01*
X121511904Y-83607142D01*
X121607142Y-83559523D01*
X121654761Y-83511904D01*
X121702380Y-83416666D01*
X121702380Y-83130952D01*
X121654761Y-83035714D01*
X121607142Y-82988095D01*
X121702380Y-127190476D02*
X120702380Y-127190476D01*
X121416666Y-127523809D01*
X120702380Y-127857142D01*
X121702380Y-127857142D01*
X120702380Y-128238095D02*
X120702380Y-128857142D01*
X121083333Y-128523809D01*
X121083333Y-128666666D01*
X121130952Y-128761904D01*
X121178571Y-128809523D01*
X121273809Y-128857142D01*
X121511904Y-128857142D01*
X121607142Y-128809523D01*
X121654761Y-128761904D01*
X121702380Y-128666666D01*
X121702380Y-128380952D01*
X121654761Y-128285714D01*
X121607142Y-128238095D01*
%TD*%
M02*
