%TF.GenerationSoftware,KiCad,Pcbnew,(5.1.6)-1*%
%TF.CreationDate,2020-08-16T12:36:38+01:00*%
%TF.ProjectId,KiKadAmigaMeanwell,4b694b61-6441-46d6-9967-614d65616e77,1.00*%
%TF.SameCoordinates,Original*%
%TF.FileFunction,Copper,L1,Top*%
%TF.FilePolarity,Positive*%
%FSLAX46Y46*%
G04 Gerber Fmt 4.6, Leading zero omitted, Abs format (unit mm)*
G04 Created by KiCad (PCBNEW (5.1.6)-1) date 2020-08-16 12:36:38*
%MOMM*%
%LPD*%
G01*
G04 APERTURE LIST*
%TA.AperFunction,ComponentPad*%
%ADD10O,1.740000X2.190000*%
%TD*%
%TA.AperFunction,ComponentPad*%
%ADD11C,6.300000*%
%TD*%
%TA.AperFunction,WasherPad*%
%ADD12C,6.300000*%
%TD*%
G04 APERTURE END LIST*
D10*
%TO.P,5VFan2,2*%
%TO.N,GND*%
X144040000Y-46600000D03*
%TO.P,5VFan2,1*%
%TO.N,+5V*%
%TA.AperFunction,ComponentPad*%
G36*
G01*
X140630000Y-47445001D02*
X140630000Y-45754999D01*
G75*
G02*
X140879999Y-45505000I249999J0D01*
G01*
X142120001Y-45505000D01*
G75*
G02*
X142370000Y-45754999I0J-249999D01*
G01*
X142370000Y-47445001D01*
G75*
G02*
X142120001Y-47695000I-249999J0D01*
G01*
X140879999Y-47695000D01*
G75*
G02*
X140630000Y-47445001I0J249999D01*
G01*
G37*
%TD.AperFunction*%
%TD*%
%TO.P,FromMeanwell1,5*%
%TO.N,Net-(FromMeanwell1-Pad5)*%
X111940000Y-161600000D03*
%TO.P,FromMeanwell1,4*%
%TO.N,-12V*%
X114480000Y-161600000D03*
%TO.P,FromMeanwell1,3*%
%TO.N,+12V*%
X117020000Y-161600000D03*
%TO.P,FromMeanwell1,2*%
%TO.N,GND*%
X119560000Y-161600000D03*
%TO.P,FromMeanwell1,1*%
%TO.N,+5V*%
%TA.AperFunction,ComponentPad*%
G36*
G01*
X122970000Y-160754999D02*
X122970000Y-162445001D01*
G75*
G02*
X122720001Y-162695000I-249999J0D01*
G01*
X121479999Y-162695000D01*
G75*
G02*
X121230000Y-162445001I0J249999D01*
G01*
X121230000Y-160754999D01*
G75*
G02*
X121479999Y-160505000I249999J0D01*
G01*
X122720001Y-160505000D01*
G75*
G02*
X122970000Y-160754999I0J-249999D01*
G01*
G37*
%TD.AperFunction*%
%TD*%
%TO.P,ToAmiga1,5*%
%TO.N,+5V*%
X127560000Y-45300000D03*
%TO.P,ToAmiga1,4*%
%TO.N,GND*%
X125020000Y-45300000D03*
%TO.P,ToAmiga1,3*%
%TO.N,+12V*%
X122480000Y-45300000D03*
%TO.P,ToAmiga1,2*%
%TO.N,-12V*%
X119940000Y-45300000D03*
%TO.P,ToAmiga1,1*%
%TO.N,Earth*%
%TA.AperFunction,ComponentPad*%
G36*
G01*
X116530000Y-46145001D02*
X116530000Y-44454999D01*
G75*
G02*
X116779999Y-44205000I249999J0D01*
G01*
X118020001Y-44205000D01*
G75*
G02*
X118270000Y-44454999I0J-249999D01*
G01*
X118270000Y-46145001D01*
G75*
G02*
X118020001Y-46395000I-249999J0D01*
G01*
X116779999Y-46395000D01*
G75*
G02*
X116530000Y-46145001I0J249999D01*
G01*
G37*
%TD.AperFunction*%
%TD*%
%TO.P,5VFan1,2*%
%TO.N,GND*%
X158940000Y-161700000D03*
%TO.P,5VFan1,1*%
%TO.N,+5V*%
%TA.AperFunction,ComponentPad*%
G36*
G01*
X155530000Y-162545001D02*
X155530000Y-160854999D01*
G75*
G02*
X155779999Y-160605000I249999J0D01*
G01*
X157020001Y-160605000D01*
G75*
G02*
X157270000Y-160854999I0J-249999D01*
G01*
X157270000Y-162545001D01*
G75*
G02*
X157020001Y-162795000I-249999J0D01*
G01*
X155779999Y-162795000D01*
G75*
G02*
X155530000Y-162545001I0J249999D01*
G01*
G37*
%TD.AperFunction*%
%TD*%
%TO.P,12VFan1,2*%
%TO.N,GND*%
X79740000Y-42600000D03*
%TO.P,12VFan1,1*%
%TO.N,+12V*%
%TA.AperFunction,ComponentPad*%
G36*
G01*
X76330000Y-43445001D02*
X76330000Y-41754999D01*
G75*
G02*
X76579999Y-41505000I249999J0D01*
G01*
X77820001Y-41505000D01*
G75*
G02*
X78070000Y-41754999I0J-249999D01*
G01*
X78070000Y-43445001D01*
G75*
G02*
X77820001Y-43695000I-249999J0D01*
G01*
X76579999Y-43695000D01*
G75*
G02*
X76330000Y-43445001I0J249999D01*
G01*
G37*
%TD.AperFunction*%
%TD*%
D11*
%TO.P,Meanwell RT-50B,*%
%TO.N,Earth*%
X121000000Y-78000000D03*
D12*
%TO.N,*%
X121000000Y-133000000D03*
%TD*%
M02*
